<svg width="80" height="16" viewBox="0 0 80 16" fill="none" xmlns="http://www.w3.org/2000/svg">
<g clip-path="url(#clip0_838_800)">
<path d="M75.8702 10.76C74.573 10.76 73.5351 11.78 73.5351 12.98C73.5351 14.18 74.6378 15.14 75.9351 15.14C77.2324 15.14 78.2702 14.18 78.2702 12.98C78.2054 11.72 77.1675 10.76 75.8702 10.76ZM60.3027 1.34C60.3675 1.46 60.3675 1.52 60.3675 1.64V10.64C60.4324 11 60.3027 11.42 60.1081 11.72C59.7189 12.14 59.0702 12.2 58.6811 11.84C58.6162 11.78 58.5513 11.78 58.5513 11.72C58.3567 11.36 58.227 11 58.2919 10.64V1.64C58.2919 1.52 58.2919 1.4 58.3567 1.34C58.4216 1.22 58.4865 1.16 58.5513 1.1H53.6216C53.7513 1.16 53.8162 1.22 53.8162 1.34C53.8811 1.46 53.8811 1.52 53.8811 1.64V10.82C53.8811 13.28 55.5027 15.2 59.2 15.2H59.3946C63.027 15.2 64.7135 13.22 64.7135 10.82V1.64C64.7135 1.52 64.7135 1.4 64.7784 1.34C64.8432 1.22 64.9081 1.16 64.9729 1.1H60.1081C60.173 1.16 60.3027 1.22 60.3027 1.34ZM53.3621 11.72C53.2324 11.78 53.1675 11.78 53.0378 11.78H50.5081V1.64C50.5081 1.52 50.5081 1.46 50.573 1.34C50.6378 1.22 50.7027 1.16 50.7675 1.1H45.9027C46.0324 1.16 46.0973 1.22 46.0973 1.34C46.0973 1.4 46.1621 1.52 46.1621 1.58V14.3C46.1621 14.42 46.1621 14.48 46.0973 14.6C46.0324 14.72 45.9675 14.78 45.9027 14.84H53.6216V11.48C53.5567 11.6 53.4919 11.72 53.3621 11.72ZM72.173 14.66C72.1081 14.54 72.1081 14.48 72.1081 14.36V4.22H73.9892C74.1189 4.22 74.2486 4.22 74.3135 4.28C74.4432 4.34 74.5081 4.4 74.573 4.46V1.1H65.2973V4.46C65.3621 4.34 65.4919 4.28 65.5567 4.28C65.6865 4.22 65.7513 4.22 65.8811 4.22H67.7621V14.42C67.7621 14.48 67.7621 14.6 67.6973 14.66C67.6324 14.78 67.5675 14.84 67.5027 14.9H72.3675C72.3027 14.84 72.2378 14.72 72.173 14.66ZM39.6757 0.800003C35.7838 0.800003 33.9675 3.5 33.9027 7.82V8.18C33.9675 12.5 35.7838 15.2 39.6757 15.2C43.5675 15.2 45.3838 12.5 45.4486 8.18V7.82C45.3838 3.5 43.5675 0.860003 39.6757 0.800003ZM40.9729 8.18C40.9729 10.04 40.9081 12.08 39.6757 12.14C38.4432 12.08 38.3784 10.1 38.3784 8.18V7.82C38.3784 5.96 38.4432 3.86 39.6757 3.86C40.9081 3.92 40.9729 5.96 40.9729 7.82V8.18ZM76.8432 3.5C77.6865 3.5 78.2702 2.84 78.2702 2.12C78.2702 1.4 77.5567 0.800003 76.7784 0.800003C76 0.800003 75.3513 1.4 75.3513 2.18C75.3513 2.9 76.0648 3.56 76.8432 3.5ZM76.8432 0.920003C77.5567 0.920003 78.1405 1.52 78.1405 2.18C78.1405 2.84 77.4919 3.38 76.7784 3.38C76.0648 3.38 75.4811 2.84 75.4811 2.18C75.5459 1.46 76.1297 0.920003 76.8432 0.920003ZM76.5189 2.24H76.9081L77.3621 2.9H77.6216L77.1675 2.24C77.427 2.24 77.6216 2 77.5567 1.82C77.5567 1.52 77.3621 1.4 76.9081 1.4H76.2594V2.9H76.5189V2.24ZM76.5189 1.58H76.9081C77.1027 1.58 77.2973 1.58 77.2973 1.82C77.2973 2.06 77.1027 2.06 76.9081 2.06H76.5189V1.58ZM20.8648 7.76C22.2919 7.7 23.5892 6.38 23.5243 4.64C23.4594 2.18 21.4486 1.1 18.0108 1.1H13.4054C13.5351 1.16 13.6 1.22 13.6 1.34C13.6648 1.58 13.6648 1.82 13.6648 2.06V13.94C13.7297 14.24 13.6648 14.6 13.5351 14.9H18.9838C22.4216 14.9 24.1081 13.4 24.1081 11.06C24.2378 9.32 22.7459 7.88 20.8648 7.76ZM17.9459 3.92H18.2054C19.0486 3.92 19.827 4.34 19.7621 5.3C19.7621 6.02 19.1135 6.62 18.3351 6.62H17.9459V3.92ZM18.2054 12.08H17.9459V9.08H18.2054C19.3729 9.08 20.0216 9.62 20.0216 10.52C20.0216 11.66 19.2432 12.08 18.2054 12.08ZM12.8865 13.34L9.96754 1.76C9.83781 1.52 9.90268 1.28 10.1621 1.1H4.64862C4.84322 1.28 4.90808 1.52 4.84322 1.76C4.77835 2.06 1.85943 13.34 1.85943 13.34C1.53511 14.78 1.08105 14.9 1.08105 14.9H6.07565C5.81619 14.78 5.68646 14.54 5.81619 14.3C5.88105 13.82 6.07565 12.68 6.07565 12.68H8.60538L8.86484 14.3C8.9297 14.54 8.79997 14.78 8.60538 14.9H13.4054C13.4054 14.9 13.2108 14.78 12.8865 13.34ZM6.5297 10.1L7.37295 4.64L8.21619 10.1H6.5297ZM32.3459 7.94C31.5027 7.16 30.6594 6.5 29.6865 5.84C28.9081 5.3 28.5189 4.94 28.7135 4.4C29.1027 3.32 31.2432 4.04 32.6054 4.88V1.28C32.4108 1.46 32.1513 1.52 31.9567 1.4C31.1135 1.04 30.2054 0.860003 29.2973 0.860003C26.3135 0.860003 24.627 2.84 24.627 4.76C24.5621 6.08 25.1459 7.34 26.2486 8.12C27.1567 8.84 28.1946 9.56 28.8432 10.1C29.3621 10.46 29.5567 11 29.3621 11.54C28.9729 12.38 27.2216 12.32 24.627 10.34V14.42C24.8216 14.24 25.1459 14.24 25.4054 14.36C26.3784 14.84 27.5459 15.14 28.6486 15.2C32.1513 15.26 33.9675 13.16 33.7081 10.58C33.5784 9.62 33.1243 8.66 32.3459 7.94Z" fill="#535862"/>
</g>
<defs>
<clipPath id="clip0_838_800">
<rect width="80" height="15" fill="white" transform="translate(0 0.5)"/>
</clipPath>
</defs>
</svg>
