<svg width="83" height="20" viewBox="0 0 83 20" fill="none" xmlns="http://www.w3.org/2000/svg">
<path fill-rule="evenodd" clip-rule="evenodd" d="M24.464 12.0502H25.1418C26.1071 12.0502 26.6173 12.4981 26.6173 13.3447V13.4832C26.6173 14.3178 26.0932 14.7775 25.1418 14.7775H24.464V12.0502ZM26.2945 8.85203C26.2945 9.53085 25.8848 9.90457 25.1418 9.90457H24.464V7.69532H25.1758C25.8763 7.69532 26.2945 8.08882 26.2945 8.74817V8.85203ZM27.422 10.7701C28.3612 10.4162 28.9624 9.56486 28.9624 8.57537V8.43689C28.9624 6.60475 27.5103 5.32532 25.4306 5.32532H21.7961V17.1478H25.1585C27.885 17.1478 29.3869 15.92 29.3869 13.6906V13.5175C29.3869 11.7268 28.2935 11.0866 27.422 10.7701Z" fill="#535862"/>
<path fill-rule="evenodd" clip-rule="evenodd" d="M61.0246 7.8333H61.4652C62.1615 7.8333 62.9914 8.0908 62.9914 9.31799V9.43917C62.9914 10.4491 62.4351 11.0277 61.4652 11.0277H61.0246V7.8333ZM65.7951 9.45648V9.28399C65.7951 6.84228 64.1818 5.32544 61.584 5.32544H58.2046V17.1479H61.0246V13.2592H61.6614L63.0956 17.1244L63.1041 17.1479H66.032L64.2246 12.4611C65.2525 11.8221 65.7951 10.7841 65.7951 9.45648Z" fill="#535862"/>
<path fill-rule="evenodd" clip-rule="evenodd" d="M81.009 0.5V0.535858C81.009 0.934618 80.6644 1.16306 80.3683 1.31545L78.2615 2.08824C78.0229 2.18376 77.4675 2.50153 77.4675 3.39148V4.83382H77.7204V4.79796C77.7204 4.38251 78.0001 4.20508 78.3611 4.01837L80.4679 3.24589C80.7066 3.15068 81.2623 2.83229 81.2623 1.94265V0.5H81.009Z" fill="#535862"/>
<path fill-rule="evenodd" clip-rule="evenodd" d="M77.4676 17.1476H80.2882V5.32507H77.4676V17.1476Z" fill="#535862"/>
<path fill-rule="evenodd" clip-rule="evenodd" d="M70.4579 7.8333H70.8979C72.3588 7.8333 73.0691 8.8843 73.0691 11.0469V11.4095C73.0691 13.5829 72.3588 14.6394 70.8979 14.6394H70.4579V7.8333ZM71.0673 5.32544H67.6372V17.1479H71.0673C74.1294 17.1479 75.9575 15.0348 75.9575 11.4957V10.9773C75.9575 9.16127 75.5038 7.73964 74.6095 6.7517C73.7644 5.81848 72.5392 5.32544 71.0673 5.32544Z" fill="#535862"/>
<path fill-rule="evenodd" clip-rule="evenodd" d="M53.1705 13.8444H51.699L52.1629 12.0241C52.2792 11.6454 52.3697 11.2506 52.4238 11.0145C52.428 10.9972 52.4317 10.9808 52.4356 10.9644C52.4885 11.1768 52.5966 11.6111 52.7235 12.0222L53.1705 13.8444ZM52.7481 5.18732H52.3251L48.0216 17.0994L48.0043 17.148H50.661L51.0345 15.9384H53.8355L54.2257 17.148H57.0342L52.7563 5.21081L52.7481 5.18732Z" fill="#535862"/>
<path fill-rule="evenodd" clip-rule="evenodd" d="M34.9478 13.8411H33.4766L33.9403 12.0205C34.0578 11.6362 34.1528 11.2232 34.2033 11.0013C34.2066 10.9871 34.2096 10.9735 34.2127 10.9605C34.2139 10.9673 34.2157 10.9738 34.2178 10.9809C34.2737 11.2041 34.3782 11.6198 34.5005 12.0189L34.9478 13.8411ZM34.5254 5.18402H34.1027L29.7817 17.1444H32.4384L32.8116 15.9212H35.6125L36.0027 17.1444H38.8113L34.5336 5.20751L34.5254 5.18402Z" fill="#535862"/>
<path fill-rule="evenodd" clip-rule="evenodd" d="M42.4607 8.47583C42.819 7.99948 43.3085 7.74755 43.8761 7.74755C44.1235 7.74755 44.3507 7.78557 44.5714 7.86409C44.603 7.87491 44.6337 7.88696 44.6616 7.89871C44.917 8.01895 45.1387 8.19917 45.302 8.41802C45.3233 8.45079 45.3452 8.48479 45.3667 8.52065C45.394 8.56702 45.4214 8.614 45.4478 8.66594L45.4694 8.69561L47.7271 7.47769L47.7113 7.44647C46.9518 5.92623 45.6804 5.18713 43.8247 5.18713C42.3429 5.18713 41.1058 5.71511 40.2467 6.71386C39.3661 7.73673 38.9012 9.24089 38.9012 11.0634V11.4097C38.9012 15.0999 40.704 17.303 43.7236 17.303C44.7561 17.303 45.6528 17.0473 46.3885 16.5429C46.4432 16.5058 46.4957 16.469 46.5452 16.4322L46.5707 16.4102C47.0186 16.064 47.3946 15.6183 47.6885 15.0854L47.704 15.0575L45.7335 13.6396L45.7138 13.6708C45.4958 14.0158 45.2662 14.2684 45.0151 14.4412C44.6294 14.6588 44.2562 14.7602 43.8417 14.7602C42.5375 14.7602 41.789 13.5073 41.789 11.3231V11.133C41.789 9.96237 42.0155 9.06841 42.4607 8.47583Z" fill="#535862"/>
<path fill-rule="evenodd" clip-rule="evenodd" d="M82.0048 16.1672H82.0977C82.2061 16.1672 82.2936 16.1304 82.2936 16.0411C82.2936 15.9622 82.2368 15.9097 82.1129 15.9097C82.0613 15.9097 82.0251 15.9153 82.0048 15.9199V16.1672ZM81.9993 16.6553H81.8034V15.7941C81.8809 15.7789 81.9893 15.7678 82.1287 15.7678C82.2884 15.7678 82.3604 15.7941 82.4223 15.8312C82.4688 15.868 82.5049 15.936 82.5049 16.02C82.5049 16.1146 82.4329 16.1879 82.3297 16.2194V16.2299C82.412 16.2615 82.4587 16.3245 82.4842 16.4398C82.5098 16.5712 82.5255 16.6238 82.5462 16.6553H82.3348C82.309 16.6238 82.2936 16.5449 82.2677 16.4454C82.252 16.3511 82.2006 16.3091 82.0925 16.3091H81.9993V16.6553ZM81.4785 16.2037C81.4785 16.587 81.7573 16.8918 82.1387 16.8918C82.5098 16.8918 82.7834 16.587 82.7834 16.2092C82.7834 15.8256 82.5098 15.5162 82.1335 15.5162C81.7573 15.5162 81.4785 15.8256 81.4785 16.2037ZM82.9999 16.2037C82.9999 16.6924 82.6233 17.0751 82.1335 17.0751C81.6489 17.0751 81.2623 16.6924 81.2623 16.2037C81.2623 15.7261 81.6489 15.3428 82.1335 15.3428C82.6233 15.3428 82.9999 15.7261 82.9999 16.2037Z" fill="#535862"/>
<path fill-rule="evenodd" clip-rule="evenodd" d="M8.69184 1.80525C3.89191 1.80525 0.000518799 5.76597 0.000518799 10.6522C0.000518799 15.539 3.89191 19.5 8.69184 19.5C13.4915 19.5 17.3829 15.539 17.3829 10.6522C17.3829 5.76597 13.4915 1.80525 8.69184 1.80525Z" fill="#FFFFFE"/>
<path fill-rule="evenodd" clip-rule="evenodd" d="M8.6918 3.02129C4.55141 3.02129 1.19507 6.43795 1.19507 10.6528C1.19507 14.8673 4.55141 18.2839 8.6918 18.2839C12.8322 18.2839 16.1882 14.8673 16.1882 10.6528C16.1882 6.43795 12.8322 3.02129 8.6918 3.02129Z" fill="#535862"/>
<path fill-rule="evenodd" clip-rule="evenodd" d="M8.69177 3.18225C4.64552 3.18225 1.35325 6.53339 1.35325 10.6527C1.35325 14.772 4.64552 18.1225 8.69177 18.1225C12.738 18.1225 16.0303 14.772 16.0303 10.6527C16.0303 6.53339 12.738 3.18225 8.69177 3.18225ZM8.69177 18.4446C4.47091 18.4446 1.03714 14.9491 1.03714 10.6527C1.03714 6.35626 4.47091 2.86046 8.69177 2.86046C12.9123 2.86046 16.3461 6.35626 16.3461 10.6527C16.3461 14.9491 12.9123 18.4446 8.69177 18.4446Z" fill="#0C0A09"/>
<path fill-rule="evenodd" clip-rule="evenodd" d="M8.69169 18.95C4.18964 18.95 0.540574 15.2351 0.540574 10.6527C0.540574 6.07005 4.18964 2.35508 8.69169 2.35508C13.1934 2.35508 16.8425 6.07005 16.8425 10.6527C16.8425 15.2351 13.1934 18.95 8.69169 18.95ZM8.69169 1.80516C3.89175 1.80516 6.10352e-05 5.76587 6.10352e-05 10.6521C6.10352e-05 15.5389 3.89175 19.4996 8.69169 19.4996C13.4913 19.4996 17.3827 15.5389 17.3827 10.6521C17.3827 5.76587 13.4913 1.80516 8.69169 1.80516Z" fill="#535862"/>
<path fill-rule="evenodd" clip-rule="evenodd" d="M8.69175 2.55608C4.30601 2.55608 0.73832 6.1882 0.73832 10.6525C0.73832 15.117 4.30601 18.7485 8.69175 18.7485C13.0772 18.7485 16.6452 15.117 16.6452 10.6525C16.6452 6.1882 13.0772 2.55608 8.69175 2.55608ZM8.69175 19.151C4.08798 19.151 0.342957 15.3387 0.342957 10.6525C0.342957 5.96656 4.08798 2.15392 8.69175 2.15392C13.2955 2.15392 17.0402 5.96656 17.0402 10.6525C17.0402 15.3387 13.2955 19.151 8.69175 19.151Z" fill="#535862"/>
<path fill-rule="evenodd" clip-rule="evenodd" d="M6.67758 4.67577L6.5335 4.719L6.45707 4.51997L6.60847 4.47513C6.61834 4.4719 6.62748 4.46997 6.63699 4.46835C6.64138 4.46739 6.64577 4.46642 6.65015 4.46577C6.66003 4.46416 6.6699 4.46319 6.67868 4.46319C6.70172 4.46319 6.72146 4.46868 6.73792 4.47803C6.74267 4.47997 6.7467 4.48287 6.75108 4.48577C6.75767 4.49093 6.76352 4.49642 6.769 4.50287C6.7712 4.50545 6.77302 4.50932 6.77485 4.51222C6.77961 4.51964 6.78436 4.52706 6.78802 4.53642C6.81142 4.59771 6.77266 4.64706 6.67758 4.67577ZM6.36931 4.2919L6.51814 4.24803C6.54264 4.24029 6.56495 4.23674 6.5836 4.23674C6.60225 4.23674 6.61834 4.24061 6.63114 4.24771C6.63297 4.249 6.63516 4.24997 6.63736 4.25093C6.64248 4.25481 6.64796 4.25964 6.65271 4.26513C6.65381 4.2661 6.65418 4.26739 6.65527 4.26868C6.6593 4.27416 6.66332 4.28061 6.66588 4.28835C6.67648 4.31545 6.67319 4.33964 6.6571 4.35997C6.64028 4.38061 6.60993 4.39771 6.56605 4.41093L6.43074 4.45158L6.36931 4.2919ZM6.81764 4.43674C6.80813 4.43158 6.79899 4.429 6.78985 4.42545C6.78875 4.42513 6.78765 4.42481 6.78655 4.42416C6.76535 4.41739 6.74377 4.41287 6.71561 4.41287C6.70574 4.41287 6.69404 4.41319 6.6816 4.41416C6.71378 4.39222 6.79021 4.33481 6.7573 4.24803C6.74962 4.22868 6.73609 4.21319 6.72073 4.19997C6.72073 4.19997 6.72037 4.19964 6.72037 4.19932C6.69184 4.17545 6.65235 4.16093 6.60298 4.16093C6.57226 4.16093 6.54008 4.16642 6.50681 4.1761L6.25485 4.25158C6.25412 4.25158 6.25375 4.2519 6.25375 4.25222C6.25339 4.25255 6.25339 4.25287 6.25375 4.25319L6.46878 4.81255C6.46914 4.81287 6.46951 4.81319 6.46987 4.81351H6.4706L6.74852 4.73029C6.86554 4.69513 6.92003 4.60739 6.8831 4.5119C6.8703 4.47868 6.84836 4.45319 6.81764 4.43674Z" fill="#0C0A09"/>
<path fill-rule="evenodd" clip-rule="evenodd" d="M7.17767 4.37241L7.24228 4.08861L7.42684 4.32473L7.17767 4.37241ZM7.25763 3.9725C7.25763 3.97217 7.25727 3.97185 7.25656 3.97185L7.17802 3.98677C7.17731 3.98677 7.17695 3.98742 7.1766 3.98806L7.03094 4.62248C7.03094 4.62313 7.0313 4.62378 7.03166 4.6241C7.03202 4.62443 7.03237 4.62443 7.03273 4.62443L7.12269 4.60724C7.1234 4.60724 7.12412 4.60659 7.12412 4.60594L7.15982 4.45382L7.48039 4.3922L7.58035 4.51869C7.58035 4.51902 7.58106 4.51934 7.58142 4.51934L7.67066 4.50247C7.67102 4.50247 7.67173 4.50183 7.67173 4.5015C7.67209 4.50085 7.67209 4.50053 7.67173 4.49988L7.25763 3.9725Z" fill="#0C0A09"/>
<path fill-rule="evenodd" clip-rule="evenodd" d="M8.16352 4.24584C8.16321 4.24553 8.1626 4.24553 8.1623 4.24553C8.16169 4.24584 8.16139 4.24584 8.16109 4.24646C8.14924 4.27922 8.14226 4.29282 8.12677 4.31106C8.09793 4.34568 8.05815 4.36732 8.01472 4.37196C8.00895 4.37258 8.00318 4.37289 7.99741 4.37289C7.85227 4.37289 7.8219 4.22513 7.81552 4.16176C7.80216 4.02667 7.86593 3.92868 7.97434 3.91756C7.98041 3.91694 7.98648 3.91663 7.99256 3.91663C8.08031 3.91663 8.11311 3.98556 8.13072 4.02235C8.13102 4.02266 8.13133 4.02358 8.13194 4.02358C8.13254 4.02389 8.13254 4.02358 8.13285 4.02327L8.18629 3.96671C8.18659 3.96609 8.18659 3.96547 8.18659 3.96516C8.18477 3.95991 8.14013 3.84337 7.99286 3.84337C7.98284 3.84337 7.97282 3.84368 7.96249 3.84491C7.88628 3.85264 7.82403 3.88943 7.78273 3.95063C7.74113 4.01215 7.72382 4.09313 7.73293 4.18432C7.73536 4.21122 7.76512 4.44491 7.988 4.44491C7.99924 4.44491 8.01108 4.44429 8.02292 4.44306C8.16321 4.42914 8.20421 4.33672 8.22121 4.29746C8.22151 4.29684 8.22151 4.29622 8.22091 4.29592L8.16352 4.24584Z" fill="#0C0A09"/>
<path fill-rule="evenodd" clip-rule="evenodd" d="M8.64133 4.23356L8.76963 3.94673L8.89094 4.23673L8.64133 4.23356ZM8.81018 3.82587L8.73258 3.82481L8.73083 3.82587L8.44277 4.46718V4.46894L8.44417 4.46964L8.53401 4.47105L8.53506 4.46999L8.60533 4.31566L8.92555 4.31989L8.99197 4.47528L8.99302 4.47634L9.08181 4.47739L9.08321 4.47669L9.08356 4.47528L8.81193 3.82693L8.81018 3.82587Z" fill="#0C0A09"/>
<path fill-rule="evenodd" clip-rule="evenodd" d="M9.72149 4.11888C9.72022 4.11953 9.7198 4.12018 9.71895 4.12083C9.70921 4.12671 9.69776 4.13095 9.68505 4.13421C9.68251 4.13486 9.68039 4.13552 9.6787 4.13617C9.66472 4.13911 9.64988 4.14074 9.63294 4.14074H9.62658C9.61768 4.14074 9.60751 4.14041 9.59734 4.13911L9.39777 4.12051L9.42701 3.93615L9.61811 3.9541C9.63167 3.95573 9.64438 3.95736 9.65624 3.95965C9.65751 3.95997 9.65878 3.95997 9.65963 3.9603C9.67997 3.96421 9.69734 3.97041 9.71175 3.97759C9.71429 3.9789 9.71768 3.97988 9.72022 3.98151C9.72743 3.98542 9.73293 3.98999 9.73802 3.99489C9.73929 3.99586 9.73971 3.9975 9.74098 3.99847C9.75624 4.01479 9.76217 4.03534 9.75836 4.06047C9.75412 4.08592 9.74141 4.1055 9.72149 4.11888ZM9.65709 3.8846L9.3304 3.85393L9.32913 3.85425C9.32871 3.85458 9.32871 3.85491 9.32828 3.85523L9.2338 4.44745C9.2338 4.44843 9.23422 4.44908 9.23549 4.44941L9.341 4.45952C9.34184 4.45952 9.34354 4.4592 9.34354 4.45822L9.38549 4.19327L9.57404 4.21154L9.71726 4.49411C9.71726 4.49476 9.7181 4.49509 9.71895 4.49509L9.83251 4.50651C9.83335 4.50651 9.83378 4.50618 9.8342 4.50586C9.83463 4.5052 9.83463 4.50488 9.83463 4.50422L9.68717 4.20893C9.80285 4.1949 9.86047 4.15216 9.87318 4.07124C9.88844 3.97661 9.79776 3.8983 9.65709 3.8846Z" fill="#0C0A09"/>
<path fill-rule="evenodd" clip-rule="evenodd" d="M10.4555 4.36244C10.4253 4.47642 10.3512 4.54164 10.2527 4.54164C10.2355 4.54164 10.2179 4.53967 10.1995 4.53571L10.039 4.50145L10.1554 4.06201L10.3089 4.09462C10.3688 4.10747 10.4081 4.12987 10.4334 4.16545C10.4683 4.21321 10.4764 4.28338 10.4555 4.36244ZM10.3273 4.01951L10.0838 3.96812C10.0831 3.96812 10.082 3.96845 10.0816 3.96911L9.9259 4.55548C9.9259 4.55614 9.9259 4.55647 9.92627 4.5568C9.92627 4.55713 9.92701 4.55746 9.92737 4.55746L10.1826 4.61181C10.2105 4.61774 10.2381 4.6207 10.2652 4.6207C10.4088 4.6207 10.5146 4.53275 10.555 4.37924C10.5796 4.28733 10.566 4.19839 10.5171 4.12954C10.4793 4.0742 10.4191 4.03928 10.3273 4.01951Z" fill="#0C0A09"/>
<path fill-rule="evenodd" clip-rule="evenodd" d="M11.0284 4.04784L10.944 4.01929C10.9434 4.01898 10.9428 4.01898 10.9425 4.0196L10.8614 4.10494C10.8611 4.10525 10.8611 4.10587 10.8611 4.10649C10.8614 4.1068 10.8614 4.10743 10.8617 4.10743L10.916 4.12542C10.9163 4.12542 10.9169 4.12542 10.9172 4.12542L11.0287 4.05064C11.0294 4.05033 11.0294 4.0497 11.0294 4.04908C11.0294 4.04846 11.0291 4.04815 11.0284 4.04784Z" fill="#0C0A09"/>
<path fill-rule="evenodd" clip-rule="evenodd" d="M10.9052 4.2054L10.8329 4.18067C10.832 4.18036 10.8314 4.18098 10.8311 4.1816L10.6556 4.71853C10.6553 4.71884 10.6553 4.71915 10.6556 4.71946C10.6556 4.71977 10.6559 4.72008 10.6565 4.72039L10.7287 4.74481C10.7297 4.74481 10.7303 4.7445 10.7306 4.74419L10.9061 4.20725C10.9064 4.20694 10.9064 4.20633 10.9061 4.20602C10.9058 4.20571 10.9055 4.2054 10.9052 4.2054Z" fill="#0C0A09"/>
<path fill-rule="evenodd" clip-rule="evenodd" d="M4.54299 15.5072L4.54239 15.506L4.45888 15.4216L4.45706 15.4213L4.04439 15.6469L4.26272 15.2244V15.2228L4.1783 15.1378L4.17739 15.1375L4.17648 15.1378L3.78476 15.5387V15.5409L3.83334 15.5904L3.83425 15.5907L3.83547 15.5904L4.17678 15.2404L3.94023 15.697L3.94053 15.6985L3.99337 15.7526L3.99519 15.7529L4.44157 15.5084L4.10026 15.858V15.8602L4.14884 15.9094L4.14976 15.91L4.15067 15.9094L4.54239 15.5081L4.54299 15.5072Z" fill="#0C0A09"/>
<path fill-rule="evenodd" clip-rule="evenodd" d="M4.65876 16.0554L4.91751 15.9204L4.84604 16.1912L4.65876 16.0554ZM4.95755 15.8134C4.95689 15.8131 4.95622 15.8131 4.95589 15.8134L4.37685 16.1151C4.37619 16.1151 4.37585 16.1158 4.37585 16.1164C4.37585 16.1167 4.37619 16.1173 4.37652 16.1177L4.44402 16.1665C4.44435 16.1665 4.44501 16.1665 4.44567 16.1665L4.58464 16.0945L4.82619 16.2692L4.78847 16.4153C4.78847 16.416 4.78847 16.4166 4.78913 16.4169L4.85563 16.4654C4.85597 16.4657 4.8563 16.4657 4.85663 16.4657C4.85696 16.4654 4.85828 16.4651 4.85828 16.4645L5.01678 15.8575C5.01711 15.8569 5.01678 15.8563 5.01644 15.8563L4.95755 15.8134Z" fill="#0C0A09"/>
<path fill-rule="evenodd" clip-rule="evenodd" d="M5.59906 16.4362C5.59605 16.4415 5.5917 16.4461 5.58802 16.4502C5.58568 16.4526 5.58367 16.4551 5.58133 16.457C5.57397 16.4644 5.56494 16.4693 5.55591 16.473C5.55257 16.4746 5.54922 16.4761 5.54554 16.477C5.53919 16.4786 5.53283 16.4792 5.52581 16.4795C5.52414 16.4795 5.52246 16.4792 5.52113 16.4792C5.49938 16.4786 5.47564 16.4715 5.44988 16.4576L5.31375 16.3825L5.41108 16.231L5.54153 16.303C5.58133 16.3247 5.60508 16.3485 5.61244 16.3741C5.61746 16.3939 5.61344 16.4143 5.59906 16.4362ZM5.59906 16.2542L5.37563 16.1315L5.37329 16.1321L5.05988 16.618V16.6192L5.06088 16.6202L5.13313 16.6597L5.13513 16.6594L5.27495 16.4421L5.40439 16.5129L5.39034 16.8007L5.39135 16.8019L5.46861 16.8443L5.46928 16.8446H5.46995L5.47062 16.843L5.48667 16.5444C5.49504 16.5466 5.50173 16.5463 5.50942 16.5472C5.51511 16.5481 5.52079 16.5491 5.52614 16.5497C5.53384 16.5503 5.54287 16.5525 5.54989 16.5525C5.60475 16.5525 5.64522 16.5293 5.67766 16.4795C5.72784 16.4016 5.69472 16.3073 5.59906 16.2542Z" fill="#0C0A09"/>
<path fill-rule="evenodd" clip-rule="evenodd" d="M6.15478 16.5559C6.12077 16.5401 6.08555 16.5321 6.05002 16.5321C5.94253 16.5321 5.84505 16.6072 5.78918 16.7333C5.77733 16.7605 5.68077 16.9989 5.91398 17.1052C5.95072 17.1222 5.98686 17.1308 6.02087 17.1308C6.08767 17.1308 6.13322 17.0978 6.15752 17.0802L6.15812 17.0783L6.13262 17.0057L6.1314 17.0047L6.13019 17.005C6.10346 17.0276 6.09071 17.0356 6.06854 17.0437C6.04941 17.0505 6.02998 17.0542 6.01024 17.0542C5.98686 17.0542 5.96348 17.0489 5.94161 17.039C5.90366 17.0217 5.78705 16.9494 5.87208 16.7559C5.91246 16.6638 5.9823 16.6088 6.05822 16.6088C6.08221 16.6088 6.10589 16.614 6.12928 16.6251C6.2228 16.6675 6.21673 16.7506 6.21309 16.7955L6.21369 16.7967L6.21491 16.797L6.289 16.7751L6.29021 16.7738C6.29113 16.7676 6.31117 16.6273 6.15478 16.5559Z" fill="#0C0A09"/>
<path fill-rule="evenodd" clip-rule="evenodd" d="M6.88225 17.201L6.63304 17.1336L6.84712 16.9206L6.88225 17.201ZM6.9236 16.8266L6.84602 16.8057C6.84529 16.8054 6.84492 16.8054 6.84455 16.806L6.36444 17.2836C6.36407 17.284 6.36371 17.2846 6.36407 17.2852C6.36407 17.2855 6.36444 17.2859 6.36481 17.2859L6.45446 17.3105C6.45483 17.3105 6.45592 17.3105 6.45629 17.3099L6.57229 17.1953L6.89286 17.2821L6.91262 17.433C6.91298 17.4337 6.91335 17.434 6.91408 17.4343L7.00264 17.458C7.00301 17.458 7.0041 17.458 7.0041 17.4577C7.00484 17.4574 7.0052 17.4568 7.00484 17.4561L6.92506 16.8278C6.9247 16.8272 6.92433 16.8269 6.9236 16.8266Z" fill="#0C0A09"/>
<path fill-rule="evenodd" clip-rule="evenodd" d="M7.75175 17.1104L7.91739 17.1277C7.98272 17.1342 8.02704 17.1532 8.05854 17.1869C8.1017 17.2321 8.1192 17.3032 8.10831 17.3865C8.09004 17.5178 8.01188 17.5929 7.89289 17.5929C7.88317 17.5929 7.87267 17.5926 7.86256 17.5916L7.68875 17.5735L7.75175 17.1104ZM7.92711 17.0488L7.66348 17.0213L7.66192 17.023L7.57755 17.6409L7.57793 17.6422L7.5791 17.6429L7.8544 17.6711C7.87073 17.6728 7.88706 17.6739 7.90223 17.6739C8.07448 17.6739 8.19075 17.5688 8.21524 17.3933C8.22846 17.2964 8.20241 17.207 8.14175 17.1417C8.09431 17.0886 8.02627 17.059 7.92711 17.0488Z" fill="#0C0A09"/>
<path fill-rule="evenodd" clip-rule="evenodd" d="M8.69235 17.1603L8.69387 17.1593L8.71483 17.0926L8.71452 17.091L8.71331 17.0907L8.36744 17.0892L8.36592 17.0907L8.36288 17.6561L8.36319 17.657L8.3644 17.6576L8.7127 17.6595L8.71422 17.6579L8.71391 17.657L8.69205 17.5896L8.69084 17.589L8.44184 17.5875L8.44275 17.3998L8.67019 17.4011L8.6714 17.4007L8.67171 17.3995L8.67201 17.3318L8.67049 17.3306L8.44305 17.3297L8.44427 17.159L8.69235 17.1603Z" fill="#0C0A09"/>
<path fill-rule="evenodd" clip-rule="evenodd" d="M9.61623 17.0684L9.63566 16.9951C9.63597 16.9945 9.63566 16.9939 9.63536 16.9936C9.63506 16.9933 9.63475 16.9933 9.63445 16.9933L9.29131 17.0455C9.29071 17.0458 9.2901 17.0464 9.2901 17.0474L9.37269 17.6066C9.37269 17.6075 9.3733 17.6078 9.37361 17.6078L9.44982 17.596C9.45013 17.596 9.45013 17.596 9.45043 17.5957C9.45043 17.5954 9.45074 17.5951 9.45074 17.5948L9.41399 17.3463L9.61623 17.3157C9.61684 17.3157 9.61714 17.3154 9.61744 17.3151C9.61744 17.3148 9.61775 17.3144 9.61775 17.3141L9.60742 17.2446C9.60712 17.244 9.60712 17.2437 9.60682 17.2437C9.60651 17.2433 9.60621 17.243 9.60591 17.2433L9.40367 17.2746L9.37877 17.1055L9.61501 17.0696C9.61562 17.0696 9.61623 17.069 9.61623 17.0684Z" fill="#0C0A09"/>
<path fill-rule="evenodd" clip-rule="evenodd" d="M10.0668 16.8528L10.122 16.8379C10.1224 16.8379 10.1227 16.8376 10.123 16.837L10.1758 16.7116C10.1764 16.7113 10.1758 16.7107 10.1754 16.7104C10.1754 16.7098 10.1748 16.7095 10.1742 16.7098L10.0877 16.733C10.0871 16.7333 10.0868 16.7337 10.0865 16.7343L10.0653 16.851C10.0653 16.8516 10.0653 16.8522 10.0656 16.8525C10.0659 16.8528 10.0662 16.8528 10.0668 16.8528Z" fill="#0C0A09"/>
<path fill-rule="evenodd" clip-rule="evenodd" d="M10.3667 17.2105L10.1175 17.2693L10.166 16.9872L10.3667 17.2105ZM10.1743 16.8721C10.1739 16.8718 10.1729 16.8715 10.1725 16.8718L10.0944 16.8904C10.094 16.8907 10.0933 16.891 10.0933 16.8916L9.98446 17.5227C9.9841 17.523 9.98446 17.5236 9.98483 17.5239C9.98519 17.5243 9.98555 17.5243 9.98627 17.5243L10.0759 17.5032C10.0767 17.5032 10.077 17.5025 10.0774 17.5019L10.1042 17.3505L10.4242 17.2744L10.5334 17.3939C10.5341 17.3942 10.5348 17.3945 10.5355 17.3942L10.6241 17.3735C10.6245 17.3735 10.6252 17.3728 10.6252 17.3725C10.6256 17.3719 10.6252 17.3712 10.6249 17.3709L10.1743 16.8721Z" fill="#0C0A09"/>
<path fill-rule="evenodd" clip-rule="evenodd" d="M10.9584 16.8549C10.9499 16.8588 10.941 16.8626 10.931 16.8658L10.8022 16.9131L10.733 16.7583L10.8746 16.7068C10.8998 16.6979 10.9225 16.6931 10.942 16.6927C10.9442 16.6927 10.9456 16.6931 10.947 16.6931C10.9626 16.6934 10.9758 16.6969 10.9871 16.703C10.9886 16.7039 10.99 16.7039 10.9914 16.7049C10.9967 16.7087 11.002 16.7132 11.0067 16.7183C11.0077 16.7196 11.0095 16.7222 11.0095 16.7222C11.0138 16.7276 11.0173 16.7334 11.0201 16.7401C11.0322 16.7666 11.0308 16.7906 11.0159 16.8114C11.0134 16.8156 11.0095 16.8194 11.0059 16.8229C11.0035 16.8252 11.0006 16.8277 10.9974 16.8303C10.9878 16.8386 10.9758 16.8463 10.9609 16.8536L10.9584 16.8549ZM10.9183 17.1729L10.832 16.9797L10.9758 16.9275C11.0035 16.9176 11.0287 16.9125 11.0514 16.9125C11.0993 16.9125 11.1337 16.9349 11.1536 16.9797C11.1646 17.0046 11.1653 17.028 11.1547 17.0494C11.1408 17.0789 11.1068 17.1044 11.0553 17.123L10.9183 17.1729ZM11.176 16.8792C11.1494 16.8658 11.1241 16.8607 11.0918 16.8607C11.078 16.8607 11.0617 16.8616 11.0429 16.8636C11.073 16.8405 11.144 16.7807 11.1064 16.6956C11.0975 16.6774 11.0837 16.6624 11.0681 16.6502L11.0674 16.6496C11.0407 16.6291 11.0063 16.6169 10.9641 16.6169C10.9307 16.6169 10.8955 16.6236 10.8593 16.6368L10.6194 16.7235L10.6183 16.7254L10.8611 17.2685L10.8625 17.2695L10.8632 17.2692L11.1273 17.1739C11.2392 17.1332 11.286 17.044 11.2441 16.9512C11.2296 16.9183 11.2069 16.8943 11.176 16.8792Z" fill="#0C0A09"/>
<path fill-rule="evenodd" clip-rule="evenodd" d="M11.5205 16.3906C11.5268 16.3909 11.5326 16.3915 11.5384 16.3934C11.5417 16.3943 11.5448 16.3962 11.5481 16.3975C11.5563 16.4013 11.5642 16.4069 11.5706 16.4145C11.5727 16.4164 11.5742 16.4189 11.576 16.4214C11.5794 16.4255 11.583 16.4306 11.5861 16.4362C11.5994 16.4617 11.6018 16.4866 11.593 16.509C11.5845 16.531 11.5645 16.5512 11.5344 16.5679L11.4075 16.6394L11.3255 16.4816L11.447 16.4132C11.4722 16.3991 11.495 16.3918 11.5144 16.3912C11.5165 16.3909 11.5186 16.3906 11.5205 16.3906ZM11.6249 16.5836C11.6847 16.5228 11.6954 16.4646 11.6592 16.3956C11.6325 16.3446 11.5848 16.3153 11.5274 16.3153C11.5189 16.3153 11.5101 16.3178 11.5019 16.3191L11.4986 16.3197C11.4764 16.3229 11.4537 16.3298 11.4321 16.3417L11.2247 16.458L11.2241 16.4592V16.4602L11.4886 16.9669L11.4898 16.9679L11.4904 16.9676L11.5575 16.9301L11.5581 16.9291V16.9279L11.44 16.7017L11.5602 16.6343L11.7962 16.7956H11.7977L11.8694 16.7553L11.87 16.754L11.8694 16.7528L11.6249 16.5836Z" fill="#0C0A09"/>
<path fill-rule="evenodd" clip-rule="evenodd" d="M11.8849 16.061L11.8211 16.1042L11.8208 16.1058L12.1278 16.5775L12.1284 16.5784L12.1293 16.5781L12.1931 16.5351L12.1934 16.5333L11.887 16.0616L11.8849 16.061Z" fill="#0C0A09"/>
<path fill-rule="evenodd" clip-rule="evenodd" d="M12.8458 15.9937L12.7597 15.9828L12.7583 15.9831L12.758 15.9848C12.7667 16.0225 12.7681 16.0389 12.7646 16.066C12.7583 16.116 12.7339 16.1595 12.6942 16.1914C12.6771 16.2044 12.6321 16.2349 12.5722 16.2349C12.5031 16.2349 12.4362 16.1962 12.3731 16.1188C12.3264 16.0612 12.3013 16.0002 12.302 15.9413C12.3027 15.8827 12.3281 15.832 12.3759 15.7944C12.4076 15.7693 12.4414 15.7567 12.476 15.7567C12.5244 15.7567 12.5638 15.78 12.59 15.7954L12.5907 15.7957H12.5924L12.5934 15.7947L12.6098 15.7094L12.6091 15.708C12.6042 15.7043 12.5568 15.6714 12.4857 15.6714C12.4282 15.6714 12.3724 15.6926 12.3198 15.7344C12.2511 15.7882 12.2138 15.8605 12.2117 15.943C12.2093 16.0256 12.2424 16.1116 12.3076 16.1907C12.3261 16.2133 12.4237 16.324 12.5607 16.324C12.6241 16.324 12.6862 16.2996 12.7461 16.2527C12.8723 16.153 12.8549 16.0424 12.8472 15.9951L12.8458 15.9937Z" fill="#0C0A09"/>
<path fill-rule="evenodd" clip-rule="evenodd" d="M13.1658 15.4454L13.0089 15.6103L12.9027 15.3428L13.1658 15.4454ZM13.4403 15.4671L12.8516 15.2395C12.8507 15.2389 12.8503 15.2392 12.85 15.2399L12.8005 15.2912C12.8002 15.2915 12.8002 15.2921 12.8002 15.2928L13.0363 15.8905C13.0366 15.8911 13.0369 15.8914 13.0376 15.8918C13.0379 15.8918 13.0385 15.8914 13.0388 15.8911L13.0952 15.8317C13.0955 15.8314 13.0955 15.8308 13.0955 15.8304L13.0398 15.6865L13.2415 15.4748L13.3833 15.5287C13.3839 15.529 13.3842 15.5287 13.3849 15.5284L13.4407 15.4696C13.441 15.4693 13.4413 15.4687 13.4413 15.4683C13.441 15.4677 13.4407 15.4674 13.4403 15.4671Z" fill="#0C0A09"/>
<path fill-rule="evenodd" clip-rule="evenodd" d="M3.15389 14.2242C3.15389 14.2242 2.77068 13.151 3.00055 12.8193C3.23072 12.4873 3.55655 12.7151 3.55655 12.7151C3.55655 12.7151 3.49278 11.8174 3.97833 11.4465C4.46418 11.0756 5.05207 11.674 5.05207 11.674C5.05207 11.674 5.2373 11.1015 5.79998 10.8935C6.36205 10.6855 6.89862 11.2839 7.00095 11.7133C7.10328 12.1426 6.97574 12.5785 6.91805 12.7151C6.86035 12.8514 7.02676 12.6762 7.02676 12.6762C7.02676 12.6762 7.17343 12.2465 7.26938 12.1946C7.36564 12.1426 7.7938 12.2465 7.88308 12.6762C7.97266 13.1052 8.16427 13.4632 8.29848 13.691C8.4327 13.9185 8.70113 14.2437 8.70113 14.2437C8.70113 14.2437 9.11624 13.8861 9.28234 13.3006C9.44874 12.7151 9.65978 12.3439 9.89603 12.2075C10.1326 12.0709 10.2859 12.3834 10.3242 12.6629C10.3625 12.9426 10.4775 12.7151 10.4775 12.7151C10.4775 12.7151 10.2735 12.266 10.3883 11.8106C10.5033 11.3553 10.8611 10.8805 11.2446 10.8153C11.6281 10.7504 12.2224 11.0561 12.2989 11.6675C12.2989 11.6675 12.6186 11.329 13.1874 11.3488C13.7561 11.3686 13.833 12.3961 13.7947 12.6236C13.7947 12.6236 14.4719 12.6434 14.4977 13.0731C14.5232 13.5021 14.2229 14.2635 14.2229 14.2635C14.2229 14.2635 14.9067 13.5738 15.098 12.1361C15.2899 10.6984 15.1815 9.78747 14.996 8.79892C14.8104 7.80974 14.1846 6.67126 13.9991 6.36555C13.8135 6.05983 13.6988 5.98812 13.7625 5.94268C13.8263 5.89724 13.9736 5.8518 13.9736 5.8518C13.9736 5.8518 13.7306 5.66973 13.4494 5.7671C13.1683 5.86478 12.4398 6.32011 12.4398 6.32011C12.4398 6.32011 10.5097 8.01809 10.4138 8.12226C10.3181 8.22612 10.0624 8.10278 10.0433 8.08949C10.0242 8.07651 9.42961 7.62767 9.35279 7.41964C9.27657 7.21098 9.26989 7.10743 9.39105 6.87281C9.51281 6.63881 9.64703 6.27436 9.49368 6.0858C9.34003 5.89724 8.89912 6.37235 8.70751 6.50218L8.38776 6.43077C8.38776 6.43077 8.06861 5.98812 7.79987 5.98162C7.79987 5.98162 7.75554 6.04036 7.78712 6.11825C7.81931 6.19615 7.84482 6.4113 7.84482 6.4113L7.99786 6.73618L7.89553 6.95102C7.89553 6.95102 7.8852 7.02273 7.65078 7.06601C7.41666 7.10928 7.46342 7.21346 7.47617 7.32196C7.48893 7.43015 7.50199 7.46075 7.553 7.49537C7.60401 7.52999 7.7106 7.64715 7.84664 7.65147C7.98298 7.6558 8.11932 7.5779 8.15364 7.7167C8.18795 7.85549 7.63833 8.10278 7.63833 8.10278L7.51899 8.2456L6.97331 8.1677C6.97331 8.1677 5.73591 6.62582 4.67492 6.15751L4.24039 5.92969C4.24039 5.92969 3.94007 5.74082 3.79947 5.75411C3.65858 5.7671 3.40958 5.85798 3.40958 5.85798C3.40958 5.85798 3.59693 5.90589 3.61212 5.97328C3.62699 6.04036 3.39682 6.30712 3.39682 6.30712C3.39682 6.30712 2.41266 8.12844 2.22105 9.59242C2.02914 11.0561 2.13785 13.1052 3.15389 14.2242Z" fill="#FFFFFE"/>
<path fill-rule="evenodd" clip-rule="evenodd" d="M14.9149 9.88072C14.7018 7.70794 13.7131 6.23314 13.6794 6.25478C13.6569 6.269 14.2156 7.57193 14.2846 9.38212C14.3359 10.9391 13.8883 12.5091 13.8494 12.4915C13.8115 12.4745 14.1355 11.273 14.1008 9.38181C14.0714 7.92061 13.5218 6.18121 13.4878 6.18554C13.4534 6.18987 13.5303 7.62973 13.1768 9.26929C12.823 10.9085 12.3375 11.5852 12.3117 11.5632C12.2862 11.5419 12.8103 10.4096 13.0757 8.83993C13.3359 7.32618 13.3557 6.20749 13.3216 6.20285C13.2873 6.19852 12.38 7.35678 11.3148 9.03096C11.3148 9.03096 11.2467 9.12617 11.1529 9.1172C11.0591 9.10886 10.6075 9.00469 10.586 8.93513C10.586 8.93513 10.9698 8.94503 11.0943 8.91875C11.1903 8.91257 11.2446 8.83745 11.2446 8.83745C11.2446 8.83745 11.6664 8.13514 11.8134 7.94009C11.8134 7.94009 11.4104 8.35647 11.2638 8.5577C11.1295 8.74657 11.0272 8.71412 11.0272 8.71412C10.8836 8.70422 10.3947 8.59387 10.2763 8.43437C10.2252 8.36265 10.1739 8.27517 10.1739 8.27517C10.1739 8.27517 10.4008 8.31752 10.7618 8.4897C11.1229 8.66188 11.0943 8.60654 11.2446 8.405C11.4639 8.07239 12.5546 6.77101 12.9123 6.38925C12.9123 6.38925 12.9894 6.32001 13.0572 6.15957C13.1127 5.99914 13.492 5.62171 13.9007 5.85138C13.9007 5.85138 13.8096 5.86128 13.7191 5.92464C13.7043 5.93485 13.686 5.97441 13.7058 6.00285C13.8995 6.27889 14.9508 7.86992 15.1366 10.0891C15.341 12.5351 14.389 14.0529 14.3553 14.0269C14.321 14.0009 15.1236 12.4356 14.9149 9.88072ZM10.4217 12.6303C10.4217 12.6303 10.3361 12.6263 10.3188 12.5002C10.3018 12.3747 10.3018 12.3354 10.2678 12.2748C10.2334 12.2142 10.183 12.0275 10.2766 12.0275C10.2766 12.0275 10.3661 12.4699 10.4217 12.6303ZM10.1624 11.8693C10.1369 11.7521 10.0731 11.7258 10.0731 11.7258C10.0986 11.8238 9.92583 11.8952 9.83018 11.9929C9.73422 12.0906 9.61914 12.1815 9.61914 12.1815C9.59363 12.1101 9.6577 12.0189 9.72177 11.954C9.78524 11.8887 9.70234 11.843 9.70234 11.843C9.70234 11.843 9.88788 11.6285 10.0409 11.6285C10.1943 11.6285 10.2583 11.967 10.2583 11.967C10.2583 11.967 10.1879 11.9864 10.1624 11.8693ZM9.59363 10.5617C9.59363 10.5617 9.53836 10.4881 9.49555 10.4665C9.45273 10.4449 9.39747 10.3707 9.39747 10.2668C9.39747 10.1626 9.36376 10.1453 9.32519 10.141C9.32519 10.141 9.30364 10.2452 9.36376 10.3753C9.42328 10.5054 9.46579 10.6269 9.46579 10.6526C9.46579 10.6526 9.34645 10.6075 9.33673 10.5095C9.32732 10.4121 9.27327 10.3861 9.27327 10.3014C9.27327 10.2167 9.20586 10.116 9.25687 10.0606C9.25687 10.0606 9.25384 10.0152 9.21254 9.98613C9.17063 9.95677 9.09411 9.90143 9.08105 9.82663C9.08105 9.82663 9.05555 9.91751 9.08773 10.0217C9.08773 10.0217 9.0015 9.99231 9.01729 9.93729C9.03338 9.88165 9.02063 9.8427 9.00149 9.82663C8.98206 9.81055 8.94684 9.75151 8.96293 9.67701C8.97902 9.6019 8.94107 9.55986 8.94107 9.55986C8.94107 9.55986 9.03672 9.56635 9.07498 9.73204C9.07498 9.73204 9.10352 9.6866 9.09411 9.62817C9.08439 9.56975 9.07164 9.45878 9.11931 9.38428C9.11931 9.38428 9.11324 9.42323 9.15484 9.47207C9.19614 9.5206 9.17701 9.59541 9.26659 9.63776C9.26659 9.63776 9.28572 9.56975 9.26021 9.5308C9.2347 9.49154 9.18005 9.42972 9.19007 9.37408C9.19007 9.37408 9.09077 9.28011 9.11324 9.2019C9.13571 9.124 9.10049 9.0526 9.05555 9.03281C9.05555 9.03281 9.03004 9.06527 9.05555 9.124C9.05555 9.124 9.02366 9.19881 9.04613 9.24765C9.0683 9.29618 9.0683 9.36141 9.03976 9.38737C9.01091 9.41334 9.06526 9.47207 9.01425 9.54348C9.01425 9.54348 9.00423 9.51411 8.97902 9.49154C8.95352 9.46867 8.92163 9.42972 8.94684 9.38088C8.97265 9.33235 8.88307 9.29 8.91192 9.21489C8.94107 9.14008 8.88003 9.09155 8.88003 9.09155C8.88003 9.09155 8.83509 9.124 8.85756 9.21489C8.88003 9.30607 8.877 9.32555 8.84784 9.36481C8.8193 9.40376 8.82871 9.4427 8.82871 9.4427C8.82871 9.4427 8.74247 9.41674 8.76525 9.33235C8.78711 9.26033 8.68508 9.22478 8.68508 9.22478C8.68508 9.22478 8.66868 9.14348 8.6945 9.06527L8.66595 9.02323C8.66595 9.02323 8.61129 9.15955 8.64044 9.27053C8.66868 9.38088 8.66595 9.4495 8.66595 9.4495C8.66595 9.4495 8.70725 9.38428 8.6945 9.33513C8.6945 9.33513 8.7361 9.34502 8.7361 9.41334C8.7361 9.48165 8.79349 9.51411 8.72942 9.58583C8.72942 9.58583 8.67203 9.55306 8.66595 9.51133C8.66595 9.51133 8.64986 9.6019 8.66868 9.65723C8.66868 9.65723 8.60856 9.67361 8.59216 9.70978C8.59216 9.70978 8.55087 9.64116 8.57303 9.57933C8.5955 9.51751 8.61767 9.51133 8.61129 9.46867C8.60522 9.42663 8.56696 9.29 8.60218 9.25105C8.60218 9.25105 8.5955 9.18243 8.59884 9.1339C8.59884 9.1339 8.54783 9.10762 8.5539 9.06218C8.56028 9.01643 8.55086 8.94843 8.50926 8.91875C8.50926 8.91875 8.53173 8.87362 8.51868 8.84734C8.50592 8.82138 8.50926 8.75956 8.54449 8.74008C8.54449 8.74008 8.55694 8.8798 8.61463 8.9611C8.61463 8.9611 8.59216 8.89309 8.62101 8.84425C8.62101 8.84425 8.56696 8.7985 8.58609 8.73359C8.60522 8.66868 8.57971 8.61953 8.54783 8.60994C8.54783 8.60994 8.52202 8.4863 8.56696 8.39851C8.61129 8.31072 8.62101 8.20655 8.58275 8.19387C8.58275 8.19387 8.54783 8.12185 8.58943 8.06682C8.63042 8.01149 8.59216 7.9336 8.59216 7.9336C8.59216 7.9336 8.65957 7.96265 8.65623 8.00809C8.6532 8.05384 8.6532 8.06992 8.67202 8.0863C8.69146 8.10237 8.68508 8.22602 8.72638 8.25879C8.76798 8.29124 8.80017 8.35307 8.78711 8.43437C8.78711 8.43437 8.82871 8.37594 8.8193 8.31072C8.80958 8.24549 8.74581 8.24549 8.75523 8.18367C8.76525 8.12185 8.77132 8.02448 8.7361 7.98213C8.70118 7.94009 8.70118 7.89774 8.72942 7.86188C8.72942 7.86188 8.72334 7.80315 8.67536 7.79697C8.67536 7.79697 8.72638 7.75771 8.77466 7.80315C8.82264 7.8489 8.81292 7.88785 8.80017 7.91721C8.78711 7.94658 8.78074 8.09928 8.86697 8.15121C8.86697 8.15121 8.83843 8.07332 8.87031 8.02788C8.9025 7.98213 8.83843 7.90732 8.87365 7.85199C8.87365 7.85199 8.90858 7.80315 8.89248 7.77749C8.89248 7.77749 8.95018 7.78707 8.94684 7.8455C8.9438 7.90392 8.91526 7.97904 8.99512 7.97904C8.99512 7.97904 9.01728 8.01798 9.00423 8.04735C9.00423 8.04735 9.03672 8.04395 9.05555 8.00809C9.09411 7.94318 9.21254 8.0016 9.20252 7.9302C9.20252 7.9302 9.24412 7.94658 9.24078 8.005C9.23774 8.06342 9.21861 8.06682 9.25687 8.10917C9.29513 8.15121 9.33673 8.34627 9.28906 8.46342C9.28906 8.46342 9.27904 8.42138 9.24746 8.42138C9.21557 8.42138 9.17397 8.34967 9.18673 8.29464C9.19948 8.23931 9.20252 8.1676 9.16122 8.14163C9.16122 8.14163 9.11931 8.29774 9.13875 8.37872C9.15788 8.46002 9.09411 8.51257 9.09411 8.51257C9.09411 8.51257 9.16456 8.69773 9.13571 8.8118C9.13571 8.8118 9.2092 8.75306 9.21254 8.69464C9.21557 8.63622 9.14847 8.63622 9.17063 8.59727C9.1931 8.5577 9.19007 8.49279 9.19007 8.49279C9.19007 8.49279 9.24412 8.54503 9.24412 8.60654C9.24412 8.66868 9.24078 8.95492 9.38168 8.99078C9.38168 8.99078 9.33673 8.92215 9.35252 8.86373C9.36892 8.805 9.25687 8.6492 9.33673 8.49928C9.33673 8.49928 9.39109 8.5611 9.40081 8.65229C9.41052 8.74348 9.40718 8.89619 9.48067 8.88969C9.48067 8.88969 9.49342 8.8118 9.48067 8.73668C9.46791 8.66187 9.44241 8.60005 9.44241 8.60005C9.44241 8.60005 9.46457 8.61334 9.49676 8.62293C9.52834 8.63282 9.56053 8.66868 9.55749 8.74348C9.55749 8.74348 9.59576 8.75646 9.5991 8.78892C9.5991 8.78892 9.62126 8.68475 9.60213 8.63622C9.583 8.58707 9.52834 8.53545 9.55749 8.43127C9.55749 8.43127 9.63736 8.51875 9.64373 8.63622C9.65011 8.75306 9.62734 8.98397 9.67865 9.06218C9.67865 9.06218 9.70446 9.01983 9.70446 8.95152C9.70446 8.95152 9.75214 9.01643 9.73635 9.1172C9.72056 9.21829 9.82563 9.31906 9.72633 9.6087C9.72633 9.6087 9.65649 9.56326 9.67865 9.46558C9.67865 9.46558 9.63068 9.54688 9.66924 9.62477C9.7075 9.70298 9.71388 9.72246 9.69475 9.78768C9.67562 9.85228 9.64039 9.92431 9.68199 9.96975C9.68199 9.96975 9.60851 9.98613 9.60213 9.90143C9.59576 9.81674 9.56782 9.79386 9.56782 9.79386C9.56782 9.79386 9.50861 9.87639 9.56782 9.98489C9.62734 10.0931 9.66195 10.1929 9.63189 10.3101C9.63189 10.3101 9.53836 10.2884 9.54231 10.2146C9.54687 10.141 9.50405 10.1064 9.50405 10.1064C9.50405 10.1064 9.46579 10.2189 9.50861 10.2971C9.55112 10.3753 9.62734 10.4532 9.59363 10.5617ZM9.55112 11.1342C9.55112 11.1342 9.54231 11.0649 9.50861 11.0084C9.47429 10.9521 9.49555 10.8829 9.49555 10.8829C9.49555 10.8829 9.55506 10.8523 9.57632 10.9564C9.59788 11.0606 9.55112 11.1342 9.55112 11.1342ZM9.21861 10.4186C9.27418 10.4748 9.29969 10.5704 9.32519 10.6136C9.35101 10.6572 9.40627 10.7178 9.40202 10.7741C9.39747 10.8306 9.44453 10.9475 9.46579 11.03C9.48735 11.1126 9.47854 11.2078 9.47854 11.2078C9.47854 11.2078 9.41872 11.1469 9.42722 11.0996C9.43603 11.0517 9.40627 10.9824 9.35921 10.9475C9.31275 10.9129 9.29513 10.8177 9.29969 10.7524C9.30364 10.6872 9.25687 10.6226 9.25687 10.6226C9.22286 10.6399 9.22742 10.6616 9.22742 10.6616C9.22742 10.6616 9.19736 10.6093 9.21466 10.5484C9.23136 10.4881 9.21861 10.4186 9.21861 10.4186ZM9.5001 11.7589C9.5001 11.7589 9.47429 11.7067 9.43998 11.698C9.40627 11.6891 9.37621 11.6418 9.37621 11.5852C9.37621 11.5286 9.3422 11.4943 9.3422 11.4943C9.29969 11.4983 9.24867 11.5549 9.21466 11.5462C9.18005 11.5376 9.15059 11.4853 9.15059 11.4853C9.12053 11.5333 9.04826 11.5333 9.04826 11.5333C9.07802 11.5027 9.09077 11.4075 9.06951 11.3509C9.04826 11.2949 9.08652 11.2513 9.08652 11.2513C9.10778 11.3206 9.15059 11.4207 9.15059 11.4207C9.18885 11.3595 9.1764 11.2297 9.13753 11.2078C9.09927 11.1861 9.06526 11.1169 9.07802 11.0733C9.09077 11.03 9.07407 10.9345 9.07407 10.9345C9.11628 10.9651 9.1931 11.0949 9.1931 11.1469C9.1931 11.1994 9.21861 11.26 9.25687 11.2903C9.29513 11.3206 9.3337 11.4161 9.3337 11.4161C9.37621 11.3595 9.35921 11.26 9.35921 11.26C9.30364 11.2297 9.25687 11.1169 9.25687 11.043C9.25687 10.9694 9.21011 10.9172 9.21011 10.9172L9.18005 10.9608C9.18005 10.9608 9.13359 10.9085 9.11628 10.8653C9.09927 10.822 9.12903 10.6918 9.12903 10.6918C9.1764 10.783 9.23562 10.8177 9.23562 10.8177C9.23987 10.8829 9.28238 11.0127 9.37621 11.1602C9.46974 11.3073 9.44878 11.4507 9.44878 11.4507C9.41447 11.4207 9.39321 11.4115 9.39321 11.4115C9.39321 11.4115 9.41052 11.4813 9.46154 11.5722C9.51255 11.6631 9.5001 11.7589 9.5001 11.7589ZM9.45729 12.1793C9.44453 12.2968 9.38046 12.3441 9.38046 12.3441C9.41052 12.2532 9.37621 12.1274 9.34645 12.0449C9.31639 11.9623 9.38046 11.932 9.38046 11.932C9.41872 11.9104 9.46974 12.0622 9.45729 12.1793ZM9.13359 11.5938C9.18885 11.6331 9.21466 11.6891 9.23136 11.7326C9.24867 11.7762 9.1846 11.8019 9.23562 11.8844C9.28693 11.967 9.24867 12.0622 9.24867 12.0622C9.24412 12.0232 9.18885 12.0189 9.15059 11.9623C9.11233 11.9061 9.13753 11.7892 9.14634 11.7067C9.15484 11.6241 9.13359 11.5938 9.13359 11.5938ZM9.32945 12.6912C9.32945 12.6912 9.28238 12.6649 9.26993 12.596C9.25687 12.5261 9.20586 12.5132 9.20586 12.5132C9.19735 12.5611 9.23136 12.6822 9.24412 12.7691C9.25687 12.856 9.20586 12.9125 9.20586 12.9125C9.20161 12.8646 9.1764 12.8257 9.14179 12.7867C9.10778 12.7475 9.13753 12.6779 9.13753 12.6779C9.10778 12.652 9.07407 12.6133 9.07407 12.5091C9.07407 12.405 9.03125 12.3314 9.03125 12.3314C8.95443 12.3005 8.97143 12.2269 8.98024 12.162C8.98874 12.0971 8.95018 12.0232 8.95018 12.0232C9.01425 12.0449 9.10778 12.2186 9.10352 12.3095C9.09927 12.4003 9.1676 12.4656 9.1676 12.4656C9.23136 12.4266 9.14179 12.2835 9.1676 12.2269C9.1931 12.1707 9.16334 12.0838 9.16334 12.0838C9.23136 12.1227 9.24412 12.2269 9.25687 12.3005C9.26993 12.3747 9.27813 12.4612 9.31639 12.5261C9.35465 12.5914 9.32945 12.6912 9.32945 12.6912ZM9.13753 13.3805C9.08227 13.5673 9.0185 13.5629 9.0185 13.5629C9.0185 13.5629 9.09502 13.4414 9.07802 13.3592C9.06101 13.2764 9.12053 13.1725 9.10778 13.0986C9.09502 13.0251 9.14634 12.9775 9.14634 12.9775C9.14634 12.9775 9.1931 13.1945 9.13753 13.3805ZM9.00149 12.8343C9.027 12.7867 9.027 12.6869 9.00149 12.6912C8.97599 12.6955 8.96293 12.7475 8.96293 12.7475C8.91617 12.6955 8.92862 12.6087 8.94593 12.5438C8.96293 12.4785 8.95018 12.4266 8.95018 12.4266C9.03125 12.4656 9.0355 12.6303 9.07407 12.7215C9.11233 12.8127 9.12053 12.9252 9.07802 12.9598C9.0355 12.9948 9.01425 13.0557 9.01425 13.0557C8.97143 12.9818 8.97599 12.8819 9.00149 12.8343ZM8.83084 10.7481C8.8691 10.8829 8.89916 10.8476 8.94137 10.9954C8.98419 11.1428 8.90341 11.2167 8.90341 11.2167C8.91617 11.1778 8.90766 11.039 8.8524 10.9908C8.79683 10.9435 8.82659 10.9085 8.81809 10.8653C8.80958 10.822 8.83084 10.7481 8.83084 10.7481ZM8.8691 10.1104C8.80958 10.0931 8.83084 10.0325 8.83964 9.9716C8.84784 9.91102 8.82659 9.84177 8.82659 9.84177C8.89066 9.88072 8.96293 10.0501 8.95898 10.115C8.95443 10.1799 8.97599 10.2755 8.97599 10.2755C8.91617 10.2538 8.92862 10.128 8.8691 10.1104ZM8.97143 11.7979C8.95018 11.7503 8.98419 11.6631 8.98419 11.6631C8.98419 11.6631 9.03976 11.7326 9.04826 11.8195C9.05676 11.9061 8.98419 11.941 8.98419 11.941C8.98419 11.941 8.99269 11.8452 8.97143 11.7979ZM8.93317 13.6628C8.90766 13.9141 8.82659 14.0226 8.82659 14.0226C8.82659 14.0226 8.8524 13.9101 8.8439 13.7713C8.83509 13.6325 8.89248 13.541 8.88216 13.3416C8.88216 13.2727 8.80351 13.1901 8.84147 13.1054C8.88003 13.0204 8.83509 12.9363 8.83509 12.9363C8.76525 12.8516 8.83509 12.728 8.83509 12.728C8.8524 12.8516 8.89491 12.8949 8.93317 12.9904C8.97143 13.0856 8.89916 13.1292 8.89916 13.1292C8.92862 13.2028 8.95898 13.4115 8.93317 13.6628ZM8.74581 13.8081C8.74581 13.8081 8.77132 13.6127 8.75857 13.489C8.74581 13.3654 8.75219 13.3332 8.79045 13.3264C8.79045 13.3264 8.82264 13.3332 8.82264 13.3982C8.82264 13.4634 8.79683 13.6649 8.74581 13.8081ZM8.70118 10.2557C8.71393 10.1846 8.70725 10.0999 8.70725 10.0999C8.79045 10.2297 8.75857 10.4316 8.75857 10.4316C8.68174 10.3796 8.68842 10.3277 8.70118 10.2557ZM8.69753 14.1917C8.65927 14.0139 8.67324 13.8232 8.69753 13.8232C8.73731 13.8275 8.69753 14.1917 8.69753 14.1917ZM8.56696 13.3982C8.56696 13.3332 8.59884 13.3264 8.59884 13.3264C8.6371 13.3332 8.64348 13.3654 8.63042 13.489C8.61767 13.6127 8.64348 13.8081 8.64348 13.8081C8.59216 13.6649 8.56696 13.4634 8.56696 13.3982ZM8.51169 13.3026C8.47313 13.2727 8.47313 13.2115 8.47313 13.1768C8.47313 13.1422 8.46888 13.1592 8.44307 13.0949C8.41361 12.9861 8.46463 12.8646 8.46463 12.8646C8.46037 12.9252 8.51169 13.064 8.52414 13.1555C8.5369 13.2464 8.51169 13.3026 8.51169 13.3026ZM8.40055 8.45817C8.34104 8.47579 8.34529 8.5577 8.36685 8.60129C8.3878 8.64456 8.36685 8.69248 8.32403 8.71412C8.28122 8.73575 8.26846 8.78336 8.26846 8.78336C8.23445 8.64024 8.28547 8.45415 8.31553 8.4322C8.34529 8.41056 8.34954 8.36698 8.34954 8.36698C8.30278 8.31505 8.32828 8.24549 8.35409 8.20222C8.3793 8.15894 8.41361 8.07672 8.41361 8.07672C8.43912 8.17625 8.46037 8.44086 8.40055 8.45817ZM8.24022 13.3805C8.18465 13.1945 8.23172 12.9775 8.23172 12.9775C8.23172 12.9775 8.28273 13.0251 8.26998 13.0986C8.25723 13.1725 8.31674 13.2764 8.29974 13.3592C8.28273 13.4414 8.35926 13.5629 8.35926 13.5629C8.35926 13.5629 8.29579 13.5673 8.24022 13.3805ZM8.13667 12.7737C8.11086 12.6999 8.2132 12.5827 8.2132 12.5827C8.2132 12.5827 8.2387 12.6649 8.19194 12.7085C8.14487 12.7521 8.24721 12.7691 8.24721 12.7691C8.20894 12.8257 8.18769 12.9598 8.18769 12.9598C8.12787 12.9252 8.16188 12.8473 8.13667 12.7737ZM8.15793 12.1057C8.15793 12.2226 8.19194 12.3874 8.19194 12.3874C8.19194 12.3874 8.11542 12.3268 8.11542 12.2532C8.11086 12.201 8.15793 12.1057 8.15793 12.1057ZM8.12362 8.93112C8.14912 8.89619 8.16188 8.79634 8.16188 8.79634C8.16188 8.79634 8.19619 8.96574 8.19194 9.01767C8.18769 9.0696 8.14487 9.1002 8.14487 9.1002C8.07685 9.03096 8.09811 8.96574 8.12362 8.93112ZM8.04315 8.47981C8.04315 8.47981 8.08141 8.40191 8.05985 8.32803C8.03859 8.25446 8.10661 8.20655 8.08536 8.18491C8.0641 8.16327 8.00853 8.19387 8.00853 8.19387C8.03404 8.05941 8.15368 7.98089 8.15368 7.98089C8.12362 8.0288 8.10236 8.14163 8.13212 8.11567C8.16188 8.0897 8.20469 8.08074 8.20469 8.08074C8.17038 8.11968 8.15793 8.25879 8.14487 8.33699C8.13212 8.41489 8.04315 8.47981 8.04315 8.47981ZM7.96905 12.5363C7.92138 12.5036 7.91136 12.4223 7.915 12.3574C7.92138 12.2399 7.915 12.1036 7.915 12.1036C7.915 12.1036 7.97908 12.2727 7.97908 12.3768C7.97908 12.4807 8.04922 12.494 8.04922 12.494C8.04345 12.5255 8.014 12.5558 7.96905 12.5363ZM8.04588 7.56235C8.00124 7.58522 7.82239 7.63437 7.74556 7.5268C7.74556 7.5268 7.85427 7.49434 7.96905 7.49434C8.08414 7.49434 8.21836 7.48136 8.28213 7.46807C8.28213 7.46807 8.30794 7.49743 8.34954 7.50392C8.34954 7.50392 8.29822 7.5234 8.24721 7.51722C8.19619 7.51041 8.09082 7.54009 8.04588 7.56235ZM7.50901 7.36389C7.47713 7.31227 7.50264 7.23066 7.50264 7.23066C7.50901 7.22108 7.53179 7.2081 7.53179 7.27641C7.53179 7.35771 7.68817 7.36389 7.63351 7.34164C7.57946 7.31876 7.56671 7.24056 7.5828 7.18831C7.59859 7.13638 7.68483 7.12031 7.72005 7.14627C7.75528 7.17224 7.7325 7.21459 7.71034 7.20161C7.68817 7.18831 7.6241 7.19821 7.64019 7.25354C7.68179 7.34782 7.73584 7.30887 7.73584 7.30887C7.79354 7.27981 7.88919 7.36111 7.88312 7.22417C7.85427 7.05849 7.67511 7.14318 7.67511 7.10702C7.67511 7.07147 7.71368 7.07456 7.81601 7.05849C7.91834 7.0421 7.93747 6.98368 7.96602 6.91536C7.99487 6.84674 8.02675 6.78523 8.17372 6.65169C8.32069 6.51846 8.45491 6.64211 8.45491 6.64211C8.52536 6.62603 8.56362 6.64551 8.59884 6.67116C8.63376 6.69744 8.68842 6.74937 8.74581 6.77873C8.80351 6.80779 8.8193 6.83067 8.80624 6.86962C8.79349 6.90856 8.81626 6.94133 8.81626 6.94133C8.75219 6.94473 8.71697 6.98059 8.71697 6.98059C8.71697 6.98059 8.73276 7.03901 8.77132 7.11691C8.80958 7.19512 8.75857 7.27641 8.69784 7.25354C8.6371 7.23066 8.57 7.26652 8.58275 7.29589C8.5955 7.32494 8.57637 7.34442 8.57637 7.34442C8.51564 7.34442 8.46129 7.38337 8.49044 7.41953C8.51868 7.45539 8.50592 7.49743 8.50592 7.49743C8.41968 7.40655 8.33648 7.43252 8.35288 7.40964C8.36867 7.38677 8.3462 7.32494 8.3462 7.32494C8.31766 7.41304 8.19619 7.42912 8.02341 7.41953C7.85093 7.40964 7.77107 7.42293 7.69758 7.42912C7.6241 7.43592 7.5412 7.41613 7.50901 7.36389ZM7.88312 6.35895C7.85093 6.23871 7.82573 6.18678 7.82573 6.18678C7.91166 6.22572 7.97908 6.45664 7.98849 6.50857C7.9979 6.56081 8.03009 6.53453 8.0556 6.49898C8.08141 6.46313 8.12574 6.45663 8.12574 6.45663C8.12574 6.45663 8.03313 6.67456 7.99183 6.65169C7.94992 6.62881 7.915 6.47951 7.88312 6.35895ZM8.32434 6.42263C8.33557 6.44705 8.33982 6.49558 8.30308 6.50857C8.27848 6.51939 8.2466 6.51197 8.22474 6.46962C8.18981 6.4013 8.09386 6.19976 7.99487 6.14103C7.89557 6.0826 7.85093 6.01738 7.85093 6.01738C8.10266 6.08631 8.27696 6.31599 8.32434 6.42263ZM8.87365 6.42078C8.99846 6.35586 9.01091 6.33948 9.03004 6.30393C9.03004 6.30393 8.98874 6.31011 8.93105 6.34288C8.87365 6.37534 9.26659 6.02727 9.41052 6.0826C9.41052 6.0826 9.08773 6.15741 8.96931 6.59636C8.93773 6.74628 8.87031 6.69095 8.79045 6.69095C8.79045 6.69095 8.8193 6.64829 8.85118 6.63221C8.88307 6.61583 8.91192 6.54473 8.91192 6.54473C8.91192 6.54473 8.83509 6.56081 8.78074 6.59636C8.72638 6.63221 8.68842 6.61923 8.68842 6.61923C8.68842 6.61923 8.74885 6.486 8.87365 6.42078ZM9.50284 6.14783C9.50284 6.14783 9.57632 6.31351 9.48067 6.58028C9.38502 6.84674 9.30485 6.90547 9.29513 6.91536C9.28572 6.92526 9.25384 6.88291 9.26659 6.80779C9.27904 6.73299 9.24078 6.67116 9.24078 6.67116C9.24078 6.67116 9.30485 6.71011 9.3176 6.75277C9.33066 6.79481 9.46791 6.52186 9.48735 6.29744C9.49676 6.17348 9.50284 6.14783 9.50284 6.14783ZM9.41052 8.07672C9.45273 8.15461 9.40202 8.18491 9.46154 8.28475C9.52136 8.38429 9.47429 8.49742 9.47429 8.49742C9.47429 8.49742 9.45729 8.44518 9.39321 8.39325C9.32945 8.34101 9.37196 8.21953 9.37196 8.21953C9.31274 8.15894 9.29969 8.08506 9.30364 7.99851C9.30819 7.91165 9.21466 7.78584 9.21466 7.78584C9.32945 7.82479 9.36771 7.99851 9.41052 8.07672ZM9.52561 7.91721C9.53502 7.96574 9.52834 7.98522 9.52834 7.98522C9.58634 8.04055 9.5414 8.13854 9.5414 8.13854C9.5414 8.13854 9.5414 8.09619 9.48401 8.06033C9.42662 8.02448 9.42328 7.95616 9.42965 7.91721C9.43603 7.87826 9.39413 7.81644 9.39413 7.81644C9.39413 7.81644 9.51559 7.8455 9.52561 7.91721ZM9.80194 8.76605C9.70021 8.72277 9.72572 8.56203 9.72572 8.56203C9.81955 8.63158 9.80194 8.76605 9.80194 8.76605ZM9.74273 8.23715C9.81105 8.34101 9.81955 8.48413 9.81955 8.48413C9.81955 8.48413 9.74698 8.47115 9.72967 8.38429C9.71297 8.29774 9.69141 8.21118 9.64495 8.1676C9.59788 8.12401 9.59788 8.09403 9.59788 8.09403C9.59788 8.09403 9.67471 8.13298 9.74273 8.23715ZM11.6864 7.15308C12.3885 6.45663 12.8546 6.15092 12.8871 6.17039C12.9187 6.18987 12.592 6.36174 11.7502 7.2183C11.5629 7.40872 11.3482 7.63252 11.104 7.89434C11.104 7.89434 10.7333 8.28475 10.586 8.31752C10.586 8.31752 11.1001 7.72711 11.6864 7.15308ZM7.74465 8.1676C7.69758 8.21118 7.67633 8.29774 7.65932 8.38429C7.64232 8.47115 7.57005 8.48413 7.57005 8.48413C7.57005 8.48413 7.57825 8.34101 7.64657 8.23715C7.71459 8.13298 7.79141 8.09403 7.79141 8.09403C7.79141 8.09403 7.79141 8.12401 7.74465 8.1676ZM7.76955 12.1815C7.76955 12.1815 7.65507 12.0906 7.55881 11.9929C7.46316 11.8952 7.29068 11.8238 7.31649 11.7258C7.31649 11.7258 7.25242 11.7521 7.22661 11.8693C7.20141 11.9864 7.13096 11.967 7.13096 11.967C7.13096 11.967 7.19503 11.6285 7.34807 11.6285C7.50142 11.6285 7.68696 11.843 7.68696 11.843C7.68696 11.843 7.60375 11.8887 7.66783 11.954C7.73159 12.0189 7.79536 12.1101 7.76955 12.1815ZM7.12458 12.2748C7.09087 12.3354 7.09087 12.3747 7.07356 12.5002C7.05686 12.6263 6.97123 12.6303 6.97123 12.6303C7.02619 12.4699 7.11608 12.0275 7.11608 12.0275C7.2096 12.0275 7.1592 12.2142 7.12458 12.2748ZM6.23638 9.1172C6.14255 9.12617 6.07453 9.03096 6.07453 9.03096C5.00929 7.35678 4.10196 6.19852 4.06795 6.20285C4.03364 6.20749 4.05368 7.32618 4.31331 8.83993C4.57931 10.4096 5.10312 11.5419 5.07762 11.5632C5.0518 11.5852 4.56625 10.9085 4.21249 9.26929C3.85873 7.62973 3.93586 6.18987 3.90154 6.18554C3.86753 6.18121 3.31791 7.92061 3.28846 9.38181C3.25384 11.273 3.57784 12.4745 3.53958 12.4915C3.50102 12.5091 3.05373 10.9391 3.10474 9.38212C3.17367 7.57193 3.73241 6.269 3.70963 6.25478C3.67593 6.23314 2.68721 7.70794 2.47435 9.88072C2.26543 12.4356 3.0683 14.0009 3.03429 14.0269C2.99998 14.0529 2.04831 12.5351 2.25268 10.0891C2.43821 7.86992 3.48978 6.27889 3.68321 6.00285C3.70326 5.97441 3.68473 5.93485 3.67016 5.92464C3.57967 5.86128 3.48826 5.85138 3.48826 5.85138C3.89729 5.62171 4.27656 5.99914 4.33153 6.15957C4.40015 6.32001 4.47698 6.38925 4.47698 6.38925C4.83469 6.77101 5.92543 8.07239 6.14498 8.405C6.29498 8.60654 6.26583 8.66188 6.62719 8.4897C6.98824 8.31752 7.21507 8.27517 7.21507 8.27517C7.21507 8.27517 7.16375 8.36265 7.11274 8.43437C6.99461 8.59387 6.50572 8.70422 6.36179 8.71412C6.36179 8.71412 6.26006 8.74657 6.12554 8.5577C5.97857 8.35647 5.57622 7.94009 5.57622 7.94009C5.72289 8.13514 6.14498 8.83745 6.14498 8.83745C6.14498 8.83745 6.19933 8.91257 6.29498 8.91875C6.41979 8.94503 6.803 8.93513 6.803 8.93513C6.78175 9.00469 6.3299 9.10886 6.23638 9.1172ZM4.50249 6.17039C4.53407 6.15092 5.00079 6.45663 5.70254 7.15308C6.28891 7.72711 6.803 8.31752 6.803 8.31752C6.65573 8.28475 6.28527 7.89434 6.28527 7.89434C6.04082 7.63252 5.82613 7.40872 5.63908 7.2183C4.79734 6.36174 4.4703 6.18987 4.50249 6.17039ZM15.2213 9.3342C14.8639 7.27858 13.7771 5.97287 13.7771 5.97287C13.9135 5.89064 14.0799 5.87766 14.0799 5.87766C13.5898 5.57843 13.475 5.71475 12.7016 6.09219C11.9285 6.46962 11.0463 7.29589 10.7606 7.60377C10.6097 7.76698 10.5171 7.89248 10.4457 7.98027C10.3822 8.05817 10.2347 7.99202 10.1053 7.96296C10.1053 7.96296 9.96622 7.80964 9.81318 7.75122C9.65983 7.69279 9.44241 7.51722 9.37196 7.19172C9.32945 6.98368 9.37196 7.00099 9.43998 6.87951C9.50861 6.75802 9.68321 6.43252 9.58907 6.18554C9.49555 5.93825 9.31153 5.90362 8.72942 6.45323C8.72942 6.45323 8.59216 6.39481 8.42302 6.38801C8.42302 6.38801 8.19619 6.05324 7.83818 5.95247C7.83818 5.95247 7.76166 5.93948 7.74253 6.02418C7.72309 6.10857 7.78079 6.18987 7.80326 6.31011C7.82573 6.43067 7.89557 6.64829 7.96602 6.77224C7.96602 6.77224 7.91166 6.83407 7.88312 6.89898C7.88312 6.89898 7.84455 7.00006 7.8066 7.01614C7.76834 7.03252 7.65295 7.0421 7.56671 7.07456C7.56671 7.07456 7.52511 7.08136 7.50901 7.03561C7.49322 6.98986 7.40364 7.03561 7.458 7.25014C7.458 7.25014 7.46771 7.30238 7.44828 7.35122C7.42945 7.40006 7.39696 7.49094 7.51539 7.50083C7.51539 7.50083 7.53452 7.58862 7.59221 7.63097C7.64991 7.67332 7.85427 7.70238 7.98515 7.70238C8.06501 7.70547 8.08141 7.77286 8.08141 7.77286C8.08141 7.77286 8.05985 7.85972 7.88919 7.92061C7.71914 7.98089 7.5658 8.06775 7.52298 8.1676C7.52298 8.1676 7.22904 8.16327 7.1094 8.12401C6.99036 8.08506 6.91354 7.91165 6.6284 7.60377C6.34266 7.29589 5.46114 6.46962 4.68772 6.09219C3.9146 5.71475 3.79952 5.57843 3.30941 5.87766C3.30941 5.87766 3.47551 5.89064 3.61185 5.97287C3.61185 5.97287 2.52536 7.27858 2.16765 9.3342C1.80964 11.3898 2.29519 13.524 3.41144 14.7468C3.41144 14.7468 2.67871 13.0903 3.17307 12.804C3.39474 12.6823 3.67593 12.8909 3.67593 12.8909C3.67593 12.8909 3.47976 11.8411 4.04214 11.5113C4.60451 11.1818 5.11588 11.8931 5.11588 11.8931C5.11588 11.8931 5.05606 11.1042 5.87411 10.9475C6.69217 10.7914 7.22904 11.9193 6.91354 12.6393C6.91354 12.6393 6.82851 12.8189 6.70067 12.8776C6.57313 12.9363 6.51544 13.1119 6.56008 13.2158C6.56008 13.2158 6.57314 13.1475 6.62081 13.1184C6.62081 13.1184 6.62081 13.307 6.71646 13.3818C6.71646 13.3818 6.67213 13.2127 6.7614 13.1054C6.7614 13.1054 6.79663 13.1283 6.79663 13.1802C6.79663 13.2325 6.78387 13.4371 6.902 13.4634C6.902 13.4634 6.8604 13.3654 6.89866 13.2482C6.89866 13.2482 6.93085 13.2581 6.9436 13.2974C6.95635 13.3363 6.99127 13.486 7.09391 13.489C7.09391 13.489 7.03956 13.3982 7.03318 13.2028C7.0265 13.0077 7.13521 12.907 7.26942 13.1085C7.26942 13.1085 7.2758 13.0566 7.28856 13.0077C7.30131 12.9589 7.27914 12.8971 7.22175 12.8322C7.16375 12.7669 7.07448 12.6238 7.16375 12.4387C7.25363 12.2532 7.53786 12.201 7.72005 12.5948C8.01308 13.2074 8.0641 13.6281 8.47738 14.0702C8.58822 14.196 8.6945 14.3305 8.6945 14.3305C8.6945 14.3305 8.80138 14.196 8.91192 14.0702C9.3252 13.6281 9.37621 13.2074 9.66924 12.5948C9.85113 12.201 10.1357 12.2532 10.2252 12.4387C10.3145 12.6238 10.2252 12.7669 10.1678 12.8322C10.1105 12.8971 10.0877 12.9589 10.1004 13.0077C10.1135 13.0566 10.1196 13.1085 10.1196 13.1085C10.2538 12.907 10.3625 13.0077 10.3561 13.2028C10.3497 13.3982 10.2954 13.489 10.2954 13.489C10.3977 13.486 10.4329 13.3363 10.446 13.2974C10.4585 13.2581 10.4903 13.2482 10.4903 13.2482C10.5286 13.3654 10.487 13.4634 10.487 13.4634C10.6054 13.4371 10.5927 13.2325 10.5927 13.1802C10.5927 13.1283 10.6276 13.1054 10.6276 13.1054C10.7175 13.2127 10.6725 13.3818 10.6725 13.3818C10.7685 13.307 10.7685 13.1184 10.7685 13.1184C10.8165 13.1475 10.8292 13.2158 10.8292 13.2158C10.8739 13.1119 10.8165 12.9363 10.6883 12.8776C10.5608 12.8189 10.4755 12.6393 10.4755 12.6393C10.1603 11.9193 10.6971 10.7914 11.5152 10.9475C12.3329 11.1042 12.2734 11.8931 12.2734 11.8931C12.2734 11.8931 12.7848 11.1818 13.3472 11.5113C13.9095 11.8411 13.7131 12.8909 13.7131 12.8909C13.7131 12.8909 13.9946 12.6823 14.2162 12.804C14.7106 13.0903 13.9776 14.7468 13.9776 14.7468C15.0941 13.524 15.5797 11.3898 15.2213 9.3342Z" fill="#535862"/>
<path fill-rule="evenodd" clip-rule="evenodd" d="M8.58945 6.92733C8.64873 6.89992 8.71667 6.99585 8.69374 7.05785C8.67123 7.11919 8.6258 7.09896 8.60287 7.05785C8.58037 7.01673 8.53926 7.00956 8.53926 7.00956C8.55268 6.93451 8.58945 6.92733 8.58945 6.92733ZM8.70066 7.22556C8.77335 7.14333 8.88239 7.1094 8.88239 7.1094C8.8508 7.03305 8.8283 7.03305 8.77768 6.95735C8.72792 6.8823 8.68292 6.77267 8.54575 6.7929C8.40902 6.81378 8.3545 6.95082 8.332 7.04023C8.30907 7.12963 8.26364 7.18445 8.26364 7.18445C8.20003 7.25297 8.27748 7.22556 8.43239 7.30844C8.58686 7.39066 8.62797 7.30844 8.70066 7.22556Z" fill="#535862"/>
<path fill-rule="evenodd" clip-rule="evenodd" d="M7.32498 9.812C7.31152 9.80335 7.29806 9.79716 7.28524 9.79716L7.28267 9.79747C7.26729 9.79871 7.28908 9.87939 7.35447 10.1091C7.3846 10.2151 7.41858 10.335 7.45191 10.4574C7.48397 10.5814 7.51153 10.7063 7.53653 10.816C7.57564 10.9956 7.60064 11.1032 7.625 11.1397C7.62628 11.1428 7.62756 11.1424 7.62949 11.1449L7.63013 11.1452C7.63269 11.1492 7.6359 11.1517 7.6391 11.153C7.63782 11.1523 7.63654 11.1514 7.63526 11.1505C7.63782 11.152 7.63974 11.1567 7.64231 11.1567C7.67436 11.1551 7.66539 11.0033 7.65513 10.9134C7.61859 10.5551 7.47691 9.91308 7.32498 9.812Z" fill="#FFFFFE"/>
<path fill-rule="evenodd" clip-rule="evenodd" d="M7.18911 10.2192C7.183 10.221 7.18911 10.2556 7.20806 10.3651C7.22518 10.4649 7.25147 10.6158 7.27531 10.796L7.27623 10.7969C7.27623 10.7969 7.27776 10.7972 7.27959 10.7972L7.28265 10.796C7.28571 10.7954 7.28999 10.7938 7.29427 10.7898C7.29579 10.7889 7.29641 10.7898 7.29763 10.7879C7.31047 10.7728 7.32178 10.7332 7.30558 10.6297C7.27837 10.4566 7.20287 10.2192 7.18911 10.2192Z" fill="#FFFFFE"/>
<path fill-rule="evenodd" clip-rule="evenodd" d="M3.23199 11.5965C3.1307 11.2555 3.08967 11.0444 3.06531 10.918C3.04352 10.8082 3.03518 10.7677 3.01147 10.7643L3.00762 10.7653C2.98262 10.7801 2.95633 11.1646 3.10378 11.6036C3.28456 12.1065 3.48841 12.398 3.56918 12.4447C3.57047 12.4456 3.57047 12.4456 3.57175 12.4462C3.57816 12.4496 3.58585 12.4549 3.59034 12.4549C3.5929 12.4549 3.59483 12.4543 3.59675 12.4533C3.61662 12.4441 3.58713 12.3875 3.52816 12.2741C3.45187 12.126 3.33584 11.9022 3.23199 11.5965Z" fill="#FFFFFE"/>
<path fill-rule="evenodd" clip-rule="evenodd" d="M3.86608 11.4929C3.79044 11.2385 3.66415 10.8128 3.59684 10.2688C3.53017 9.72566 3.55004 9.232 3.56158 8.9371C3.56863 8.76925 3.57056 8.68455 3.5603 8.6555C3.55774 8.64808 3.55517 8.64313 3.55068 8.64251C3.55004 8.6422 3.55004 8.64159 3.55004 8.64159C3.54748 8.64159 3.54556 8.6419 3.54363 8.64313C3.48594 8.6725 3.34939 9.22891 3.45452 10.308C3.53337 11.1606 3.87442 11.7402 3.9148 11.7402L3.91545 11.7399C3.91801 11.7396 3.91737 11.7358 3.91865 11.734C3.91993 11.7324 3.92121 11.7312 3.92186 11.7284C3.92763 11.7046 3.90775 11.6354 3.86608 11.4929Z" fill="#FFFFFE"/>
<path fill-rule="evenodd" clip-rule="evenodd" d="M4.01907 10.1806C4.00085 10.0449 3.98203 9.84803 3.9635 9.6573C3.93375 9.35159 3.91461 9.16395 3.90156 9.16179C3.90095 9.16179 3.90034 9.1621 3.89974 9.16272C3.88486 9.18034 3.87332 9.60413 3.95014 10.1973C4.00025 10.6353 4.15177 11.1936 4.16361 11.1936C4.16847 11.1921 4.16179 11.1423 4.12839 10.929C4.10045 10.75 4.05855 10.4789 4.01907 10.1806Z" fill="#FFFFFE"/>
<path fill-rule="evenodd" clip-rule="evenodd" d="M5.20019 11.0261C5.19867 11.018 5.1923 11.0047 5.17772 10.9769C5.10606 10.8412 4.88803 10.4282 4.6448 9.33922C4.47111 8.50924 4.38457 7.9077 4.34327 7.61837C4.31867 7.44928 4.31078 7.39549 4.3041 7.39549C4.30349 7.39549 4.30258 7.39611 4.30258 7.39642C4.28497 7.41837 4.35268 8.26195 4.57921 9.35962C4.72375 10.0619 4.91961 10.5432 5.05231 10.8038C5.05717 10.8137 5.06172 10.8217 5.06658 10.831C5.07387 10.8455 5.08177 10.8604 5.08905 10.8737C5.09634 10.887 5.10302 10.8984 5.11001 10.9105C5.11395 10.9173 5.11851 10.925 5.12215 10.9315C5.12792 10.9411 5.13248 10.9491 5.13794 10.9568C5.1425 10.9642 5.14705 10.972 5.1513 10.9778C5.15373 10.9816 5.15586 10.9843 5.15798 10.988C5.16436 10.9967 5.16983 11.0051 5.17469 11.0112C5.18653 11.0258 5.19442 11.0344 5.19807 11.0344C5.19867 11.0344 5.19928 11.0344 5.19959 11.0341C5.2008 11.0338 5.20141 11.0329 5.20171 11.0319C5.20201 11.0313 5.2005 11.0289 5.2005 11.0276C5.2005 11.0273 5.20019 11.0267 5.20019 11.0261Z" fill="#FFFFFE"/>
<path fill-rule="evenodd" clip-rule="evenodd" d="M5.23521 9.71555C5.19759 9.57552 5.15675 9.41664 5.1172 9.26301C5.02234 8.89392 4.96349 8.66765 4.94999 8.66765L4.94806 8.66858C4.9323 8.68712 5.01719 9.12731 5.17894 9.74894C5.33683 10.3554 5.55742 10.7582 5.58507 10.7582L5.58668 10.7579C5.59086 10.7539 5.57285 10.7047 5.51626 10.552C5.43876 10.3421 5.30853 9.99067 5.23521 9.71555Z" fill="#FFFFFE"/>
<path fill-rule="evenodd" clip-rule="evenodd" d="M5.96195 9.20122C5.96195 9.20122 5.95988 9.20122 5.95885 9.20215C5.93559 9.22131 6.06478 9.6006 6.19966 9.94279C6.35728 10.3428 6.55934 10.7904 6.59189 10.7904H6.59293C6.62703 10.7842 6.44875 10.2825 6.30612 9.92548C6.16555 9.57587 5.99399 9.20122 5.96195 9.20122Z" fill="#FFFFFE"/>
<path fill-rule="evenodd" clip-rule="evenodd" d="M6.43601 9.33757L6.43281 9.3385C6.41422 9.34901 6.46486 9.54004 6.53153 9.70975C6.59371 9.86647 6.68282 10.0359 6.71936 10.0359C6.72257 10.0359 6.72513 10.0352 6.72705 10.0337C6.75975 10.0142 6.70846 9.82659 6.63923 9.66369C6.57512 9.50913 6.47512 9.33757 6.43601 9.33757Z" fill="#FFFFFE"/>
<path fill-rule="evenodd" clip-rule="evenodd" d="M3.14743 12.6629C3.03963 12.3776 2.8168 11.7844 2.73679 10.9779C2.67622 10.2944 2.73512 9.74422 2.76679 9.44902C2.78124 9.31671 2.78902 9.23943 2.78068 9.21347C2.78013 9.21161 2.77957 9.21069 2.77902 9.20914C2.77791 9.20729 2.77735 9.20296 2.77624 9.20203C2.77513 9.20141 2.77402 9.2011 2.77291 9.2011C2.77291 9.2011 2.77013 9.20049 2.76957 9.20049C2.7679 9.20049 2.76679 9.2011 2.76513 9.20203C2.71067 9.23356 2.52619 10.007 2.58231 11.0301C2.64066 12.0703 3.12242 12.8855 3.20244 12.8855C3.20244 12.8855 3.20466 12.8852 3.20521 12.8852C3.2091 12.8845 3.21022 12.8793 3.21188 12.8743C3.21188 12.874 3.21188 12.874 3.21244 12.8737C3.21633 12.8508 3.19355 12.7875 3.14743 12.6629Z" fill="#FFFFFE"/>
<path fill-rule="evenodd" clip-rule="evenodd" d="M6.66323 9.35936L6.66171 9.35998C6.66171 9.35998 6.66202 9.36832 6.66171 9.37172V9.37482C6.66262 9.40851 6.68267 9.52288 6.71971 9.7269C6.73338 9.80263 6.74886 9.88579 6.76435 9.97203C6.77893 10.0536 6.79654 10.1665 6.81567 10.2858C6.86182 10.5742 6.89037 10.7491 6.90191 10.7491C6.90434 10.7491 6.90616 10.7479 6.90768 10.7461C6.91952 10.7321 6.93167 10.6536 6.88187 10.2842C6.80109 9.75936 6.68509 9.35936 6.66323 9.35936Z" fill="#FFFFFE"/>
<path fill-rule="evenodd" clip-rule="evenodd" d="M6.97593 10.3067C6.97562 10.3067 6.97471 10.307 6.97471 10.3073C6.97137 10.3107 6.97744 10.3398 6.99172 10.4124C7.00629 10.4854 7.02603 10.5855 7.04182 10.6922C7.06095 10.8226 7.07856 10.9602 7.09284 11.0708C7.11531 11.2455 7.11925 11.2721 7.12229 11.2721C7.12988 11.2696 7.14658 11.0022 7.09678 10.6748C7.07462 10.5122 6.98534 10.3067 6.97593 10.3067Z" fill="#FFFFFE"/>
<path fill-rule="evenodd" clip-rule="evenodd" d="M10.314 9.79747L10.3121 9.79716C10.2987 9.79716 10.2852 9.80335 10.2711 9.812C10.1192 9.9137 9.97812 10.556 9.94094 10.9143C9.93004 11.024 9.92235 11.1554 9.95376 11.157C9.95569 11.157 9.95889 11.152 9.96146 11.1505C9.95953 11.1517 9.95825 11.1526 9.95697 11.153C9.96017 11.1523 9.96338 11.1489 9.96658 11.1449C9.96723 11.1446 9.96787 11.1443 9.96787 11.1437C9.96979 11.1418 9.97107 11.1421 9.97235 11.1397C9.99543 11.1035 10.0217 10.9965 10.0608 10.8163C10.0852 10.7063 10.1121 10.5814 10.1454 10.4577C10.1775 10.335 10.2115 10.2151 10.2416 10.1094C10.3076 9.87939 10.3288 9.79902 10.314 9.79747Z" fill="#FFFFFE"/>
<path fill-rule="evenodd" clip-rule="evenodd" d="M9.94808 11.1453C9.9471 11.1473 9.94547 11.1509 9.94547 11.1509C9.94612 11.1493 9.9471 11.148 9.94808 11.1453Z" fill="#FFFFFE"/>
<path fill-rule="evenodd" clip-rule="evenodd" d="M10.0878 10.6299C10.0713 10.7334 10.083 10.7733 10.0955 10.7881C10.097 10.7897 10.0976 10.7887 10.0992 10.79C10.1037 10.794 10.1074 10.7955 10.1111 10.7959L10.1141 10.7974C10.1163 10.7974 10.1175 10.7971 10.1175 10.7971L10.1184 10.7962C10.142 10.6159 10.1682 10.4648 10.1854 10.3649C10.2043 10.2558 10.2101 10.2212 10.204 10.219C10.1906 10.219 10.1166 10.4521 10.0878 10.6299Z" fill="#FFFFFE"/>
<path fill-rule="evenodd" clip-rule="evenodd" d="M10.5894 10.3067C10.5682 10.3067 10.381 10.5123 10.3342 10.6752C10.2291 11.0023 10.2637 11.2696 10.2797 11.2721C10.2868 11.2721 10.2964 11.2428 10.3451 11.0644C10.374 10.9556 10.4112 10.8202 10.4503 10.6919C10.4842 10.5862 10.5253 10.4863 10.5554 10.4137C10.5862 10.3404 10.599 10.3105 10.5919 10.3074L10.5894 10.3067Z" fill="#FFFFFE"/>
<path fill-rule="evenodd" clip-rule="evenodd" d="M10.7308 9.3708C10.7305 9.36771 10.7308 9.35998 10.7308 9.35998L10.7293 9.35936C10.7074 9.35936 10.5917 9.75936 10.5106 10.2839C10.4608 10.6539 10.4733 10.7325 10.4851 10.7461C10.4866 10.7482 10.4885 10.7491 10.4909 10.7491C10.5024 10.7491 10.5313 10.573 10.5774 10.2824C10.5963 10.1643 10.6139 10.053 10.6281 9.97203C10.6436 9.88455 10.6594 9.80047 10.6731 9.72412C10.7098 9.5235 10.7296 9.41036 10.7308 9.37574V9.3708Z" fill="#FFFFFE"/>
<path fill-rule="evenodd" clip-rule="evenodd" d="M11.1175 9.33769C11.0803 9.33769 10.9803 9.50925 10.9156 9.6635C10.8463 9.82672 10.7951 10.0143 10.8278 10.0338C10.8297 10.0354 10.8322 10.036 10.8354 10.036C10.872 10.036 10.9617 9.86628 11.0233 9.70987C11.0887 9.54356 11.14 9.34913 11.122 9.33862C11.1207 9.338 11.1194 9.33769 11.1175 9.33769Z" fill="#FFFFFE"/>
<path fill-rule="evenodd" clip-rule="evenodd" d="M11.4331 9.2011C11.4145 9.2011 11.3137 9.57575 11.2308 9.92567C11.1473 10.2827 11.0423 10.7841 11.0623 10.7906C11.0817 10.7906 11.2008 10.343 11.2934 9.94267C11.3726 9.60047 11.4486 9.22119 11.4352 9.20202C11.4343 9.2011 11.4337 9.2011 11.4331 9.2011Z" fill="#FFFFFE"/>
<path fill-rule="evenodd" clip-rule="evenodd" d="M12.4414 8.66858L12.4395 8.66765C12.4265 8.66765 12.3712 8.89392 12.2813 9.26301C12.2443 9.41664 12.2057 9.57522 12.1702 9.71555C12.1003 9.99098 11.9777 10.3421 11.9042 10.552C11.851 10.7044 11.8343 10.7539 11.8383 10.7579L11.8395 10.7582C11.8656 10.7582 12.0742 10.3554 12.2233 9.74894C12.3755 9.12731 12.4556 8.68712 12.4414 8.66858Z" fill="#FFFFFE"/>
<path fill-rule="evenodd" clip-rule="evenodd" d="M13.0853 7.39568C13.0786 7.39568 13.0704 7.44915 13.0461 7.61917C13.0042 7.90819 12.918 8.51035 12.7443 9.33909C12.5016 10.4275 12.2833 10.8408 12.212 10.9765C12.1971 11.004 12.191 11.0173 12.1895 11.0256L12.1889 11.0281L12.1877 11.0315C12.1883 11.0327 12.1898 11.034 12.1898 11.034L12.1913 11.0343C12.1965 11.0343 12.2113 11.017 12.2329 10.9855C12.2347 10.983 12.2359 10.9811 12.2375 10.9786C12.2429 10.9706 12.249 10.9607 12.2551 10.9511C12.2587 10.9453 12.2624 10.9397 12.2666 10.9326C12.2727 10.9227 12.2791 10.9106 12.2854 10.8995C12.2903 10.8912 12.2945 10.8838 12.2997 10.8745C12.31 10.8559 12.321 10.8346 12.3325 10.8127C12.334 10.8099 12.3349 10.808 12.3362 10.8052C12.4692 10.5453 12.665 10.0634 12.8102 9.3595C13.037 8.26182 13.1041 7.41855 13.0868 7.3966L13.0853 7.39568Z" fill="#FFFFFE"/>
<path fill-rule="evenodd" clip-rule="evenodd" d="M13.4874 9.16197C13.4749 9.16383 13.4582 9.34095 13.4318 9.62997C13.4148 9.82132 13.3951 10.038 13.3763 10.1808C13.3337 10.5014 13.2876 10.7833 13.2569 10.9694C13.2272 11.1496 13.2208 11.1923 13.225 11.1938C13.2357 11.1938 13.3805 10.6355 13.4309 10.1975C13.5059 9.61514 13.5059 9.18237 13.4895 9.1629C13.4889 9.16228 13.4883 9.16197 13.4874 9.16197Z" fill="#FFFFFE"/>
<path fill-rule="evenodd" clip-rule="evenodd" d="M13.9096 8.64153C13.9084 8.64183 13.9075 8.6474 13.9066 8.64956C13.9063 8.65111 13.9056 8.65142 13.9053 8.65327C13.9002 8.67893 13.9008 8.7627 13.9041 8.93673C13.9099 9.23163 13.919 9.72529 13.8877 10.2687C13.8558 10.8131 13.796 11.239 13.7602 11.4931C13.7402 11.6356 13.7307 11.7049 13.7338 11.729C13.7341 11.7311 13.7347 11.7321 13.735 11.7339C13.7356 11.7358 13.7356 11.7398 13.7368 11.7404C13.7562 11.7404 13.9175 11.1602 13.9551 10.308C14.0049 9.22885 13.9403 8.67213 13.9129 8.64307C13.912 8.64214 13.9111 8.64153 13.9096 8.64153Z" fill="#FFFFFE"/>
<path fill-rule="evenodd" clip-rule="evenodd" d="M14.7016 10.7645C14.6773 10.7676 14.6696 10.8087 14.6478 10.9188C14.6228 11.0452 14.5818 11.2563 14.4805 11.5963C14.376 11.9024 14.2612 12.1262 14.1837 12.2742C14.126 12.3874 14.0965 12.4443 14.1164 12.4532C14.1183 12.4541 14.1202 12.4548 14.1228 12.4548C14.1279 12.4548 14.1349 12.4495 14.1407 12.4461L14.1433 12.4449C14.2234 12.3979 14.4273 12.1064 14.6087 11.6038C14.7568 11.1648 14.7305 10.78 14.7055 10.7654L14.7016 10.7645Z" fill="#FFFFFE"/>
<path fill-rule="evenodd" clip-rule="evenodd" d="M14.9147 9.20209C14.9147 9.20209 14.9125 9.20085 14.9102 9.20085C14.908 9.20085 14.9052 9.20116 14.9036 9.20209C14.9019 9.20302 14.9019 9.20765 14.9008 9.20982L14.8991 9.2126C14.8903 9.23702 14.8975 9.31461 14.9125 9.44907C14.9441 9.74428 15.0034 10.2945 14.9418 10.978C14.8631 11.7845 14.6401 12.378 14.5325 12.663C14.4748 12.8178 14.4526 12.8809 14.4754 12.8852L14.4781 12.8855C14.5575 12.8855 15.0389 12.0704 15.0972 11.0302C15.1532 10.007 14.969 9.23393 14.9147 9.20209Z" fill="#FFFFFE"/>
</svg>
