<svg width="73" height="30" viewBox="0 0 73 30" fill="none" xmlns="http://www.w3.org/2000/svg">
<g clip-path="url(#clip0_838_726)">
<path d="M72.9991 0.500201C73.0007 9.49982 72.9996 18.4994 72.9996 27.4996C65.5644 27.5001 58.1292 27.5001 50.694 27.4996C50.6935 27.2801 50.6935 27.0612 50.694 26.8417C57.9366 26.8412 65.1798 26.8423 72.423 26.8412C72.423 18.2724 72.423 9.70368 72.423 1.13492C48.4821 1.13439 24.5417 1.13439 0.600847 1.13492C0.601397 9.70368 0.600847 18.2724 0.600847 26.8412C7.74774 26.8423 14.8946 26.8412 22.0415 26.8417C22.0421 27.0612 22.0421 27.2801 22.0415 27.4996C14.6949 27.5001 7.34772 27.4996 0.000550344 27.4996C-0.000550109 18.5 0.000550226 9.50036 0 0.500739C24.3332 0.499125 48.6664 0.500739 72.9991 0.500201Z" fill="#535862"/>
<path d="M29.9097 8.50101C30.9106 8.50554 31.9109 8.50201 32.9118 8.50353C33.2499 8.50705 33.566 8.47178 33.8945 8.56752C33.8701 8.62648 33.865 8.7197 33.8073 8.76052C33.5631 8.82804 33.3122 8.80537 33.0726 8.91119C32.8495 9.00794 32.6852 9.19488 32.6603 9.41761C32.6121 9.81066 32.8234 10.2183 32.9667 10.5836C33.7659 12.506 34.5595 14.4335 35.4437 16.3267C35.7399 15.5653 36.0067 14.7958 36.2769 14.0273C36.6343 12.9989 36.994 11.9684 37.3219 10.9324C37.3593 10.8104 37.3893 10.7031 37.3344 10.5806C37.2149 10.2591 37.0772 9.93815 36.9311 9.62522C36.8297 9.43424 36.7323 9.19841 36.5527 9.0553C36.2621 8.84266 35.9013 8.87138 35.5411 8.74087C35.5496 8.67838 35.5586 8.6164 35.5677 8.55392C35.9302 8.47732 36.2825 8.50705 36.6501 8.50353C37.4431 8.50302 38.2361 8.50302 39.0291 8.50353C39.3276 8.50453 39.6142 8.48236 39.9088 8.54182C39.9093 8.60733 39.9105 8.67284 39.911 8.73784C39.6986 8.81746 39.4749 8.85626 39.2551 8.91421C39.0099 8.98324 38.7997 9.13542 38.7216 9.35916C38.623 9.61917 38.6859 9.87113 38.7448 10.1311C38.8807 10.7091 39.0954 11.2896 39.2953 11.8525C39.855 13.334 40.478 14.7887 41.1175 16.244C41.5055 15.2468 41.8788 14.2455 42.2419 13.2412C42.5602 12.3463 42.8995 11.4564 43.198 10.5564C43.3198 10.2022 43.3866 9.8419 43.3339 9.47153C43.296 9.25031 43.1697 9.02456 42.9403 8.91522C42.7126 8.79781 42.4565 8.82451 42.2158 8.7585C42.183 8.70509 42.1575 8.64664 42.1308 8.5902C42.1756 8.56148 42.2198 8.53275 42.264 8.50403C43.2812 8.50151 44.2991 8.50605 45.3164 8.50101C45.4178 8.51159 45.543 8.48085 45.6058 8.56954C45.6206 8.61791 45.6268 8.6678 45.6245 8.7197C45.5333 8.7968 45.3793 8.79982 45.2603 8.82703C44.9658 8.87188 44.7058 9.01046 44.5008 9.20144C44.1586 9.51738 44.0012 9.90489 43.8239 10.305C43.2365 11.6948 42.7335 13.1107 42.2237 14.5242C41.7462 15.849 41.2931 17.1828 40.7578 18.4899C40.6746 18.4934 40.5907 18.497 40.5075 18.5C40.1212 17.474 39.7156 16.4536 39.2846 15.4423C38.7193 14.113 38.1789 12.7751 37.6408 11.4368C37.5411 11.6681 37.4635 11.9054 37.3825 12.1422C36.6388 14.2581 35.9025 16.3765 35.1559 18.4914C35.0681 18.4945 34.9803 18.497 34.8925 18.4995C34.3777 17.3954 33.92 16.2722 33.4278 15.1606C32.7894 13.7361 32.1629 12.302 31.4838 10.893C31.2453 10.4254 31.0222 9.90589 30.6846 9.49017C30.5215 9.28055 30.3425 9.08906 30.0944 8.95503C29.8769 8.82905 29.648 8.79478 29.4028 8.73381C29.4277 8.6678 29.4101 8.57407 29.4985 8.54837C29.6225 8.50201 29.7772 8.50353 29.9097 8.50101Z" fill="#535862"/>
<path d="M45.9327 8.52909C46.1568 8.45026 46.4079 8.53785 46.5406 8.71689C46.7337 8.95093 46.6282 9.33879 46.3468 9.46983C46.1424 9.53255 45.8948 9.50101 45.7491 9.34195C45.619 9.21862 45.6179 9.06515 45.6297 8.90258C45.6475 8.73686 45.7594 8.58515 45.9327 8.52909Z" fill="#535862"/>
<path d="M51.2905 11.5022C51.419 12.0183 51.4466 12.5392 51.4666 13.0738C51.7135 12.6198 51.9577 12.1984 52.3447 11.894C52.7362 11.5628 53.2229 11.459 53.694 11.5543C54.0254 11.6281 54.3488 11.766 54.5797 12.0705C54.8488 12.4023 54.9311 12.8347 54.9765 13.2771C55.0125 13.6958 55.0317 14.1198 55.0125 14.5406C54.9809 15.0683 55.0183 15.5939 54.9867 16.1222C54.9756 16.5225 54.9756 16.9327 54.9858 17.333C54.9987 17.5189 55.0023 17.7717 55.1046 17.9239C55.2834 18.1725 55.5673 18.1415 55.7639 18.3848C55.6375 18.5381 55.5005 18.4912 55.3386 18.4991C54.7901 18.4949 54.2411 18.4954 53.6926 18.4991C53.5703 18.4996 53.4498 18.4843 53.3292 18.4606C53.3274 18.3927 53.3252 18.3248 53.323 18.2568C53.4925 18.1741 53.6775 18.1315 53.8408 18.0346C53.9818 17.9466 54.0419 17.7781 54.0659 17.6C54.1086 17.2703 54.1032 16.9296 54.1206 16.5967C54.1228 16.1396 54.154 15.6845 54.1446 15.2268C54.1491 14.519 54.1513 13.8153 53.9983 13.1222C53.9128 12.7172 53.6806 12.3264 53.3555 12.15C53.0187 11.9625 52.6028 12.0747 52.3172 12.3375C51.9221 12.7004 51.6882 13.2371 51.5494 13.7959C51.3794 14.5153 51.3309 15.2727 51.3074 16.0169C51.3109 16.5936 51.2833 17.1234 51.3621 17.6912C51.3861 17.8471 51.4292 17.9914 51.5391 18.0909C51.6962 18.24 51.8963 18.2236 52.0569 18.319C52.0823 18.3748 52.105 18.4327 52.1254 18.4917C51.625 18.5022 51.1241 18.4943 50.6232 18.4964C50.3024 18.4928 49.9946 18.5117 49.6805 18.4754C49.6992 18.4111 49.6983 18.2895 49.7557 18.2558C49.9105 18.1515 50.1508 18.1415 50.2967 18.0024C50.403 17.905 50.4194 17.7428 50.4421 17.5969C50.5129 17.0181 50.5049 16.3945 50.5293 15.8062C50.5275 14.9809 50.5364 14.1551 50.5249 13.3303C50.4964 12.9463 50.504 12.4133 50.2766 12.11C50.133 11.8988 49.9377 11.9051 49.7606 11.7703C49.6917 11.6928 49.7255 11.6428 49.7477 11.5512C49.9136 11.5048 50.0974 11.528 50.2673 11.5254C50.6089 11.5364 50.9484 11.4895 51.2905 11.5022Z" fill="#535862"/>
<path d="M66.1877 11.5348C66.5753 11.6098 66.8722 11.815 67.2245 11.9813C67.3235 11.8732 67.4215 11.7651 67.5263 11.6639C67.6679 11.8805 67.6385 12.1019 67.6635 12.3532C67.6856 12.7714 67.7267 13.1968 67.7037 13.616C67.7052 13.7351 67.6287 13.7692 67.5582 13.8447C67.3984 13.5809 67.3338 13.286 67.2049 13.0059C67.0682 12.6948 66.9178 12.3254 66.6644 12.103C66.2278 11.7462 65.5507 11.7247 65.116 12.0967C64.8196 12.3485 64.7147 12.8144 64.8769 13.1816C64.9661 13.3773 65.095 13.5877 65.2738 13.7005C65.4987 13.85 65.7452 13.9675 65.9789 14.1018C66.3861 14.3384 66.8521 14.5467 67.2529 14.8326C67.5989 15.0698 67.8257 15.4963 67.9022 15.9218C67.9727 16.3834 67.912 16.8729 67.7179 17.2931C67.5229 17.7102 67.2132 18.0628 66.8296 18.2857C66.3989 18.5355 65.8584 18.5606 65.3978 18.3938C65.1714 18.3177 64.9602 18.2065 64.7495 18.0911C64.6393 18.036 64.508 17.9568 64.3835 17.9678C64.2316 18.1147 64.1934 18.3078 63.9744 18.3702C63.8465 17.7774 63.9244 17.1032 63.8876 16.4978C63.8798 16.3446 63.8626 16.1794 63.8896 16.0283C63.9014 15.9239 63.9592 15.9218 64.0395 15.8924C64.1307 15.9627 64.1508 16.0739 64.189 16.1815C64.3169 16.6158 64.5109 17.0314 64.7544 17.4044C64.9338 17.6683 65.1665 17.9411 65.4483 18.0785C65.852 18.2805 66.3469 18.238 66.6948 17.93C67.0496 17.6452 67.1804 17.1258 67.0525 16.6793C66.957 16.3771 66.7551 16.1227 66.5204 15.9317C65.9755 15.4722 65.2626 15.2292 64.6746 14.8122C64.4506 14.648 64.2684 14.4245 64.162 14.1569C63.9915 13.7356 63.9832 13.2372 64.1076 12.8007C64.2517 12.3039 64.6172 11.8837 65.0553 11.6654C65.4047 11.4897 65.8113 11.4682 66.1877 11.5348Z" fill="#535862"/>
<path d="M16.1926 11.5C16.1936 13.4581 16.1926 15.4178 16.1926 17.3753C16.1995 17.5942 16.2139 17.8917 16.3903 18.0384C16.577 18.1956 16.887 18.1539 17.1075 18.2314C17.2153 18.2452 17.2019 18.396 17.2361 18.4799C16.961 18.5253 16.6957 18.4788 16.4191 18.4846C15.7898 18.4889 15.161 18.482 14.5317 18.4889C14.4408 18.4868 14.3399 18.491 14.2525 18.4614C14.1994 18.3591 14.1552 18.3343 14.25 18.2362C14.4651 18.0906 14.787 18.1349 15.009 17.9888C15.1232 17.9197 15.1451 17.7509 15.1635 17.6253C15.2265 17.033 15.1729 16.4089 15.2042 15.8134C15.233 15.3518 15.2037 14.8818 15.2216 14.4187C15.2548 13.8484 15.2434 13.2745 15.1893 12.7064C15.1659 12.5297 15.1386 12.2965 15.0209 12.1599C14.8282 11.9674 14.5734 11.9827 14.331 11.9368C14.2674 11.9368 14.2024 11.846 14.2202 11.7822C14.2337 11.6498 14.3881 11.673 14.4795 11.644C15.0477 11.5728 15.6219 11.5433 16.1926 11.5Z" fill="#535862"/>
<path d="M47.6172 11.5C47.6162 13.3378 47.6182 15.1757 47.6162 17.0135C47.6172 17.2799 47.5992 17.5964 47.6932 17.8474C47.7497 18.007 47.8833 18.0968 48.0364 18.1317C48.249 18.1777 48.4621 18.1861 48.6667 18.2717C48.6512 18.3409 48.6332 18.4086 48.6131 18.4762C48.5381 18.4958 48.4611 18.4984 48.384 18.5C47.5671 18.4958 46.7497 18.4963 45.9329 18.5C45.8513 18.4937 45.7388 18.5053 45.6697 18.4535C45.5977 18.37 45.6142 18.2569 45.7082 18.202C45.9153 18.0878 46.202 18.1222 46.4101 17.9932C46.5001 17.9383 46.5461 17.8516 46.5642 17.7454C46.6507 17.2741 46.5917 16.7552 46.6172 16.2727C46.6562 15.6745 46.6102 15.0758 46.6527 14.4771C46.6517 13.8182 46.6882 13.1154 46.5747 12.4675C46.5491 12.2953 46.4686 12.1441 46.317 12.0638C46.1164 11.9603 45.8578 11.9534 45.6392 11.9132C45.6477 11.844 45.6547 11.7769 45.6697 11.7087C45.7758 11.649 45.9148 11.6395 46.0324 11.6252C46.5602 11.5724 47.0879 11.5333 47.6172 11.5Z" fill="#535862"/>
<path d="M58.9566 11.4824C59.4705 11.1871 60.0877 11.137 60.6587 11.2763C61.2859 11.4476 61.8319 11.8869 62.2046 12.4052C62.5772 12.9159 62.7652 13.5636 62.69 14.1913C62.6762 14.3095 62.573 14.3239 62.4751 14.3407C62.185 14.3743 61.8886 14.344 61.5962 14.3652C61.1138 14.3998 60.6324 14.3611 60.1499 14.3925C59.8426 14.4126 59.5393 14.4023 59.232 14.4023C58.9248 14.4001 58.6192 14.4306 58.312 14.4306C58.2966 14.8294 58.2589 15.2175 58.3286 15.6142C58.4171 16.261 58.7169 16.8706 59.1968 17.3222C59.5084 17.6051 59.9047 17.789 60.3306 17.8124C60.8149 17.8488 61.2831 17.6934 61.6773 17.4218C61.9428 17.2434 62.1418 17.0167 62.3853 16.8134C62.4351 16.8166 62.4849 16.8199 62.5347 16.8232C62.5457 16.9243 62.5963 17.0335 62.5347 17.1249C62.3072 17.5391 61.9178 17.8433 61.5034 18.0634C60.8355 18.4099 60.02 18.5006 59.2906 18.3124C58.6827 18.1605 58.149 17.7448 57.772 17.2607C57.3351 16.7061 57.1137 16.0308 57.062 15.3359C57.0488 14.8583 57.0414 14.3925 57.1568 13.9247C57.3701 12.9108 58.0495 11.9996 58.9566 11.4824ZM60.8238 11.7577C60.5335 11.5409 60.1444 11.4486 59.7915 11.5575C59.5062 11.6443 59.2504 11.8482 59.0464 12.0585C58.5799 12.5519 58.4063 13.3216 58.3228 13.9716C59.1155 14.0079 59.9242 14.0604 60.7163 13.9921C60.9334 13.9704 61.2062 13.911 61.3618 13.748C61.5141 13.5713 61.5362 13.334 61.5269 13.1113C61.5082 12.5859 61.2453 12.0798 60.8238 11.7577Z" fill="#535862"/>
<path d="M9.31764 7.65234C9.91298 7.66156 10.4889 7.70143 11.0403 7.94434C11.4293 8.10917 11.7591 8.38514 12.0081 8.72168C12.3378 9.19163 12.4375 9.81308 12.3782 10.373C12.3243 10.8887 12.1004 11.3815 11.7327 11.7529C11.2742 12.1953 10.7238 12.4407 10.1262 12.6445C10.9128 12.8717 11.7823 13.2589 12.3079 13.9023C12.9812 14.7047 13.0116 15.911 12.5159 16.8066C12.2119 17.3418 11.7606 17.8417 11.1878 18.1025C10.5238 18.4239 9.77033 18.4733 9.04322 18.4316C8.32859 18.4273 7.61333 18.4329 6.89869 18.4297C6.45789 18.4216 6.02016 18.4677 5.57936 18.4541C5.29968 18.4411 4.98324 18.4921 4.7151 18.4082C4.59416 18.3789 4.56193 18.1884 4.68287 18.1445C4.94383 18.0369 5.29862 18.05 5.5442 17.9033C5.72506 17.7954 5.82144 17.62 5.87916 17.4248C5.99782 17.0155 6.02954 16.5713 6.05592 16.1475C6.10589 15.4461 6.04732 14.7366 6.094 14.0352C6.11269 13.6556 6.08734 13.2761 6.10768 12.8955C6.15714 11.9191 6.16656 10.9456 6.10279 9.96973C6.07531 9.57133 6.04173 9.16565 5.95436 8.77539C5.90489 8.5797 5.84678 8.37033 5.67311 8.24512C5.44398 8.08061 5.18863 8.08549 4.94361 7.98633C4.86343 7.9582 4.87632 7.81414 4.85768 7.74707C4.94671 7.69395 5.02872 7.64901 5.13697 7.65332C6.5305 7.65278 7.92411 7.65397 9.31764 7.65234ZM8.87818 13.0078C8.43425 13.0056 7.96886 12.985 7.5315 13.0684C7.38748 13.5775 7.47574 14.0755 7.42408 14.6279C7.42628 15.5952 7.35427 16.5224 7.42408 17.4951C7.44167 17.6236 7.44217 17.7454 7.56568 17.8213C7.8229 17.991 8.19013 18.0268 8.49244 18.0469C9.00863 18.0848 9.60805 18.0886 10.094 17.8896C10.5199 17.7205 10.8235 17.3082 11.0374 16.9238C11.3529 16.3367 11.4129 15.6075 11.3206 14.958C11.2497 14.4474 11.046 13.9382 10.6399 13.5977C10.1671 13.1959 9.48837 13.0344 8.87818 13.0078ZM8.76783 8.05273C8.34579 8.04138 7.93871 8.12319 7.54029 8.25488C7.54028 8.87934 7.50576 9.50542 7.49147 10.1299C7.49256 10.8168 7.49446 11.5035 7.48951 12.1904C7.49116 12.3097 7.49108 12.4428 7.52955 12.5566C7.6165 12.6578 7.8211 12.6483 7.94361 12.6543C8.64489 12.6424 9.39956 12.5278 10.0129 12.1729C10.3945 11.9587 10.6974 11.6152 10.8381 11.2031C11.0366 10.6252 11.0503 9.9875 10.886 9.40039C10.7794 9.03062 10.5576 8.68573 10.2366 8.46289C9.80728 8.15339 9.29275 8.04298 8.76783 8.05273Z" fill="#535862"/>
<path d="M24.0357 11.1893C24.4035 11.0511 24.8588 11.1028 25.1441 11.3836C25.3631 11.5978 25.4998 11.9633 25.4 12.2596C25.2972 12.567 24.9154 12.6871 24.6373 12.5321C24.3709 12.3923 24.3263 12.0841 24.1392 11.8846C24.048 11.7887 23.8856 11.8103 23.7779 11.8661C23.5558 11.9794 23.3669 12.1898 23.191 12.3622C23.3267 12.6396 23.4469 12.9117 23.4859 13.2206C23.5265 13.5382 23.5253 13.8776 23.4781 14.1952C23.3412 15.0355 22.7885 15.7913 21.9722 16.1014C21.3126 16.372 20.6806 16.2781 20.0044 16.4461C19.7319 16.5118 19.4884 16.6864 19.3296 16.9129C19.2049 17.081 19.1925 17.3357 19.3228 17.5038C19.4399 17.6624 19.6291 17.7368 19.8169 17.7801C20.1572 17.8571 20.5149 17.8775 20.8628 17.9002C21.5225 17.9274 22.1843 17.9549 22.8423 18.0096C23.1116 18.0329 23.4067 18.0606 23.6578 18.162C24.1051 18.349 24.4457 18.7346 24.5953 19.1883C24.7129 19.5683 24.7137 19.9876 24.65 20.3768C24.5571 20.9542 24.2275 21.4689 23.774 21.8387C23.2321 22.2859 22.5448 22.504 21.855 22.6043C21.2828 22.6992 20.6762 22.6714 20.0914 22.6649C19.4581 22.6166 18.6988 22.4981 18.2007 22.078C17.645 21.6057 17.6179 20.7171 18.0621 20.1629C18.5063 19.5835 19.2632 19.2408 19.9322 18.9833C19.4908 18.8965 18.9455 18.7893 18.5943 18.495C18.1739 18.141 18.1972 17.481 18.4791 17.0516C18.788 16.5935 19.3241 16.3496 19.8287 16.162C19.398 15.9902 19.0085 15.7522 18.731 15.3768C18.366 14.9165 18.2465 14.3371 18.2916 13.7635C18.3592 12.6987 19.1224 11.6663 20.1597 11.3329C20.5746 11.1964 21.0345 11.1797 21.4664 11.2274C22.0617 11.3 22.5881 11.6078 22.9752 12.0545C23.2736 11.7244 23.6048 11.3455 24.0357 11.1893ZM22.2086 19.0545C21.7904 19.0112 21.3624 19.0016 20.9449 19.0536C20.31 19.1474 19.6363 19.3989 19.1685 19.8446C18.6596 20.3183 18.5802 21.2439 19.0943 21.7401C19.4115 22.0508 19.8921 22.2178 20.3248 22.2899C20.9254 22.3798 21.5668 22.3529 22.1548 22.2001C22.6441 22.0759 23.0898 21.8128 23.4009 21.4159C23.6734 21.0896 23.849 20.6991 23.8277 20.2694C23.8354 19.9285 23.654 19.6107 23.3716 19.4198C23.0418 19.1926 22.6016 19.1023 22.2086 19.0545ZM21.565 11.7684C21.3127 11.5636 20.9846 11.4955 20.6675 11.5741C20.285 11.6548 19.9908 11.9637 19.8072 12.2889C19.5631 12.7465 19.4963 13.307 19.4996 13.8172C19.5111 14.2291 19.5617 14.6706 19.7281 15.0516C19.8457 15.3352 20.0865 15.5727 20.3394 15.744C20.6208 15.9245 20.9551 16.0249 21.2837 15.91C21.7216 15.7636 22.0457 15.3179 22.1656 14.8915C22.3442 14.2723 22.3362 13.5868 22.2164 12.9579C22.1328 12.5171 21.9206 12.0595 21.565 11.7684Z" fill="#535862"/>
<path d="M28.6666 26.5148C28.9568 26.5531 29.1537 26.6784 29.3553 26.811C29.2053 26.8918 29.0547 26.9727 28.9058 27.055C28.7575 26.9673 28.6064 26.8983 28.4315 26.8359C28.3278 26.8799 28.0961 26.9102 28.1824 27.0236C28.4766 27.2738 28.9991 27.4117 29.2788 27.6811C29.4908 27.8914 29.4248 28.1941 29.1276 28.3546C28.8496 28.5133 28.4697 28.5156 28.1251 28.4841C27.7683 28.4374 27.5679 28.2719 27.375 28.0834C27.5528 28.0194 27.73 27.955 27.9073 27.8907C28.0735 28.0248 28.2467 28.1895 28.5502 28.1316C28.7332 28.1014 28.8444 28.0037 28.7407 27.8845C28.45 27.6535 27.9733 27.5167 27.6965 27.2692C27.58 27.1612 27.5024 27.0317 27.5528 26.8976C27.5928 26.7623 27.7353 26.6604 27.9038 26.5864C28.1187 26.4914 28.4205 26.4872 28.6666 26.5148Z" fill="#535862"/>
<path d="M37.97 26.5463C38.352 26.6427 38.5938 26.9596 38.4724 27.2472C38.3301 27.6278 37.8666 27.8635 37.516 28.1406C37.8522 28.1421 38.1879 28.1421 38.524 28.1406C38.5256 28.26 38.5267 28.3798 38.5278 28.4996C37.8527 28.5 37.1782 28.4996 36.5032 28.5C36.5021 28.4344 36.5011 28.3689 36.5 28.3037C36.8495 28.0504 37.2219 27.8143 37.5752 27.5641C37.7414 27.4338 37.963 27.2519 37.9193 27.0595C37.8629 26.8671 37.5272 26.8082 37.3194 26.9089C37.1974 26.9631 37.1607 27.095 37.1106 27.1868C36.9268 27.1871 36.7429 27.1871 36.5586 27.1864C36.6034 27.0147 36.6337 26.8578 36.8026 26.7243C37.093 26.4933 37.5784 26.4538 37.97 26.5463Z" fill="#535862"/>
<path d="M23.3199 26.5003C24.334 26.4999 25.3481 26.4999 26.3611 26.5003C26.3611 26.6288 26.3611 26.7573 26.3601 26.8862C25.7143 26.8858 25.0676 26.8858 24.4218 26.8862C24.4218 26.997 24.4218 27.1082 24.4218 27.2191C25.0686 27.2191 25.7143 27.2191 26.3611 27.2195C26.3611 27.348 26.3611 27.4765 26.3601 27.6054C25.7143 27.605 25.0686 27.605 24.4218 27.6054C24.4208 27.7692 24.4218 27.9326 24.4228 28.0964C25.0686 28.0964 25.7143 28.096 26.3611 28.0964C26.3611 28.231 26.3611 28.3655 26.3611 28.4996C25.347 28.5 24.334 28.4996 23.3199 28.5C23.3189 27.8334 23.3199 27.1669 23.3199 26.5003Z" fill="#535862"/>
<path d="M30.4167 26.5008C31.0928 26.4996 31.7683 26.5 32.4445 26.5004C32.4445 26.6289 32.4445 26.7574 32.4438 26.8859C32.2224 26.8859 32.0003 26.8863 31.7783 26.8863C31.7783 27.4239 31.7789 27.962 31.7776 28.4996C31.537 28.5 31.2957 28.5 31.0544 28.5C31.0537 27.962 31.055 27.4243 31.0544 26.8863C30.8416 26.8863 30.6295 26.8859 30.4174 26.8859C30.4174 26.7574 30.4173 26.6293 30.4167 26.5008Z" fill="#535862"/>
<path d="M43.8785 26.5148C44.1183 26.486 44.3685 26.5092 44.6106 26.5032C44.611 27.1688 44.6115 27.8344 44.6106 28.5C44.4447 28.5 44.2792 28.5 44.1133 28.5C44.1128 27.9571 44.1133 27.4142 44.1133 26.8713C43.9414 26.8709 43.7691 26.8709 43.5972 26.8693C43.6889 26.7514 43.7686 26.6199 43.8785 26.5148Z" fill="#535862"/>
<path d="M40.3479 26.3168C40.5959 26.242 40.9101 26.2452 41.1536 26.3363C41.4706 26.46 41.6556 26.7478 41.7298 27.0648C41.7974 27.3825 41.8013 27.7149 41.7728 28.0375C41.7326 28.3735 41.6376 28.7145 41.3509 28.9281C41.1052 29.1021 40.8286 29.107 40.5384 29.0853C40.2801 29.0636 40.0412 28.9232 39.8978 28.7113C39.7351 28.4734 39.6842 28.1982 39.6731 27.9164C39.6643 27.5602 39.6613 27.1901 39.7942 26.8529C39.8904 26.6051 40.0907 26.4008 40.3479 26.3168ZM41.0345 26.9388C40.9191 26.7926 40.7482 26.7161 40.5687 26.808C40.3592 26.8974 40.3126 27.1305 40.2796 27.3295C40.2428 27.6596 40.2277 28.0502 40.3655 28.3597C40.4749 28.5761 40.7365 28.6719 40.9476 28.5277C41.1672 28.3547 41.1844 28.0055 41.1888 27.7513C41.186 27.496 41.2032 27.1514 41.0345 26.9388Z" fill="#535862"/>
<path d="M47.9082 26.2647C48.3738 26.237 48.8639 26.6224 48.8496 27.1006C48.8513 27.3341 48.749 27.5156 48.6397 27.7139C48.3742 28.1774 48.1119 28.6431 47.8448 29.1055C47.6732 29.0312 47.5025 28.9554 47.3321 28.8789C47.5036 28.584 47.6688 28.2854 47.8448 27.9932C47.6249 27.9466 47.4216 27.9028 47.2451 27.7559C46.938 27.501 46.8582 27.0378 47.0616 26.6963C47.2447 26.413 47.5659 26.2452 47.9082 26.2647ZM48.2393 27.2608C48.3806 26.981 48.0434 26.6634 47.7598 26.794C47.5729 26.8747 47.4694 27.0861 47.5733 27.2715C47.7031 27.5325 48.1117 27.5186 48.2393 27.2608Z" fill="#535862"/>
</g>
<defs>
<clipPath id="clip0_838_726">
<rect width="73" height="29" fill="white" transform="translate(0 0.5)"/>
</clipPath>
</defs>
</svg>
