<svg width="80" height="18" viewBox="0 0 80 18" fill="none" xmlns="http://www.w3.org/2000/svg">
<path d="M73.1694 15.9706L72.787 14.6293L72.9945 14.5326C73.0452 14.5073 73.4781 14.2738 73.4781 13.2926C73.4781 13.2926 73.4818 4.76873 73.4818 4.48428C73.5188 4.09143 73.3476 3.70692 73.0256 3.45935C72.8712 3.35846 72.6913 3.29893 72.5045 3.28701L72.9159 1.88754H77.0459L77.4589 3.28701C77.253 3.29932 77.0558 3.37098 76.8935 3.4925C76.601 3.74282 76.4473 4.10863 76.4776 4.48226C76.4776 4.85681 76.4843 13.2926 76.4843 13.2926C76.4843 14.153 76.8147 14.44 76.9376 14.5165L77.1765 14.6293L76.7932 15.9706L73.1694 15.9706ZM34.2258 15.9706L33.8888 14.8447L33.8423 14.6291L34.0509 14.5319L34.0279 14.5407C34.0884 14.5154 34.5404 14.3006 34.5404 13.2934V7.09139L34.1845 7.66839C33.5448 8.70597 32.4921 10.4177 32.0876 11.075C31.6834 10.417 29.6343 7.08886 29.6343 7.08886V13.2941C29.6343 14.3094 30.1057 14.5255 30.1421 14.5405L30.1235 14.5334L30.3491 14.6369L29.9491 15.9716H26.2131L25.8534 14.7763L25.7958 14.5503L26.0257 14.4683C26.1446 14.4334 26.6457 14.231 26.6457 13.2944V4.51413L26.6473 4.49945C26.7369 3.97715 26.3901 3.47697 25.851 3.35102L25.5856 3.28775L25.9978 1.88828H29.8167C30.0993 2.39644 31.4185 4.76542 31.9183 5.66154L32.0874 5.96523L32.2559 5.66154C32.7536 4.76567 34.0719 2.39695 34.3548 1.88878H38.174L38.5872 3.28826C38.3452 3.30841 38.1142 3.39371 37.921 3.53424C37.6323 3.77111 37.4842 4.12823 37.525 4.48932V4.58827V13.2939C37.525 14.2937 38.0604 14.5086 38.1214 14.5286L38.3651 14.6154L37.9587 15.9708L34.2258 15.9706ZM7.80615 16.6308C4.49317 16.6308 2.74219 13.9534 2.74219 8.88691C2.74219 1.75036 6.7235 1.38771 7.52188 1.38771C8.06831 1.36793 8.61317 1.45545 9.12263 1.64483L9.18342 1.66685L9.34691 1.73619C9.49994 1.81629 9.6711 1.85972 9.84564 1.86273C9.90521 1.86249 9.96468 1.85776 10.0235 1.84855C10.2296 1.82524 10.4237 1.74372 10.5809 1.61446L10.5917 1.60409L10.6836 1.51045L11.8132 1.55879L11.8976 6.32434H9.79601H9.56987L9.50857 5.93968C9.34135 4.89957 9.18316 3.9174 7.84119 3.9174C6.22823 3.9174 6.04164 6.79202 6.04164 8.95348C6.04164 12.2631 6.60115 13.8719 7.75228 13.8719C8.7699 13.8719 9.14945 12.9889 9.21209 12.4673L9.24235 12.2444H12.1325L12.1232 12.5033C12.0497 14.5552 10.5432 16.6308 7.80615 16.6308ZM40.731 4.48907C40.772 4.12804 40.6243 3.77087 40.3358 3.53374C40.1427 3.39325 39.9116 3.30795 39.6696 3.28776L40.0829 1.88829L44.4623 1.90777C47.6089 1.90777 49.4875 3.49528 49.4875 6.15453C49.4875 9.05445 47.8908 10.4048 44.4623 10.4048H43.7191V13.2934C43.7191 14.3087 44.1905 14.5251 44.2266 14.5397L44.2083 14.5326L44.4339 14.6359L44.0315 15.9706H40.2965L39.9576 14.8381L39.9011 14.6118L40.1365 14.5273C40.1946 14.5073 40.7295 14.295 40.7295 13.2933V4.74466L40.731 4.48907ZM43.7189 7.80428H44.1648C45.6283 7.80428 46.281 7.29638 46.281 6.15731C46.281 5.09594 45.5296 4.51236 44.1648 4.51236H43.7189V7.80428ZM68.1394 15.9706C67.8045 15.204 65.8597 10.7546 65.6668 10.3114L65.6179 10.1993H64.9565V13.2921C64.9565 14.3044 65.4112 14.5175 65.468 14.54L65.4449 14.5314L65.6705 14.6349L65.271 15.9696H61.5342L61.1952 14.8373L61.1395 14.6096L61.3733 14.525C61.3887 14.5207 61.9684 14.3317 61.9684 13.2913V4.50577V4.49438C62.0558 3.97369 61.7094 3.47621 61.1721 3.35101L60.9067 3.28775L61.3184 1.88751L65.9534 1.9075C68.9835 1.9075 70.7918 3.45704 70.7918 6.05304C70.7918 7.761 70.1744 8.95397 68.9564 9.59904L68.8107 9.67623L68.8709 9.82427C69.113 10.419 70.2814 13.3035 70.2814 13.3035C70.7668 14.4762 71.514 14.6346 71.5456 14.6407L71.811 14.6976L71.5103 15.9708L68.1394 15.9706ZM64.9562 7.65295H65.6708C67.0868 7.65295 67.6911 7.17515 67.6911 6.05582C67.6911 5.02432 66.9745 4.45617 65.6708 4.45617H64.9562V7.65295ZM56.1451 15.987L55.8128 14.8735L55.7639 14.6739L55.9566 14.5757C56.1564 14.4595 56.2696 14.2452 56.2486 14.023C56.2479 13.9373 56.2368 13.8519 56.2156 13.7686C56.2156 13.7686 55.9086 12.4684 55.7958 11.9931L55.7621 11.8511H52.7362L52.7025 11.9928C52.5895 12.4684 52.281 13.7699 52.281 13.7699C52.2617 13.853 52.2519 13.9378 52.2519 14.023C52.2309 14.2439 52.342 14.4573 52.5393 14.5749L52.7447 14.6789L52.3522 15.9873H48.5615L48.2666 14.5286C48.6647 14.4712 48.9492 14.1938 49.0971 13.7173C49.3522 12.8943 51.7144 4.4987 51.7303 4.43898L51.7332 4.42633C51.8493 4.12532 51.8071 3.78953 51.6199 3.52312C51.521 3.39149 51.3888 3.28582 51.2356 3.2159L51.6292 1.90677H56.8691L57.2604 3.21438C57.1158 3.27653 56.9899 3.37224 56.8941 3.49276C56.6866 3.76818 56.6398 4.12507 56.7696 4.44075C56.7946 4.52097 59.092 12.8664 59.3766 13.6563C59.6125 14.3097 59.9966 14.497 60.2543 14.56L59.9374 15.987H56.1451ZM53.3356 9.34877H55.1617L54.2592 5.46137L53.3356 9.34877ZM20.6997 15.987L20.3672 14.8735L20.3186 14.6739L20.511 14.5757C20.7108 14.4595 20.8241 14.2452 20.803 14.023C20.8023 13.9373 20.7913 13.8519 20.7701 13.7686C20.7701 13.7686 20.463 12.4684 20.3499 11.9931L20.3162 11.8511H17.2904L17.2567 11.9928C17.1436 12.4684 16.8352 13.7699 16.8352 13.7699C16.8159 13.853 16.8061 13.9378 16.806 14.023C16.785 14.2439 16.8961 14.4573 17.0935 14.5749L17.2989 14.6789L16.9066 15.9873H13.1161L12.8213 14.5286C13.2194 14.4712 13.5039 14.1938 13.6518 13.7173C13.9068 12.8943 16.2691 4.4987 16.285 4.43898L16.2879 4.42633C16.4041 4.12534 16.362 3.78949 16.1746 3.52312C16.0757 3.39149 15.9434 3.28582 15.7903 3.2159L16.1841 1.90677H21.4235L21.8145 3.21438C21.6699 3.27649 21.544 3.37221 21.4482 3.49276C21.2407 3.76815 21.1939 4.12508 21.3237 4.44075C21.3487 4.52097 23.6459 12.8664 23.9304 13.6563C24.1664 14.3097 24.5505 14.497 24.8085 14.56L24.4918 15.9878L20.6997 15.987ZM17.8903 9.34877H19.7164L18.8139 5.46137L17.8903 9.34877ZM78.8829 16.1045C78.8401 15.8954 78.6156 15.8683 78.4279 15.8683H78.008V16.9246H78.2188V16.4747H78.4263L78.6501 16.9246H78.8842L78.6376 16.4438C78.7974 16.4233 78.9095 16.2831 78.8879 16.1307C78.8867 16.1219 78.885 16.1131 78.8829 16.1045ZM78.394 16.3487H78.219V15.9984H78.3881C78.5208 15.9984 78.665 16.0108 78.6758 16.1644C78.6888 16.3297 78.5285 16.3487 78.3929 16.3487H78.394ZM78.4024 15.4816C77.863 15.4824 77.4263 15.8999 77.427 16.4142C77.4278 16.9286 77.8657 17.3449 78.4051 17.3442C78.9446 17.3435 79.3813 16.926 79.3805 16.4117C79.3805 16.4016 79.3803 16.3916 79.38 16.3816C79.3585 15.8808 78.9281 15.4846 78.4024 15.4816ZM78.394 17.2205C77.9249 17.2154 77.549 16.8487 77.5543 16.4015C77.5596 15.9543 77.9442 15.5959 78.4132 15.6009C78.8823 15.606 79.2582 15.9727 79.2529 16.4199C79.2529 16.4204 79.2529 16.421 79.2529 16.4215C79.2427 16.8669 78.8601 17.2224 78.3929 17.2205H78.394Z" fill="#535862"/>
</svg>
