<svg xmlns="http://www.w3.org/2000/svg" width="24" height="24" viewBox="0 0 24 24" fill="none">
  <defs>
    <symbol id="flag-united-states" viewBox="0 0 24 24">
      <path d="M12 24C18.6274 24 24 18.6274 24 12C24 5.37258 18.6274 0 12 0C5.37258 0 0 5.37258 0 12C0 18.6274 5.37258 24 12 24Z" fill="#F0F0F0"/>
      <path d="M11.4775 12H23.9993C23.9993 10.9169 23.8549 9.86768 23.5859 8.86957H11.4775V12Z" fill="#D80027"/>
      <path d="M11.4775 5.73855H22.238C21.5034 4.53986 20.5642 3.48034 19.4691 2.60809H11.4775V5.73855Z" fill="#D80027"/>
      <path d="M12.0001 24C14.8243 24 17.4201 23.0239 19.4699 21.3914H4.53027C6.58012 23.0239 9.17591 24 12.0001 24Z" fill="#D80027"/>
      <path d="M1.76098 18.2599H22.2384C22.8281 17.2976 23.2855 16.2457 23.5863 15.1295H0.413086C0.713883 16.2457 1.17124 17.2976 1.76098 18.2599Z" fill="#D80027"/>
      <path d="M5.55863 1.87397H6.65217L5.63498 2.61295L6.02353 3.80869L5.00639 3.0697L3.98925 3.80869L4.32487 2.7757C3.42928 3.52172 2.64431 4.39575 1.99744 5.36963H2.34783L1.70034 5.84002C1.59947 6.0083 1.50272 6.17925 1.41 6.35273L1.71919 7.30434L1.14234 6.88523C0.998953 7.18903 0.867797 7.49967 0.749906 7.81678L1.09055 8.86528H2.34783L1.33064 9.60427L1.71919 10.8L0.702047 10.061L0.0927656 10.5037C0.0317812 10.9939 0 11.4932 0 12H12C12 5.37262 12 4.59131 12 0C9.62944 0 7.41961 0.687656 5.55863 1.87397ZM6.02353 10.8L5.00639 10.061L3.98925 10.8L4.3778 9.60427L3.36061 8.86528H4.61789L5.00639 7.66955L5.39489 8.86528H6.65217L5.63498 9.60427L6.02353 10.8ZM5.63498 6.10861L6.02353 7.30434L5.00639 6.56536L3.98925 7.30434L4.3778 6.10861L3.36061 5.36963H4.61789L5.00639 4.17389L5.39489 5.36963H6.65217L5.63498 6.10861ZM10.3279 10.8L9.31073 10.061L8.29359 10.8L8.68214 9.60427L7.66495 8.86528H8.92223L9.31073 7.66955L9.69923 8.86528H10.9565L9.93933 9.60427L10.3279 10.8ZM9.93933 6.10861L10.3279 7.30434L9.31073 6.56536L8.29359 7.30434L8.68214 6.10861L7.66495 5.36963H8.92223L9.31073 4.17389L9.69923 5.36963H10.9565L9.93933 6.10861ZM9.93933 2.61295L10.3279 3.80869L9.31073 3.0697L8.29359 3.80869L8.68214 2.61295L7.66495 1.87397H8.92223L9.31073 0.678234L9.69923 1.87397H10.9565L9.93933 2.61295Z" fill="#0052B4"/>
    </symbol>

    <symbol id="flag-italy" viewBox="0 0 24 24">
      <path d="M12 24C18.6274 24 24 18.6274 24 12C24 5.37258 18.6274 0 12 0C5.37258 0 0 5.37258 0 12C0 18.6274 5.37258 24 12 24Z" fill="#F0F0F0"/>
      <path d="M23.9999 11.9992C23.9999 6.83958 20.7434 2.44106 16.1738 0.745544V23.2528C20.7434 21.5572 23.9999 17.1587 23.9999 11.9992Z" fill="#D80027"/>
      <path d="M0 11.9997C0 17.1593 3.2565 21.5578 7.82611 23.2533V0.746094C3.2565 2.44161 0 6.84013 0 11.9997Z" fill="#6DA544"/>
    </symbol>

    <symbol id="flag-ukraine" viewBox="0 0 24 24">
      <path d="M12 24C18.6274 24 24 18.6274 24 12C24 5.37258 18.6274 0 12 0C5.37258 0 0 5.37258 0 12C0 18.6274 5.37258 24 12 24Z" fill="#FFDA44"/>
      <path d="M0 12C0 5.37262 5.37262 0 12 0C18.6274 0 24 5.37262 24 12" fill="#338AF3"/>
    </symbol>

    <symbol id="flag-ireland" viewBox="0 0 24 24">
      <path d="M12 24C18.6274 24 24 18.6274 24 12C24 5.37258 18.6274 0 12 0C5.37258 0 0 5.37258 0 12C0 18.6274 5.37258 24 12 24Z" fill="#F0F0F0"/>
      <path d="M23.9999 11.9991C23.9999 6.83958 20.7434 2.44101 16.1738 0.745544V23.2528C20.7434 21.5572 23.9999 17.1587 23.9999 11.9991Z" fill="#FF9811"/>
      <path d="M0 11.9997C0 17.1593 3.2565 21.5578 7.82611 23.2533V0.746094C3.2565 2.44156 0 6.84013 0 11.9997Z" fill="#6DA544"/>
    </symbol>

    <symbol id="flag-brazil" viewBox="0 0 24 24">
      <path d="M12 24C18.6274 24 24 18.6274 24 12C24 5.37258 18.6274 0 12 0C5.37258 0 0 5.37258 0 12C0 18.6274 5.37258 24 12 24Z" fill="#6DA544"/>
      <path d="M11.9999 4.69611L21.913 12.0004L11.9999 19.3048L2.08691 12.0004L11.9999 4.69611Z" fill="#FFDA44"/>
      <path d="M12.0001 16.1738C14.3052 16.1738 16.174 14.3051 16.174 11.9999C16.174 9.69476 14.3052 7.82605 12.0001 7.82605C9.69489 7.82605 7.82617 9.69476 7.82617 11.9999C7.82617 14.3051 9.69489 16.1738 12.0001 16.1738Z" fill="#F0F0F0"/>
      <path d="M9.91276 11.7395C9.18694 11.7395 8.48649 11.8499 7.82715 12.0547C7.85635 14.3347 9.71279 16.1743 11.9997 16.1743C13.4138 16.1743 14.6628 15.4704 15.4178 14.3945C14.1261 12.7775 12.1385 11.7395 9.91276 11.7395Z" fill="#0052B4"/>
      <path d="M16.0962 12.7998C16.1464 12.5409 16.1735 12.2737 16.1735 12.0001C16.1735 9.69491 14.3048 7.82623 11.9997 7.82623C10.2796 7.82623 8.80306 8.86691 8.16406 10.3528C8.72891 10.2357 9.31372 10.1741 9.91273 10.1741C12.337 10.174 14.5301 11.1817 16.0962 12.7998Z" fill="#0052B4"/>
    </symbol>

    <symbol id="flag-poland" viewBox="0 0 24 24">
      <path d="M12 24C18.6274 24 24 18.6274 24 12C24 5.37258 18.6274 0 12 0C5.37258 0 0 5.37258 0 12C0 18.6274 5.37258 24 12 24Z" fill="#F0F0F0"/>
      <path d="M24 11.9996C24 18.627 18.6274 23.9996 12 23.9996C5.37262 23.9996 0 18.627 0 11.9996" fill="#D80027"/>
    </symbol>

    <symbol id="flag-united-kingdom" viewBox="0 0 24 24">
      <path d="M12 24C18.6274 24 24 18.6274 24 12C24 5.37258 18.6274 0 12 0C5.37258 0 0 5.37258 0 12C0 18.6274 5.37258 24 12 24Z" fill="#F0F0F0"/>
      <path d="M2.48032 4.69299C1.53771 5.91938 0.826945 7.3329 0.413086 8.86848H6.6558L2.48032 4.69299Z" fill="#0052B4"/>
      <path d="M23.5864 8.86861C23.1725 7.33308 22.4617 5.91957 21.5191 4.69318L17.3438 8.86861H23.5864Z" fill="#0052B4"/>
      <path d="M0.413086 15.1302C0.826992 16.6657 1.53776 18.0792 2.48032 19.3056L6.65567 15.1302H0.413086Z" fill="#0052B4"/>
      <path d="M19.3053 2.47976C18.0789 1.53715 16.6655 0.826382 15.1299 0.412476V6.65515L19.3053 2.47976Z" fill="#0052B4"/>
      <path d="M4.69336 21.5177C5.91975 22.4603 7.33327 23.1711 8.8688 23.585V17.3423L4.69336 21.5177Z" fill="#0052B4"/>
      <path d="M8.86875 0.412476C7.33322 0.826382 5.9197 1.53715 4.69336 2.47971L8.86875 6.6551V0.412476Z" fill="#0052B4"/>
      <path d="M15.1299 23.585C16.6654 23.1711 18.0789 22.4603 19.3053 21.5177L15.1299 17.3423V23.585Z" fill="#0052B4"/>
      <path d="M17.3438 15.1302L21.5191 19.3056C22.4617 18.0793 23.1725 16.6657 23.5864 15.1302H17.3438Z" fill="#0052B4"/>
      <path d="M23.8984 10.4348H13.5653H13.5653V0.101578C13.0529 0.034875 12.5305 0 12 0C11.4694 0 10.9471 0.034875 10.4348 0.101578V10.4347V10.4347H0.101578C0.034875 10.9471 0 11.4695 0 12C0 12.5306 0.034875 13.0529 0.101578 13.5652H10.4347H10.4347V23.8984C10.9471 23.9651 11.4694 24 12 24C12.5305 24 13.0529 23.9652 13.5652 23.8984V13.5653V13.5653H23.8984C23.9651 13.0529 24 12.5306 24 12C24 11.4695 23.9651 10.9471 23.8984 10.4348Z" fill="#D80027"/>
      <path d="M15.1309 15.1313L20.4857 20.4861C20.732 20.2399 20.9669 19.9825 21.191 19.7157L16.6066 15.1312H15.1309V15.1313Z" fill="#D80027"/>
      <path d="M8.86951 15.1312H8.86941L3.51465 20.486C3.76084 20.7323 4.01823 20.9672 4.28504 21.1914L8.86951 16.6068V15.1312Z" fill="#D80027"/>
      <path d="M8.86976 8.86911V8.86902L3.51495 3.51416C3.26866 3.76035 3.03373 4.01774 2.80957 4.28455L7.39409 8.86907H8.86976V8.86911Z" fill="#D80027"/>
      <path d="M15.1309 8.87017L20.4857 3.51526C20.2395 3.26898 19.9821 3.03405 19.7153 2.80994L15.1309 7.39445V8.87017Z" fill="#D80027"/>
    </symbol>

    <symbol id="flag-bulgaria" viewBox="0 0 24 24">
      <path d="M24 12.0006C24 10.5328 23.736 9.12669 23.2536 7.82676L12 7.30499L0.746391 7.82671C0.264047 9.12669 0 10.5328 0 12.0006C0 13.4685 0.264047 14.8746 0.746391 16.1745L12 16.6963L23.2536 16.1746C23.736 14.8746 24 13.4685 24 12.0006Z" fill="#496E2D"/>
      <path d="M11.9997 23.9999C17.1593 23.9999 21.5578 20.7434 23.2533 16.1738H0.746094C2.44161 20.7434 6.84012 23.9999 11.9997 23.9999Z" fill="#D80027"/>
      <path d="M0.746094 7.82538H23.2534C21.5578 3.25577 17.1593 -0.000732422 11.9997 -0.000732422C6.84012 -0.000732422 2.44161 3.25577 0.746094 7.82538Z" fill="#F0F0F0"/>
    </symbol>

    <symbol id="flag-spain" viewBox="0 0 24 24">
      <path d="M0 11.9993C0 13.4671 0.264047 14.8732 0.746391 16.1732L12 17.2167L23.2536 16.1732C23.736 14.8732 24 13.4671 24 11.9993C24 10.5315 23.736 9.12539 23.2536 7.82541L12 6.78192L0.746391 7.82541C0.264047 9.12539 0 10.5315 0 11.9993Z" fill="#FFDA44"/>
      <path d="M23.2553 7.82574C21.5597 3.25618 17.1612 -0.000366211 12.0017 -0.000366211C6.84208 -0.000366211 2.44356 3.25618 0.748047 7.82574H23.2553Z" fill="#D80027"/>
      <path d="M0.74707 16.174C2.44259 20.7435 6.8411 24.0001 12.0007 24.0001C17.1603 24.0001 21.5588 20.7435 23.2543 16.174H0.74707Z" fill="#D80027"/>
    </symbol>

    <symbol id="flag-germany" viewBox="0 0 24 24">
      <path d="M0.746094 16.1749C2.44161 20.7445 6.84012 24.001 11.9997 24.001C17.1593 24.001 21.5578 20.7445 23.2533 16.1749L11.9997 15.1315L0.746094 16.1749Z" fill="#FFDA44"/>
      <path d="M11.9997 0.000793457C6.84012 0.000793457 2.44161 3.25729 0.746094 7.8269L11.9997 8.87034L23.2533 7.82686C21.5578 3.25729 17.1593 0.000793457 11.9997 0.000793457Z" fill="black"/>
      <path d="M0.746391 7.82574C0.264047 9.12573 0 10.5318 0 11.9996C0 13.4675 0.264047 14.8735 0.746391 16.1735H23.2537C23.736 14.8735 24 13.4675 24 11.9996C24 10.5318 23.736 9.12573 23.2536 7.82574H0.746391Z" fill="#D80027"/>
    </symbol>

    <symbol id="flag-portugal" viewBox="0 0 24 24">
      <path d="M0 12.0007C0 17.1602 3.2565 21.5587 7.82602 23.2542L8.86955 12.0006L7.82602 0.74707C3.2565 2.44263 0 6.8411 0 12.0007Z" fill="#6DA544"/>
      <path d="M24.0002 11.9999C24.0002 5.37256 18.6275 -6.10352e-05 12.0002 -6.10352e-05C10.5323 -6.10352e-05 9.1262 0.263986 7.82617 0.74633V23.2535C9.1262 23.7359 10.5323 23.9999 12.0002 23.9999C18.6275 23.9999 24.0002 18.6273 24.0002 11.9999Z" fill="#D80027"/>
      <path d="M7.82623 16.1745C10.1314 16.1745 12.0001 14.3058 12.0001 12.0006C12.0001 9.69544 10.1314 7.82672 7.82623 7.82672C5.52106 7.82672 3.65234 9.69544 3.65234 12.0006C3.65234 14.3058 5.52106 16.1745 7.82623 16.1745Z" fill="#FFDA44"/>
      <path d="M5.47754 9.9126V12.5213C5.47754 13.8179 6.52866 14.8691 7.82537 14.8691C9.12207 14.8691 10.1732 13.818 10.1732 12.5213V9.9126H5.47754Z" fill="#D80027"/>
      <path d="M7.82657 13.3038C7.39504 13.3038 7.04395 12.9527 7.04395 12.5212V11.4777H8.60915V12.5212C8.60915 12.9527 8.25805 13.3038 7.82657 13.3038Z" fill="#F0F0F0"/>
    </symbol>

    <symbol id="flag-argentina" viewBox="0 0 24 24">
      <path d="M12 24C18.6274 24 24 18.6274 24 12C24 5.37258 18.6274 0 12 0C5.37258 0 0 5.37258 0 12C0 18.6274 5.37258 24 12 24Z" fill="#F0F0F0"/>
      <path d="M10.9565 11.9993C10.9565 11.9993 3.52168 20.4863 3.51465 20.4846C5.68618 22.6562 8.68623 23.9993 12 23.9993C18.6273 23.9993 24 18.6267 24 11.9993H10.9565Z" fill="#D80027"/>
      <path d="M3.51471 3.51459C-1.17157 8.20087 -1.17157 15.7989 3.51471 20.4852C5.45126 18.5487 7.31375 16.6862 12 11.9999L3.51471 3.51459Z" fill="#0052B4"/>
    </symbol>

    <symbol id="flag-czech-republic" viewBox="0 0 24 24">
      <path d="M12 24C18.6274 24 24 18.6274 24 12C24 5.37258 18.6274 0 12 0C5.37258 0 0 5.37258 0 12C0 18.6274 5.37258 24 12 24Z" fill="#F0F0F0"/>
      <path d="M12.0007 -0.000915527C7.24316 -0.000915527 3.13241 2.76776 1.19141 6.78171H22.8099C20.869 2.76776 16.7582 -0.000915527 12.0007 -0.000915527Z" fill="#338AF3"/>
      <path d="M12.0007 23.9988C16.7582 23.9988 20.869 21.2301 22.8101 17.2161H1.19141C3.13241 21.2301 7.24316 23.9988 12.0007 23.9988Z" fill="#338AF3"/>
      <path d="M15.5864 12L14.1208 12.6894L14.9012 14.1087L13.3098 13.8043L13.1082 15.4119L11.9997 14.2295L10.8912 15.4119L10.6896 13.8043L9.09821 14.1087L9.87859 12.6894L8.41309 12L9.87863 11.3106L9.09821 9.89135L10.6896 10.1958L10.8913 8.58813L11.9997 9.77051L13.1082 8.58813L13.3098 10.1958L14.9013 9.89135L14.1209 11.3107L15.5864 12Z" fill="#FFDA44"/>
    </symbol>

    <symbol id="flag-norway" viewBox="0 0 24 24">
      <path d="M12 24C18.6274 24 24 18.6274 24 12C24 5.37258 18.6274 0 12 0C5.37258 0 0 5.37258 0 12C0 18.6274 5.37258 24 12 24Z" fill="#F0F0F0"/>
      <path d="M0.413086 15.131C1.1074 17.7072 2.63763 19.94 4.69535 21.5211V15.131H0.413086Z" fill="#D80027"/>
      <path d="M10.9561 23.9549C11.3 23.9845 11.6479 24.0005 11.9995 24.0005C17.5439 24.0005 22.2091 20.2402 23.5861 15.131H10.9561V23.9549Z" fill="#D80027"/>
      <path d="M23.5861 8.87004C22.2091 3.76085 17.5439 0.000488281 11.9995 0.000488281C11.6479 0.000488281 11.3 0.0165195 10.9561 0.0461445V8.87004H23.5861Z" fill="#D80027"/>
      <path d="M4.69535 2.48029C2.63763 4.06138 1.1074 6.29418 0.413086 8.87038H4.69535V2.48029Z" fill="#D80027"/>
      <path d="M23.8984 10.4343H9.39136H9.39131V0.284729C8.28234 0.530635 7.23098 0.929213 6.26086 1.45857V10.4342V10.4342H0.101578C0.0347813 10.9466 0 11.469 0 11.9995C0 12.53 0.0347813 13.0524 0.101578 13.5647H6.26081H6.26086V22.5404C7.23098 23.0697 8.28234 23.4684 9.39131 23.7142V13.5648V13.5647H23.8984C23.9651 13.0524 24 12.53 24 11.9995C24 11.469 23.9651 10.9466 23.8984 10.4343Z" fill="#0052B4"/>
    </symbol>

    <symbol id="flag-greece" viewBox="0 0 24 24">
      <path d="M12 24C18.6274 24 24 18.6274 24 12C24 5.37258 18.6274 0 12 0C5.37258 0 0 5.37258 0 12C0 18.6274 5.37258 24 12 24Z" fill="#F0F0F0"/>
      <path d="M12 8.87002H23.5866C23.2857 7.75373 22.8284 6.70181 22.2387 5.73956H12V8.87002Z" fill="#338AF3"/>
      <path d="M4.53058 21.3914H19.4702C20.5654 20.5191 21.5046 19.4597 22.2391 18.2609H1.76172C2.4963 19.4596 3.43548 20.5191 4.53058 21.3914Z" fill="#338AF3"/>
      <path d="M4.17433 2.90375C3.23092 3.71614 2.41534 4.67281 1.76172 5.7395H4.17433V2.90375Z" fill="#338AF3"/>
      <path d="M12 12C12 10.7776 12 9.75469 12 8.86951H7.30434V12H4.17389V8.86951H0.413391C0.144375 9.86766 0 10.9168 0 12C0 13.0831 0.144375 14.1323 0.413391 15.1304H23.5867C23.8556 14.1323 24 13.0831 24 12H12Z" fill="#338AF3"/>
      <path d="M12.0003 0.000671387C10.334 0.000671387 8.74703 0.340656 7.30469 0.954484V5.73981H12.0003C12.0003 4.64706 12.0003 3.71767 12.0003 2.60936H19.4702C17.4203 0.976796 14.8245 0.000671387 12.0003 0.000671387Z" fill="#338AF3"/>
    </symbol>
  </defs>
</svg>