<svg width="74" height="45" viewBox="0 0 74 45" fill="none" xmlns="http://www.w3.org/2000/svg">
<g clip-path="url(#clip0_1367_2163)">
<path d="M3.51376 10.5985C3.07752 9.92898 3.03185 9.41497 3.19628 8.87167L3.13233 8.77248C3.13233 8.77248 2.28045 9.29661 1.52563 9.78918C0.803925 10.2604 0 10.8172 0 10.8172L0.0639491 10.9175C0.626924 10.9851 1.08027 11.2331 1.51649 11.9027L7.04919 20.3397C7.72292 21.3734 7.66925 22.2977 6.76714 22.8872C5.93807 23.4294 4.81213 22.9684 4.28113 22.1534C3.74099 21.3238 3.76382 20.6091 4.34622 20.2293C4.43414 20.1718 4.54491 20.1199 4.63626 20.1019C4.59402 20.005 4.57002 19.9373 4.50382 19.8359C4.05844 19.1517 3.29906 19.048 2.71667 19.4278C1.91617 19.9509 1.71176 21.299 2.59448 22.6527C3.75468 24.4326 5.83988 24.7054 7.40432 23.6841C9.52832 22.2977 9.73617 20.2214 8.58966 18.4618L3.51376 10.5974V10.5985Z" fill="#535862"/>
<path d="M10.3908 21.449L10.3326 21.3453C10.4273 20.74 10.3771 20.4875 10.167 19.7267L7.82147 11.4305C7.62848 10.7779 7.5017 10.4792 7.14771 10.1872L7.0929 10.079C7.58166 9.79834 9.04217 9.07468 9.46243 8.88643L9.51725 8.99466C9.54806 9.45906 9.72847 9.73635 10.135 10.2672L15.4816 17.1262C15.8721 17.6199 16.1325 17.9198 16.6224 18.1779L16.6715 18.2884C15.8515 18.6367 14.8387 19.0943 13.932 19.5271L13.8783 19.419C14.0073 18.8768 13.8623 18.569 13.5494 18.1509L12.8288 17.2277C12.444 17.3979 11.269 17.9885 10.8898 18.205L11.2302 19.3423C11.3775 19.8292 11.535 20.1764 12.0809 20.3489L12.138 20.4571C11.5533 20.7761 10.9035 21.1436 10.3897 21.449H10.3908ZM10.5975 17.1939C11.0394 16.9515 11.728 16.6032 12.1837 16.3902L9.22488 12.525L10.5964 17.1939H10.5975Z" fill="#535862"/>
<path d="M17.3159 5.63322L18.4624 8.72285L18.3516 8.76794C16.8648 7.27443 15.9592 6.86299 15.4111 7.09857C14.9383 7.3026 14.7933 7.92706 15.2855 9.25488L17.3364 14.7658C17.9279 16.3585 18.5983 17.1036 19.3382 16.8364C20.1867 16.5298 20.1193 15.3959 19.5723 14.0004C19.3896 13.5349 19.3245 13.3951 19.2172 13.1843C19.2766 13.1437 19.3496 13.1054 19.4193 13.0795C19.9183 12.8991 20.3625 12.9803 20.68 13.7919C21.3183 15.4218 21.0226 17.0055 19.5849 17.5251C17.5477 18.2612 15.5561 16.8634 14.0728 12.8664C12.7961 9.42511 13.1752 7.07491 15.0285 6.38958C15.8496 6.092 16.2847 6.32645 16.6935 6.17203C16.9516 6.07507 17.0749 5.90038 17.1971 5.67606L17.3136 5.63436L17.3159 5.63322Z" fill="#535862"/>
<path d="M28.7407 14.7896C28.4072 14.6093 28.1685 14.3838 27.9367 13.9577L25.1995 8.7546L25.1299 8.7411C25.051 8.79407 24.9563 8.8279 24.8603 8.85043C24.5623 8.91919 24.2334 8.85493 23.9114 8.7535L24.7861 5.89603C25.236 4.53215 25.4165 4.27626 25.6414 3.86598L25.6209 3.75099C25.0408 3.85132 24.2368 4.00348 23.5951 4.1365L23.6179 4.25373C23.707 4.40252 23.7869 4.57384 23.8383 4.85339C23.9045 5.21184 23.8475 5.69655 23.691 6.20942L22.6313 9.67442L21.7257 6.04259C21.551 5.32793 21.6469 5.07995 21.8217 4.65387L21.7931 4.53665C20.9446 4.7373 19.7422 5.05515 18.8972 5.3009L18.9257 5.417C19.2968 5.71794 19.5001 5.90393 19.6748 6.61746L21.8707 15.0782C22.0158 15.6328 21.9861 15.8841 21.7451 16.3575L21.7748 16.468C22.7227 16.1851 23.6636 15.9281 24.6354 15.7038L24.6068 15.5877C24.1386 15.3048 24.005 15.1289 23.8417 14.5349L23.0823 11.4892L23.4992 10.1456L25.7339 14.3838C25.9497 14.7885 26.2136 15.1481 26.4636 15.3059C27.2835 15.1469 27.9447 15.032 28.7543 14.9091L28.7384 14.7908L28.7407 14.7896Z" fill="#535862"/>
<path d="M31.569 0.0232061C32.5499 -0.0263905 33.6906 -0.0680967 34.7823 0.704033C36.3605 1.8301 37.0766 4.38093 37.2033 6.6139C37.4008 10.1015 36.6244 14.2777 32.9405 14.4659C32.9405 14.4659 31.939 14.546 31.6261 14.5708C31.2196 14.6035 30.0639 14.7173 30.0639 14.7173L30.0514 14.5978C30.3037 14.3882 30.6566 13.9722 30.6063 13.0806L29.9132 1.8549C29.8595 0.906928 29.5181 0.53608 29.1915 0.303877L29.1835 0.184395C29.5752 0.148325 30.6874 0.0682941 31.5678 0.0243335L31.569 0.0232061ZM34.7859 6.98475C34.595 3.61897 33.9624 0.846058 32.446 0.920454C32.2724 0.92947 32.1913 1.03881 32.2028 1.24847L32.8822 13.2756C32.8937 13.4684 32.9667 13.5349 33.1232 13.527C34.5803 13.4548 35.0063 10.8758 34.7859 6.98475Z" fill="#535862"/>
<path d="M36.8543 14.3364L36.8622 14.2192C37.2197 13.8134 37.352 13.4719 37.5724 12.7505L39.9499 4.46332C40.128 3.80166 40.1761 3.47251 40.0288 3.04081L40.0389 2.93485C40.6044 2.94725 41.0461 2.98332 41.5065 3.02052C41.8811 3.05096 42.2557 3.08252 42.7134 3.13662L42.7033 3.24259C42.4793 3.64387 42.4714 3.97188 42.5399 4.65834L43.4832 13.2622C43.5814 14.0794 43.66 14.3939 43.9 14.7524L43.8827 14.8719C42.8824 14.7264 41.8375 14.6081 40.8909 14.5201L40.9024 14.3995C41.2986 14.0028 41.3477 13.6669 41.293 13.1427L41.165 11.9851C40.7459 11.9321 39.4315 11.8318 38.9941 11.8217L38.6847 12.9669C38.5671 13.4008 38.4941 13.8641 38.8445 14.2643L38.8379 14.386C38.1516 14.3533 37.4548 14.3376 36.8553 14.3331L36.8543 14.3364ZM39.2773 10.8117C39.7832 10.832 40.554 10.8895 41.0553 10.9413L40.57 6.12029L39.2763 10.8106L39.2773 10.8117Z" fill="#535862"/>
<path d="M48.8639 4.01478L48.8377 4.13201C48.6161 4.34843 48.5954 4.64601 48.695 5.22991L49.6131 11.5061L51.0394 5.86114C51.174 5.32684 51.246 5.07772 50.9661 4.59641L50.9972 4.47919C51.5188 4.59868 52.2977 4.79253 52.7876 4.93006L52.7555 5.04615C52.2954 5.34374 52.2532 5.59285 52.098 6.13842L49.9327 14.6352C49.7853 15.3081 49.7752 15.5696 49.8904 15.9991L49.8574 16.1163C49.1655 15.9304 48.5797 15.7861 47.8751 15.6215L47.8967 15.52C47.9514 15.2676 47.9674 14.9903 47.915 14.5912L46.9088 7.72663L45.752 13.836C45.678 14.243 45.6597 14.6352 45.9236 15.0962L45.9007 15.2078C45.3034 15.0962 44.7425 15.0038 44.1351 14.9091L44.1545 14.7964C44.4914 14.4639 44.552 14.1956 44.6525 13.6715L46.2671 5.06419C46.3915 4.33379 46.3244 4.07904 46.138 3.65297L46.1642 3.53461C46.957 3.64957 48.0781 3.84796 48.8649 4.01365L48.8639 4.01478Z" fill="#535862"/>
<path d="M50.5155 16.2987L50.5532 16.1837C51.0067 15.8929 51.1619 15.743 51.3528 15.1534L53.9951 6.83812C54.2234 6.13363 54.172 5.84845 54.0282 5.4066L54.0659 5.29161C54.8137 5.5058 56.2914 5.97357 56.9607 6.20916L56.9231 6.32412C56.5462 6.60254 56.3065 6.78739 56.0779 7.49188L53.3341 15.7892C53.1432 16.3787 53.1821 16.5895 53.4139 17.0956L53.374 17.2083C52.522 16.9152 51.3446 16.5388 50.5155 16.2987Z" fill="#535862"/>
<path d="M62.2193 10.5908C61.886 9.63609 61.5536 9.04882 60.9128 8.76931L60.4836 8.58105C60.1866 8.45142 60.1411 8.51905 60.0369 8.77381L58.7557 11.8623C58.7557 11.8623 59.0081 11.9705 59.1863 12.0393C59.8726 12.3008 60.4243 11.8127 60.6984 11.5794L60.7805 11.6154L59.5802 14.4954L59.5094 14.4661C59.4649 13.995 59.5095 13.242 58.7901 12.9275C58.6198 12.8531 58.3824 12.7607 58.3824 12.7607L56.5825 17.1015C56.4787 17.3574 56.5963 17.4408 57.2266 17.7012C57.7099 17.9007 58.0763 17.8612 59.537 17.1184L59.6306 17.1669L58.332 19.2522C56.964 18.595 55.3792 17.9356 53.7964 17.3608L53.8396 17.2481C54.3101 16.9956 54.4722 16.8648 54.7053 16.2888L57.9496 8.13918C58.2282 7.45162 58.186 7.19233 58.0923 6.74259L58.1378 6.631C59.7445 7.2115 61.5114 7.95545 62.8781 8.59572L62.7743 8.85157L62.2982 10.6258L62.2193 10.592V10.5908Z" fill="#535862"/>
<path d="M64.954 19.216L62.9714 21.7646C61.8113 21.0432 60.1555 20.1336 58.7475 19.4505L58.8035 19.3445C59.3071 19.1518 59.4954 19.0345 59.7969 18.4924L64.0231 10.8151C64.383 10.168 64.3728 9.90541 64.3191 9.441L64.3774 9.33617C65.067 9.66642 66.5653 10.4566 67.063 10.7542L67.0047 10.859C66.5823 11.0574 66.3243 11.1701 65.9484 11.8476L61.6286 19.4775C61.4606 19.7785 61.5133 19.854 61.8843 20.0614C62.4953 20.403 62.9704 20.1831 64.8581 19.1473L64.955 19.2171L64.954 19.216Z" fill="#535862"/>
<path d="M69.4676 9.21227C69.6559 9.21227 69.8137 9.27087 69.9634 9.34527C70.4496 9.60679 70.5717 10.0306 70.5606 10.3845C70.5249 11.4464 69.3933 12.241 67.9467 12.2557C67.7057 12.2489 67.4431 12.2174 67.4431 12.2174L67.4523 12.0517C67.9284 11.9671 68.5564 11.7304 68.9241 11.2322C68.5724 11.0383 68.336 10.6551 68.3635 10.2335C68.3851 9.63835 68.8956 9.19198 69.4689 9.21227H69.4676Z" fill="#535862"/>
<path d="M72.0861 17.9897C72.133 15.6531 72.093 14.6375 71.4467 14.1776C71.0138 13.8698 70.3949 13.9172 70.0282 14.4199C69.4686 15.1875 69.7109 16.3125 69.9883 17.9514C70.2954 19.7076 70.5502 21.6249 69.5783 22.9573C68.73 24.1206 67.0456 24.7506 65.4618 23.6246C64.6714 23.0632 64.5869 22.4929 64.0755 22.1232C63.8846 21.9879 63.6803 22.0059 63.4724 22.228L63.2533 22.0691L65.2883 19.4157L65.3839 19.4878C64.9946 20.9757 65.0712 22.4185 65.9035 23.0103C66.543 23.4645 67.3174 23.3349 67.6828 22.8344C68.2732 22.0251 68.1658 20.642 67.9124 18.9997C67.507 16.6867 67.4225 15.316 68.2823 14.137C69.1877 12.8948 70.7168 12.684 71.9663 13.5723C72.6035 14.0322 72.9093 14.7367 73.3399 15.0421C73.5226 15.1718 73.7443 15.1594 73.8985 15.0759L74 15.1391L72.1706 18.0405L72.0884 17.992L72.0861 17.9897Z" fill="#535862"/>
<path d="M68.5332 24.6411C68.3187 24.6411 68.1337 24.7155 67.9827 24.8654C67.8298 25.0142 67.7532 25.1945 67.7532 25.4053C67.7532 25.6161 67.8298 25.7965 67.9818 25.9453C68.1337 26.094 68.3174 26.1684 68.5345 26.1684C68.7512 26.1684 68.9329 26.094 69.0849 25.9453C69.2378 25.7965 69.3131 25.6161 69.3131 25.4065C69.3131 25.1968 69.2368 25.0153 69.0849 24.8665C68.9316 24.7166 68.7489 24.6422 68.5354 24.6422L68.5332 24.6411ZM68.5332 24.4889C68.6998 24.4889 68.8563 24.5306 69.0004 24.6118C69.1455 24.6941 69.2584 24.8057 69.3429 24.9477C69.4264 25.0886 69.4686 25.2408 69.4686 25.4053C69.4686 25.5699 69.4274 25.7221 69.3429 25.863C69.2594 26.0039 69.1455 26.1143 69.0004 26.1966C68.8563 26.2789 68.6998 26.3195 68.5322 26.3195C68.3642 26.3195 68.2067 26.2789 68.0626 26.1977C67.9176 26.1166 67.8036 26.005 67.7201 25.8641C67.6357 25.7221 67.5947 25.5699 67.5947 25.4053C67.5947 25.2408 67.637 25.0875 67.7201 24.9466C67.8046 24.8057 67.9189 24.6941 68.0639 24.6129C68.2077 24.5306 68.3642 24.49 68.5322 24.49L68.5332 24.4889ZM68.1713 24.9285H68.5675C68.6245 24.9285 68.6805 24.933 68.724 24.9432C68.8691 24.9781 68.9431 25.0717 68.9431 25.216C68.9431 25.3456 68.8737 25.438 68.7502 25.4842L68.9912 25.8765H68.8026L68.5823 25.5124H68.3321V25.8765H68.17V24.9285H68.1713ZM68.5528 25.376C68.6085 25.376 68.653 25.3715 68.691 25.3557C68.7502 25.3298 68.7787 25.2825 68.7787 25.216C68.7787 25.1495 68.7502 25.1044 68.6874 25.0818C68.6589 25.0706 68.6176 25.066 68.5607 25.066H68.3334V25.376H68.5528Z" fill="#535862"/>
<path d="M60.9714 26.6611C60.9714 25.3119 60.0657 23.7924 57.8915 23.7924C57.8572 23.7924 57.8231 23.7947 57.7887 23.7958C57.4816 23.0767 57.0441 22.6404 56.3087 22.6404C55.2 22.6404 54.7328 23.8804 54.5593 24.8114C54.0272 24.9726 53.5098 25.0572 53.1696 25.056C51.6864 25.0515 50.7944 24.2039 50.7797 23.0045C50.7797 22.9978 50.7797 22.991 50.7797 22.9854C52.0986 22.8929 53.4185 22.2628 53.4185 21.4287C53.4185 21.0624 53.1172 20.8719 52.6523 20.8753C51.8347 20.8798 50.9064 21.4749 50.6484 22.4421C50.5341 22.4421 50.4198 22.4398 50.3079 22.4353C49.7037 22.3936 49.0872 22.2944 48.5515 22.0453C48.2925 21.9213 48.0571 21.7488 47.9042 21.5178C48.7525 21.3498 49.6078 20.82 49.5898 20.2237C49.5783 19.8721 49.2997 19.6658 48.8554 19.6658C48.0479 19.6658 47.4942 20.2835 47.4942 20.9959C47.4942 21.0173 47.4965 21.0387 47.4975 21.0613C47.2477 21.0782 46.9939 21.0861 46.7464 21.0703C46.4425 21.0556 46.1422 21.0083 45.8508 20.935C45.5611 20.8595 45.2788 20.7434 45.047 20.5709C44.9615 20.5078 44.8826 20.4345 44.8174 20.3534C44.8266 20.3511 44.8345 20.35 44.8436 20.3466C45.5597 20.1482 46.0532 19.7402 46.0532 19.2622C46.0532 18.9534 45.8531 18.7877 45.5198 18.7877C44.9304 18.7877 44.4157 19.2532 44.4065 19.9386C44.4065 19.9656 44.4088 19.9938 44.4111 20.0209C44.3355 20.0254 44.2602 20.0333 44.1848 20.0355C43.1583 20.0513 42.2572 19.8506 41.9134 19.4697C42.3863 19.3028 42.8407 18.9996 42.8407 18.5871C42.8407 18.3402 42.6662 18.2072 42.3738 18.2072C41.9377 18.2072 41.5448 18.5329 41.5448 19.0402C41.5448 19.0954 41.5493 19.1518 41.5572 19.207C41.0366 19.2961 40.4907 19.322 39.9724 19.2431C39.3752 19.1484 38.7868 18.9016 38.3952 18.4225L38.3028 18.2951L38.2616 18.4439C38.1293 18.9185 37.7626 19.2544 37.1368 19.2701C36.9849 19.2735 36.8549 19.2566 36.7086 19.225C36.944 19.0695 37.1562 18.8215 37.1562 18.4856C37.1562 18.0776 36.8559 17.8577 36.4905 17.8577C36.1251 17.8577 35.8477 18.1328 35.8477 18.5014C35.8477 18.8362 36.0245 19.0796 36.2826 19.2363C36.1617 19.2611 36.0213 19.2746 35.8988 19.2746C35.2469 19.2746 34.8507 18.9602 34.707 18.516L34.6758 18.4045L34.5845 18.4901C33.7659 19.2589 32.5828 19.3851 31.5139 19.2352C31.4237 19.2205 31.3346 19.2002 31.2456 19.1788C31.2684 19.0898 31.2821 18.994 31.2821 18.9117C31.2821 18.445 30.9407 18.188 30.5924 18.188C30.3572 18.188 30.1996 18.338 30.1996 18.5487C30.1996 18.9444 30.5924 19.2149 30.9213 19.3671C30.6358 19.6545 30.1345 19.7819 29.6514 19.8416C29.2061 19.8969 28.8738 19.9149 28.4672 19.8777C28.4741 19.8292 28.4787 19.7796 28.4787 19.7289C28.4787 19.2386 28.095 18.7325 27.476 18.7325C27.1574 18.7325 26.9496 18.8982 26.9496 19.1991C26.9496 19.6782 27.5217 20.0321 28.0767 20.2023C27.7821 20.5585 27.0992 20.9125 26.1445 20.9643C25.9927 20.9722 25.8408 20.9722 25.6866 20.9666C25.6695 20.2102 25.0232 19.5824 24.2466 19.5824C23.8024 19.5824 23.5352 19.8225 23.5352 20.1539C23.5352 20.8166 24.4773 21.2856 25.2858 21.4253C24.901 21.9776 23.9349 22.4522 22.3784 22.4916C22.3282 22.4928 22.2791 22.4939 22.23 22.4939C22.0039 21.7263 21.2913 20.9722 20.2841 20.9722C19.8296 20.9722 19.5327 21.1943 19.5327 21.5504C19.5327 22.3542 20.7101 22.9606 22.1089 23.0553C22.1089 23.0767 22.1124 23.0969 22.1124 23.1184C22.1284 24.258 21.434 25.0391 20.0455 25.0391C19.3169 25.0391 18.7985 24.8937 18.3565 24.7483C18.1727 23.7688 17.7696 22.5536 16.5808 22.5536C15.9334 22.5536 15.3829 23.0023 15.0426 23.8939C14.917 23.8916 14.7914 23.8939 14.6658 23.9029C13.2121 24.0077 12.1627 24.9084 12.1627 26.8021C12.1627 27.9687 12.7062 29.4442 13.8151 30.5128C13.4953 30.8374 13.3194 31.3176 13.3194 31.897C13.3194 33.4648 14.5447 35.1343 15.7198 35.956C15.6821 36.0618 15.649 36.1985 15.649 36.3561C15.649 37.7582 17.3939 38.97 19.1148 39.4527C19.1079 39.4705 19.1011 39.4886 19.0954 39.509C19.0691 39.6013 19.0588 39.6971 19.0622 39.793C19.0988 40.6936 20.3264 41.5548 22.6217 41.6933C22.9174 41.7114 23.2109 41.7137 23.5044 41.7069C23.4964 41.761 23.4895 41.8196 23.4895 41.894C23.4895 42.6458 24.1667 43.3188 25.545 43.3188C26.7612 43.3188 27.8392 42.8646 28.9685 42.8025C29.246 42.7879 29.5829 42.8024 29.825 42.8983C29.8661 42.9141 29.8752 42.931 29.8752 42.9436C29.8752 42.9559 29.8604 42.9637 29.8376 42.9672C28.8624 43.1476 28.0698 43.3719 28.0698 43.9928C28.0698 44.4234 28.4832 44.6882 29.0485 44.685C29.3374 44.6837 29.6103 44.6073 29.8593 44.517C30.4234 44.3153 30.9167 44.0391 31.4351 43.8248C31.949 43.6018 32.4869 43.4373 33.0442 43.3651C33.6002 43.3007 34.1745 43.3256 34.7354 43.4001C35.0151 43.4383 35.3039 43.4969 35.5563 43.5713C35.6228 43.5904 35.7436 43.6332 35.795 43.6581C35.8009 43.6604 35.7996 43.6672 35.7927 43.6672C35.7675 43.6672 35.7449 43.6594 35.7096 43.6558C35.6559 43.649 35.5164 43.6244 35.4594 43.6154C34.8952 43.525 34.3173 43.4574 33.7397 43.4609C33.4142 43.4596 33.0852 43.4823 32.7633 43.5681C32.6034 43.6131 32.4412 43.6704 32.2973 43.7821C32.2265 43.8375 32.1591 43.9129 32.1249 44.011C32.094 44.1113 32.0975 44.2195 32.1306 44.3153C32.2014 44.5102 32.3556 44.6423 32.5097 44.7404C32.6662 44.8404 32.8373 44.9026 33.0089 44.9443C33.3537 45.021 33.6975 45.0052 34.0295 44.9644C34.7034 44.8789 35.2973 44.5937 35.9116 44.4574C36.2187 44.3852 36.534 44.3639 36.8435 44.4076C37.1552 44.4539 37.46 44.5419 37.7649 44.6423C38.0697 44.7413 38.3758 44.8485 38.7013 44.9239C38.8657 44.9566 39.0324 44.9926 39.2141 44.9971C39.3863 45.0039 39.552 44.9984 39.7223 44.9793C40.0579 44.933 40.4063 44.8417 40.7055 44.5937C40.7786 44.5283 40.8447 44.4483 40.8869 44.3512C40.9167 44.2826 40.9269 44.2127 40.9269 44.1418C40.9269 43.5872 40.0281 43.4528 39.2426 43.4528C39.0153 43.4528 38.7825 43.4642 38.5815 43.4755C38.2593 43.4959 37.9292 43.5441 37.6119 43.5781C37.533 43.5859 37.2383 43.6267 37.1529 43.6186C37.1506 43.6186 37.1493 43.6141 37.1529 43.6131C37.2203 43.5895 37.3778 43.5522 37.4531 43.5331C38.0664 43.392 38.7468 43.3266 39.3817 43.3088C40.0179 43.2884 40.6541 43.3492 41.2478 43.5432C41.5448 43.6367 41.8313 43.7562 42.1089 43.8938C42.3863 44.0333 42.657 44.189 42.9494 44.3389C43.2382 44.482 43.5958 44.6423 43.9792 44.6445C44.492 44.6455 44.8679 44.358 44.8679 43.9637C44.8679 43.6267 44.6347 43.4192 44.2376 43.2748C43.9475 43.1699 43.5843 43.1294 43.2759 43.0699C43.2084 43.0563 43.1639 43.044 43.1639 43.0304C43.1639 43.009 43.2346 42.9659 43.3067 42.9391C43.4439 42.885 43.5991 42.8578 43.752 42.8465C44.0581 42.8319 44.3823 42.8724 44.693 42.92C45.3165 43.0213 45.9366 43.2162 46.5954 43.2929C46.9268 43.3301 47.2454 43.357 47.6003 43.3347C47.9464 43.3065 48.2971 43.2253 48.6144 43.054C48.9297 42.886 49.2221 42.6189 49.3626 42.2738C49.432 42.1025 49.4627 41.9199 49.4549 41.7451C49.4549 41.7396 49.4539 41.7341 49.4539 41.7283C50.5328 41.7577 51.6042 41.5829 52.3465 41.3181C53.2908 40.9688 53.9748 40.3317 53.9748 39.6703C53.9748 39.5268 53.9404 39.3983 53.8821 39.2824C54.203 39.1821 54.5239 39.0613 54.83 38.924C55.1326 38.7919 55.4227 38.633 55.7046 38.4585C55.9869 38.2837 56.2609 38.0898 56.5075 37.8586C56.7531 37.6265 56.9767 37.3604 57.1401 37.047C57.2681 36.7958 57.3572 36.5814 57.3572 36.2075C57.3572 36.0868 57.3343 35.9705 57.2897 35.8624C58.6705 34.8096 59.6089 33.0973 59.6089 31.7267C59.6089 31.1688 59.4547 30.7653 59.2059 30.4914C60.1901 29.5276 60.9645 28.2032 60.9645 26.6657L60.9714 26.6611ZM59.6777 24.4642C60.1469 24.8249 60.3375 25.419 60.3489 26.0795C60.3663 27.1256 60.0978 28.9167 58.9488 30.2637C58.7023 30.1081 58.4053 30.0337 58.0844 30.0292C58.2671 28.8704 58.3336 27.6948 58.3061 26.5236C58.274 25.7076 58.1555 24.8554 57.919 24.1464C58.0959 24.1103 58.2832 24.0912 58.4603 24.0923C58.9148 24.0979 59.3853 24.2366 59.6764 24.4631L59.6777 24.4642ZM58.0572 30.2062C58.3676 30.2197 58.6109 30.3009 58.789 30.444C58.4898 30.7574 58.1794 30.9806 57.8837 31.0933C57.9498 30.7991 58.0081 30.5038 58.0582 30.2062H58.0572ZM57.6758 31.1553C57.6005 31.171 57.5271 31.1812 57.4554 31.1801C57.1401 31.1744 57.0134 31.0392 57.0134 30.8464C57.0134 30.6007 57.3182 30.2501 57.864 30.2084C57.8103 30.5263 57.7488 30.8419 57.6758 31.1553ZM56.3078 22.7859C56.8788 22.7859 57.3035 23.0969 57.6129 23.8082C56.721 23.8928 55.7891 24.3515 55.0664 24.6356C54.9761 24.6717 54.8847 24.7055 54.7934 24.737C55.016 23.3359 55.6306 22.7859 56.3078 22.7859ZM51.5285 21.4625C51.7718 21.2766 52.0564 21.1424 52.3566 21.0827C52.4548 21.0646 52.5577 21.0511 52.6569 21.0489C53.0383 21.041 53.2187 21.2067 53.2187 21.4073C53.2187 21.9123 52.4673 22.4116 50.8596 22.441C50.9703 22.0566 51.1965 21.7139 51.5298 21.4625H51.5285ZM48.8452 19.8089C49.19 19.8089 49.4002 19.9622 49.3956 20.2125C49.391 20.4762 49.0941 20.9203 47.7316 21.041C47.727 21.0038 47.7224 20.9654 47.7224 20.9282C47.7224 20.2947 48.2057 19.8101 48.8452 19.8101V19.8089ZM45.5129 18.9252C45.7287 18.9275 45.8737 19.0278 45.8737 19.2296C45.8737 19.5903 45.377 19.9104 44.6498 20.0006C44.6416 19.9589 44.6361 19.9171 44.6361 19.8743C44.6361 19.3344 45.0106 18.9218 45.5142 18.9252H45.5129ZM41.7239 18.9962C41.7239 18.56 42.0359 18.3368 42.3817 18.3368C42.5667 18.3368 42.6731 18.4191 42.6731 18.5476C42.6731 18.7494 42.4491 19.0086 41.8005 19.1574C41.7835 19.1608 41.7674 19.1642 41.7504 19.1676C41.7353 19.1123 41.7252 19.0548 41.7252 18.9962H41.7239ZM36.0213 18.4924C36.0213 18.1959 36.2256 18.0111 36.4882 18.0099C36.7531 18.0099 36.9793 18.1903 36.9793 18.4833C36.9793 18.7482 36.8068 19.0064 36.4997 19.1552C36.1971 19.0255 36.0213 18.7798 36.0213 18.4924ZM30.3583 18.5115C30.3583 18.3797 30.4417 18.303 30.5935 18.303C30.8436 18.303 31.1222 18.5251 31.1222 18.8587C31.1245 18.9545 31.112 19.0447 31.0789 19.1304C30.5364 18.9636 30.3583 18.7201 30.3583 18.5127V18.5115ZM27.1221 19.1574C27.1221 18.9489 27.2728 18.8587 27.4532 18.8587C27.8655 18.8587 28.2937 19.1867 28.272 19.7323C28.272 19.7717 28.2651 19.8101 28.2571 19.8473C27.5583 19.7503 27.1232 19.4821 27.1232 19.1563L27.1221 19.1574ZM23.7225 20.1189C23.7225 19.8721 23.9326 19.7188 24.2649 19.7188C24.9101 19.7188 25.4491 20.3184 25.4491 20.9136C25.4491 20.926 25.448 20.9361 25.4468 20.9485C24.4305 20.8696 23.7225 20.545 23.7225 20.1189ZM19.7303 21.5245C19.728 21.2822 19.9199 21.112 20.2956 21.1165C21.0412 21.1266 21.7664 21.6744 22.0164 22.4916C20.6267 22.486 19.7349 22.0318 19.7303 21.5234V21.5245ZM16.5705 22.6912C17.459 22.6912 17.9226 23.4836 18.1213 24.6638C17.572 24.4744 17.0159 24.2546 16.4278 24.0991C16.0327 23.9931 15.6193 23.9164 15.2025 23.895C15.5485 23.0226 16.0395 22.6912 16.5705 22.6912ZM12.6252 26.1798C12.6252 25.4145 12.8159 24.9613 13.1379 24.657C13.5216 24.2861 14.0149 24.1667 14.5573 24.1667C14.7446 24.1667 14.8508 24.1768 14.9433 24.1892C14.7389 24.8745 14.5984 25.8958 14.5984 27.0906C14.6018 28.1344 14.6864 29.1083 14.8622 30.0664C14.5939 30.0799 14.3552 30.1453 14.1519 30.2558C13.2258 29.1128 12.6252 27.4378 12.6252 26.1798ZM15.0666 30.2163C15.5919 30.2321 15.9779 30.4869 15.9756 30.8295C15.9744 31.0133 15.8169 31.1451 15.5599 31.153C15.4743 31.1564 15.3795 31.1485 15.2824 31.1249C15.2014 30.8228 15.1283 30.5196 15.0666 30.2163ZM15.0792 31.0527C14.7811 30.922 14.5413 30.7112 14.2821 30.4125C14.4568 30.3009 14.6635 30.2377 14.8907 30.2208C14.9444 30.4981 15.0084 30.7754 15.0792 31.0516V31.0527ZM13.7671 31.4788C13.7671 31.1034 13.8459 30.8577 13.9852 30.6672C14.2844 30.9321 14.6841 31.2173 15.1488 31.3119C15.3099 31.9037 15.5051 32.4978 15.7472 33.1064C16.0487 33.8695 16.4095 34.5629 16.8126 35.1939C16.4723 35.2447 16.1503 35.3833 15.9311 35.6135C14.9661 34.761 13.7671 32.9905 13.7671 31.4788ZM17.1278 35.3214C17.7913 35.3224 18.2857 35.6517 18.2857 36.0214C18.2857 36.1904 18.1955 36.3425 17.9374 36.3989C17.6497 36.0573 17.379 35.6989 17.1278 35.3214ZM17.7045 36.4205C17.6976 36.4205 17.6908 36.4205 17.6851 36.4205C17.4144 36.4124 17.1461 36.3425 16.896 36.2389C16.5979 36.1149 16.3262 35.9391 16.0749 35.7362C16.2428 35.5118 16.5648 35.3755 16.9017 35.335C17.1541 35.7193 17.4224 36.0813 17.7045 36.4205ZM15.9436 36.1421C15.9436 36.1285 15.947 36.1149 15.9482 36.1026C16.2154 36.2671 16.4975 36.4056 16.7989 36.5028C17.0844 36.5928 17.387 36.6436 17.6896 36.6255C17.7467 36.6222 17.8038 36.6141 17.8609 36.6031C18.4045 37.2318 18.9903 37.7845 19.5978 38.2678C19.7588 38.3963 19.9256 38.5171 20.0923 38.6375C19.8205 38.7356 19.5179 38.9137 19.3523 39.0739C18.0517 38.5475 15.9516 37.0201 15.9447 36.1421H15.9436ZM20.4863 38.6939C20.6244 38.6634 20.7672 38.6479 20.9145 38.6479C21.5277 38.6479 21.8406 38.8437 21.844 39.0526C21.8463 39.1876 21.7686 39.2915 21.5403 39.3614C21.1794 39.1516 20.8277 38.9305 20.4863 38.6951V38.6939ZM21.2707 39.4132C21.2228 39.4187 21.1737 39.4245 21.1246 39.4255C20.6004 39.4436 20.0809 39.331 19.583 39.1594C19.6492 39.0885 19.7257 39.0254 19.8102 38.9723C19.9495 38.8855 20.098 38.8133 20.2544 38.7592C20.5833 38.9917 20.9248 39.207 21.2696 39.4132H21.2707ZM19.3911 39.6204C19.3911 39.5913 19.3934 39.5586 19.3991 39.5236C19.953 39.6508 20.6427 39.7253 21.1474 39.6544C21.273 39.6353 21.3986 39.6071 21.522 39.5641C22.3613 40.0455 23.2417 40.4557 24.1427 40.8121C23.9749 40.9225 23.7716 41.097 23.6403 41.3249C21.2571 41.2686 19.39 40.3948 19.39 39.6204H19.3911ZM25.5062 41.0678C25.4902 41.0814 25.472 41.0937 25.4537 41.1051C25.1534 41.0024 24.8553 40.893 24.5595 40.7817C24.6395 40.7467 24.7228 40.7163 24.8073 40.6959C24.8884 40.6768 24.9935 40.6687 25.0757 40.6677C25.408 40.6654 25.5873 40.7635 25.5873 40.9167C25.5873 40.972 25.5565 41.0274 25.5062 41.0678ZM25.2184 41.2077C25.2001 41.2132 25.183 41.2187 25.1648 41.2232C24.9033 41.2886 24.6235 41.3081 24.3449 41.3191C24.209 41.3249 24.0719 41.3236 23.9349 41.3249C23.9783 41.2414 24.0343 41.1624 24.1085 41.0847C24.1804 41.0115 24.2638 40.9484 24.3517 40.8921C24.6395 41.0024 24.9272 41.1083 25.2184 41.2077ZM49.1992 41.7351C49.1844 41.8759 49.1409 42.009 49.0666 42.1216C48.9192 42.3495 48.6694 42.4891 48.4045 42.5794C48.137 42.6697 47.8505 42.7238 47.5581 42.7507C47.413 42.7665 47.267 42.7665 47.1082 42.7688C46.2552 42.7688 45.1053 42.6471 44.1701 42.6471C43.8676 42.6471 43.5054 42.6798 43.2507 42.7947C43.0922 42.8669 43.0179 42.9413 43.0179 43.0291C43.0179 43.1226 43.1056 43.1689 43.2474 43.1994C43.567 43.2612 43.881 43.3007 44.1757 43.4001C44.3207 43.4506 44.4602 43.5273 44.5493 43.6345C44.6406 43.7381 44.6632 43.8757 44.6233 43.9906C44.548 44.2049 44.2418 44.2308 43.9815 44.1981C43.7202 44.1618 43.4494 44.0514 43.1685 43.9139C42.6089 43.6332 41.9845 43.3548 41.3336 43.2321C40.6836 43.1013 39.995 43.0935 39.3509 43.1249C38.7059 43.1634 38.0425 43.2308 37.4053 43.3751C37.1254 43.4428 37.0032 43.5037 37.0032 43.6186C37.0032 43.7008 37.0661 43.7675 37.2521 43.7675C37.3687 43.7675 37.5605 43.7371 37.6404 43.729C37.9603 43.694 38.2766 43.6594 38.5952 43.639C38.9125 43.6199 39.2334 43.604 39.5451 43.6222C40.2304 43.6727 40.7111 43.8025 40.7167 44.0819C40.7213 44.1958 40.6414 44.2894 40.5251 44.3402C40.2841 44.4448 39.9724 44.4506 39.6764 44.472C39.5268 44.481 39.3716 44.4901 39.2232 44.4911C39.0838 44.4933 38.9308 44.4843 38.7789 44.4674C38.4718 44.4393 38.1532 44.3953 37.8333 44.3535C37.5124 44.3121 37.1905 44.2645 36.8651 44.2353C36.5363 44.2049 36.204 44.225 35.8808 44.2635C34.8677 44.3988 34.3104 44.4878 33.5832 44.4856C33.0099 44.4833 32.3019 44.4438 32.2973 44.1168C32.295 43.9569 32.5291 43.8138 32.8134 43.7303C33.1104 43.6458 33.4277 43.6163 33.743 43.6131C34.3104 43.6131 34.8622 43.6853 35.4388 43.7721C35.5268 43.7857 35.705 43.8103 35.794 43.8103C35.9309 43.8103 35.9836 43.7539 35.9836 43.6808C35.9836 43.5487 35.779 43.4664 35.6146 43.4124C35.151 43.2657 34.3058 43.1362 33.4643 43.1362C33.3193 43.1362 33.1733 43.1362 33.0269 43.1476C32.4435 43.1735 31.8634 43.2974 31.3038 43.4655C30.7454 43.6354 30.2099 43.8633 29.6937 44.0378C29.4345 44.1214 29.0462 44.2263 28.771 44.2263C28.4581 44.2263 28.3142 44.0809 28.3142 43.8915C28.3142 43.5963 28.7276 43.3651 29.4082 43.213C29.4082 43.213 29.7371 43.1453 29.8456 43.1217C30.0089 43.0854 30.066 43.0449 30.066 42.9672C30.066 42.8782 29.9849 42.8015 29.8342 42.7416C29.5898 42.6448 29.2575 42.6267 28.9663 42.6153C27.9602 42.5998 26.9588 42.772 26.0086 42.7856C24.5196 42.8083 23.831 42.3609 23.831 41.7341C23.831 41.7205 23.8344 41.7082 23.8344 41.6946C24.4602 41.6574 25.1453 41.5424 25.5039 41.3068C27.524 41.974 29.6115 42.4172 31.7092 42.7507C31.7537 42.7575 31.796 42.7283 31.8028 42.683C31.8097 42.6393 31.78 42.5975 31.7343 42.5907C29.6583 42.2569 27.6473 41.8322 25.657 41.175C25.7186 41.1015 25.7551 41.0193 25.7551 40.927C25.7551 40.6609 25.4902 40.5314 25.078 40.5314C24.8119 40.5314 24.5299 40.6169 24.3426 40.6991C23.4382 40.3465 22.5566 39.9441 21.7207 39.4728C21.8132 39.4177 21.9 39.3442 21.9536 39.2374C21.9776 39.183 21.9913 39.1267 21.9913 39.0694C21.9913 38.7087 21.5106 38.509 20.8882 38.509C20.6781 38.509 20.4497 38.5453 20.3069 38.5757C20.1037 38.4303 19.9027 38.2814 19.7074 38.126C19.1045 37.6433 18.5552 37.1182 18.0562 36.5455C18.2937 36.4451 18.4342 36.258 18.4342 36.0304C18.4342 35.5898 17.934 35.1725 17.0924 35.1725C17.0696 35.1725 17.0479 35.1748 17.025 35.1761C16.6014 34.5212 16.2314 33.8122 15.9185 33.0387C15.6855 32.4628 15.4949 31.9003 15.3361 31.339C15.3749 31.3424 15.4115 31.348 15.4514 31.348C15.8306 31.348 16.1263 31.1575 16.1263 30.8284C16.1263 30.3922 15.6787 30.0867 15.0312 30.0664C14.8485 29.1105 14.7594 28.1355 14.7503 27.0884C14.7503 25.9803 14.8805 24.9038 15.0872 24.2151C15.4903 24.2816 15.8831 24.4135 16.2714 24.5612C16.8446 24.7799 17.5389 25.082 18.1864 25.277C18.2126 25.6726 18.2104 26.0773 18.1864 26.4707C18.1258 27.5347 18.0105 28.6067 18.0002 29.6944C17.9785 30.781 18.0859 31.8902 18.3976 32.961C19.1171 35.4105 20.7386 36.9728 22.3271 38.1574C23.2052 38.811 24.1576 39.3501 25.1294 39.8347C25.167 39.8538 25.215 39.8392 25.2356 39.802C25.2561 39.7638 25.2424 39.7162 25.2036 39.6962C23.1881 38.6152 21.5197 37.3176 20.3869 35.5762C19.8707 34.7983 19.406 33.8099 19.0428 32.7684C18.7368 31.7809 18.5906 30.7393 18.5358 29.6832C18.4776 28.6259 18.5187 27.5562 18.505 26.4752C18.4993 26.1009 18.4833 25.7222 18.4433 25.3469C18.8236 25.446 19.2187 25.5125 19.6252 25.5114C21.6202 25.5035 22.4013 24.2433 22.3225 23.0597C22.3453 23.0597 22.367 23.0597 22.391 23.0597C23.7385 23.0597 25.2013 22.4759 25.5907 21.4546C25.7118 21.4614 25.8579 21.467 25.9573 21.467C26.9793 21.467 27.9614 21.0432 28.3394 20.2643C28.5301 20.2993 28.7927 20.3252 29.0485 20.3252C29.9084 20.3252 30.7762 19.9837 31.12 19.4426C31.4557 19.5666 31.8759 19.6545 32.3293 19.6545C33.3491 19.6545 34.1313 19.2555 34.6051 18.6716C34.7846 19.1777 35.3062 19.4449 35.907 19.4392C36.0599 19.4381 36.2141 19.4167 36.3647 19.3795C36.406 19.3682 36.4482 19.3536 36.4928 19.3344C36.6788 19.4043 36.888 19.4392 37.0969 19.4392C37.7239 19.4392 38.1761 19.0965 38.3519 18.622C38.7138 19.1371 39.2481 19.4426 39.9037 19.5779C40.2337 19.6455 40.5729 19.6635 40.904 19.6466C41.161 19.6365 41.419 19.6026 41.6715 19.5373C41.9626 20.0378 42.7576 20.4638 43.9085 20.4638C44.1348 20.4638 44.3253 20.4481 44.5228 20.4131C44.8702 21.0872 45.9641 21.617 47.2991 21.5786C47.3973 21.5752 47.4965 21.5662 47.5947 21.5561C47.6062 21.5854 47.6154 21.6147 47.6291 21.6429C47.9945 22.4195 49.0666 22.9967 50.4496 22.9967C50.4929 22.9967 50.5351 22.9944 50.5786 22.9933C50.5786 23.0113 50.5786 23.0282 50.5786 23.0463C50.5865 24.7077 51.9912 25.5114 53.5121 25.5114C53.832 25.5114 54.1552 25.4663 54.4761 25.393C54.428 25.8755 54.4234 26.3613 54.4211 26.8336C54.4041 27.8943 54.4211 28.9561 54.3585 29.9977C54.3035 31.0392 54.1369 32.0514 53.7898 33.0164C52.5223 36.4419 50.0489 38.4281 47.5332 39.7525C47.4965 39.7716 47.4818 39.8166 47.5011 39.8528C47.5204 39.8897 47.5663 39.9056 47.6039 39.8865C51.1291 38.1438 53.4335 35.886 54.4041 33.2304C54.7865 32.1991 54.9315 31.0888 54.927 30.0146C54.9201 28.9381 54.83 27.8819 54.7662 26.8257C54.7364 26.3219 54.6997 25.8259 54.7285 25.3322C55.8896 25.0177 56.9996 24.3831 57.7547 24.1847C57.976 24.861 58.105 25.7053 58.1289 26.5304C58.1381 27.7027 58.0743 28.8806 57.8915 30.0393C57.3251 30.098 56.8569 30.4452 56.8569 30.8566C56.8569 31.2252 57.1791 31.3401 57.516 31.3401C57.5546 31.3401 57.5936 31.3334 57.6322 31.33C57.516 31.8068 57.3755 32.2791 57.2075 32.7425C56.8922 33.6169 56.4836 34.4603 55.9695 35.2379C55.2115 35.256 54.5982 35.5908 54.5959 36.0631C54.5959 36.2988 54.7285 36.4633 54.9499 36.5533C54.5367 37.0201 54.09 37.4585 53.6104 37.8586C53.3134 38.1043 53.0039 38.3332 52.6876 38.553C52.4604 38.508 52.2253 38.4867 52.0004 38.4867C51.4761 38.4867 51.0285 38.667 51.0285 39.0231C51.0285 39.172 51.1097 39.3138 51.3059 39.4177C50.446 39.8978 49.5462 40.3103 48.6258 40.6677C48.5895 40.6509 48.5538 40.6314 48.5174 40.6182C48.2981 40.5337 48.0698 40.4851 47.7968 40.4851C47.3813 40.4851 47.1517 40.6577 47.1517 40.9121C47.1517 41.0024 47.1871 41.086 47.2522 41.1614C45.4831 41.7441 43.6583 42.1611 41.8257 42.5085C41.7776 42.5176 41.7458 42.5635 41.755 42.6111C41.7641 42.6584 41.8106 42.6888 41.8588 42.6797C43.734 42.3259 45.5997 41.8986 47.412 41.2954C47.6471 41.4512 48.0207 41.5648 48.45 41.6337C48.6956 41.6732 48.9467 41.6991 49.1992 41.7137C49.1992 41.7205 49.1992 41.7283 49.1992 41.7351ZM55.0995 36.3843C54.8608 36.3393 54.7754 36.2095 54.7731 36.0631C54.7731 35.708 55.2298 35.4419 55.8464 35.4205C55.8179 35.4613 55.7914 35.5027 55.7629 35.5435C55.5563 35.8355 55.3323 36.114 55.0995 36.3856V36.3843ZM55.9171 35.6484C55.9695 35.5749 56.0199 35.4995 56.0713 35.4241C56.3556 35.4477 56.6856 35.5413 56.8398 35.7093C56.8421 35.7115 56.8444 35.7148 56.8467 35.7171C56.3408 36.1454 55.8703 36.3878 55.3369 36.3989C55.5402 36.1554 55.7357 35.9064 55.9184 35.6471L55.9171 35.6484ZM52.7449 38.7392C52.9653 38.8033 53.1821 38.8959 53.3523 39.0286C53.1971 39.083 53.0406 39.1325 52.8808 39.1743C52.5793 39.253 52.2731 39.307 51.966 39.3138C51.9273 39.3138 51.8917 39.3138 51.8563 39.3138C52.1592 39.1325 52.4548 38.9396 52.7449 38.7392ZM51.5482 39.2834C51.3196 39.2361 51.2044 39.1393 51.2034 39.0176C51.1998 38.7447 51.6097 38.6307 51.9673 38.6307C52.1523 38.6307 52.3268 38.6489 52.504 38.6828C52.1922 38.8936 51.8736 39.094 51.5482 39.2834ZM48.0299 40.8943C47.8413 40.963 47.6507 41.0274 47.4612 41.0915C47.3822 41.0339 47.3354 40.9698 47.3354 40.8998C47.3354 40.7409 47.4851 40.6282 47.7843 40.6282C48.0162 40.6282 48.2306 40.6732 48.4202 40.7467C48.2902 40.7962 48.1612 40.8471 48.0309 40.8943H48.0299ZM48.6429 40.8535C48.8668 40.9833 49.0358 41.1546 49.1239 41.334C49.1294 41.345 49.133 41.3576 49.1386 41.3689C48.9136 41.3722 48.6933 41.3712 48.4854 41.3563C48.1589 41.3317 47.8826 41.2776 47.6802 41.2041C47.8174 41.1569 47.9543 41.1119 48.0915 41.0623C48.2765 40.9956 48.4601 40.9248 48.6429 40.8535ZM53.6549 39.5213C53.6549 40.1118 53.0337 40.512 52.1703 40.8357C51.3871 41.131 50.3445 41.3226 49.3783 41.3644C49.359 41.3191 49.336 41.2741 49.3098 41.2336C49.19 41.0406 49.0233 40.8953 48.8383 40.7817C49.762 40.4174 50.6664 39.9946 51.5298 39.5032C51.6988 39.5495 51.9169 39.5767 52.1932 39.5767C52.6238 39.5767 53.1172 39.4941 53.6185 39.3578C53.6401 39.4109 53.6549 39.466 53.6549 39.5223V39.5213ZM56.7292 36.798C56.5635 37.0301 56.3523 37.2386 56.125 37.4339C55.8978 37.63 55.6578 37.8181 55.4034 37.9907C55.1486 38.1629 54.8801 38.3173 54.6084 38.4672C54.2829 38.6411 53.945 38.7978 53.5989 38.9328C53.4162 38.7897 53.1821 38.6838 52.9263 38.6107C53.2004 38.4145 53.4699 38.2137 53.7302 37.9985C54.2407 37.5724 54.7194 37.1078 55.1578 36.6086C55.2456 36.6245 55.3382 36.6345 55.441 36.6345C56.0199 36.6323 56.5327 36.3752 56.9826 36.0813C56.9882 36.3234 56.8857 36.5805 56.7292 36.798ZM58.0035 34.3599C57.6964 34.8187 57.4348 35.1635 57.0533 35.5299C56.8614 35.371 56.5772 35.2638 56.1935 35.2402C56.6869 34.4781 57.0831 33.6555 57.3902 32.8056C57.5684 32.3095 57.7167 31.8068 57.8392 31.2973C58.2445 31.206 58.66 30.9637 58.9979 30.6807C59.0985 30.8543 59.1535 31.0707 59.1545 31.33C59.1604 32.083 58.7858 33.2013 58.0045 34.3586L58.0035 34.3599Z" fill="#535862"/>
<path fill-rule="evenodd" clip-rule="evenodd" d="M21.0413 31.3446C21.3097 37.3163 28.0049 41.5535 36.5557 41.5671C45.1076 41.5547 51.8029 37.3154 52.0678 31.3423C52.3475 25.4775 46.1171 20.5618 36.5534 20.466C26.9897 20.5664 20.7581 25.4809 21.0425 31.3446M51.8383 31.3547C51.6088 36.6041 45.2972 40.8072 36.5557 40.8199C27.8153 40.8085 21.5015 36.6028 21.2697 31.3558C21.0242 26.2023 26.8115 21.3576 36.5534 21.2709C46.2965 21.3565 52.0816 26.2001 51.8393 31.3558" fill="#535862"/>
<path d="M33.7744 23.2683C32.9899 23.2683 32.5413 23.7992 32.5413 24.5071C32.5413 25.2149 33.0004 25.7492 33.7744 25.7492C34.5488 25.7492 35.0193 25.2183 35.0193 24.5206C35.0193 23.8228 34.5626 23.2671 33.7744 23.2671M33.7666 25.2724C33.3635 25.2724 33.0633 24.9861 33.0633 24.5082C33.0633 24.0303 33.3465 23.7473 33.7666 23.7473C34.1867 23.7473 34.4984 24.0224 34.4984 24.5364C34.4984 24.8813 34.2689 25.2724 33.7666 25.2724Z" fill="#535862"/>
<path d="M37.7992 25.2543L36.4093 25.2576V23.4744C36.4093 23.3696 36.4803 23.2828 36.4803 23.2828H35.8294C35.8294 23.2828 35.9001 23.3741 35.9001 23.4744V25.5158C35.9001 25.6172 35.8294 25.7074 35.8294 25.7074H37.9158L37.9967 25.2531H37.9944L38.0104 25.1618C38.0104 25.1618 37.9007 25.2531 37.7979 25.2531" fill="#535862"/>
<path d="M39.5369 23.2795L38.5311 23.2829C38.5311 23.2829 38.6018 23.373 38.6018 23.4745V25.5169C38.6018 25.6184 38.5311 25.7086 38.5311 25.7086H39.553C40.2462 25.7086 40.8149 25.3287 40.8149 24.5047C40.8149 23.6807 40.3228 23.2795 39.5369 23.2795ZM39.5245 25.2509H39.1067V23.7394H39.5245C40.0759 23.7394 40.2884 23.9975 40.2884 24.5036C40.2884 24.95 40.0556 25.2509 39.5245 25.2509Z" fill="#535862"/>
<path d="M30.493 36.2198C30.6814 36.0968 30.7636 35.9424 30.7659 35.7158C30.7716 35.2042 30.4953 34.9899 29.9631 34.9932C29.6502 34.9932 29.2928 34.9932 28.9799 34.9932C28.844 34.9932 28.7093 34.9932 28.5734 34.9932V37.329C29.013 37.4607 29.4561 37.5815 29.9015 37.6919C30.4747 37.8372 30.8664 37.5757 30.8664 36.9761C30.8664 36.5601 30.7179 36.3484 30.493 36.2208M30.1412 35.7384C30.1401 35.9346 30.1253 36.0631 29.8421 36.0505C29.6171 36.0418 29.367 36.0327 29.1284 36.0214V35.4046C29.1284 35.4046 29.6194 35.4092 29.8444 35.4114C30.1207 35.4137 30.1424 35.549 30.1412 35.7371M29.9266 37.225C29.6628 37.1687 29.1284 37.0483 29.1284 37.0483V36.4047C29.1284 36.4047 29.6685 36.4529 29.9323 36.4746C30.2406 36.4982 30.2589 36.6918 30.2566 36.9207C30.2543 37.1328 30.2292 37.2895 29.9266 37.2241" fill="#535862"/>
<path d="M33.4608 36.8226C33.9827 36.6714 34.2086 36.3503 34.2122 35.9139C34.2165 35.2648 33.8376 34.9919 33.262 34.9932C32.7882 34.9932 32.1943 34.9932 31.7249 34.9932C31.7249 36.0178 31.7249 37.0366 31.7272 38.0613C31.9305 38.0975 32.1315 38.1312 32.3359 38.1629C32.3359 37.7365 32.3359 37.2496 32.3359 36.8259C32.4512 36.8317 32.6659 36.844 32.7823 36.8485C32.7846 36.8531 33.1124 36.8799 33.1147 36.8845M34.0158 37.8382C33.8671 37.6015 33.6481 37.0311 33.5384 36.7786L32.8727 36.7899C33.0577 37.2318 33.2244 37.6757 33.3897 37.9713C33.5976 38.3465 33.8111 38.4468 34.0819 38.4637C34.2862 38.4763 34.3858 38.4323 34.3858 38.4323L34.3812 38.0376C34.2279 38.0703 34.1379 38.0299 34.0158 37.8382ZM33.1091 36.3571C32.8851 36.3548 32.5563 36.348 32.3347 36.3435C32.3347 36.0764 32.3347 35.7721 32.3347 35.505C32.554 35.5105 32.892 35.5183 33.1134 35.5241C33.4277 35.5296 33.56 35.6559 33.5567 35.9333C33.5544 36.2004 33.4117 36.3593 33.1091 36.3571Z" fill="#535862"/>
<path d="M37.4882 38.5181C37.6984 38.5145 37.9987 38.4999 38.2089 38.4841L36.8749 34.9945H36.0927L34.8458 38.4559C35.0501 38.4773 35.3049 38.4944 35.5207 38.4999L35.9008 37.4054C36.0881 37.5452 36.2914 37.6783 36.4889 37.7932C36.6785 37.6805 36.9001 37.5339 37.0783 37.4054L37.4882 38.5181ZM36.4889 37.1655C36.353 37.0887 36.1955 36.9929 36.078 36.8994L36.4709 35.7676L36.891 36.8961C36.7744 36.9916 36.6238 37.0852 36.4889 37.1655Z" fill="#535862"/>
<path d="M40.6938 34.9932C40.7006 35.6458 40.7075 36.3267 40.7131 36.888L39.4286 34.9941H38.7753C38.7822 36.1428 38.7901 37.2927 38.7969 38.4413C38.9865 38.4277 39.1922 38.4119 39.3781 38.3937C39.3726 37.6171 39.3667 36.7954 39.3611 36.1282L40.8149 38.2215C40.9839 38.1966 41.1528 38.1707 41.3218 38.1425C41.3103 37.0929 41.2989 36.0437 41.2874 34.9954C41.0945 34.9954 40.8843 34.9954 40.6947 34.9954L40.6938 34.9932Z" fill="#535862"/>
<path d="M43.4596 34.9886L42.3326 34.9932C42.3326 34.9932 42.4148 35.1094 42.4161 35.2298C42.4252 36.0427 42.4344 36.8631 42.4433 37.6747C42.4446 37.7955 42.3657 37.9204 42.3657 37.9204C42.3918 37.9149 42.4194 37.9091 42.4455 37.9036C42.6387 37.8654 42.8306 37.8236 43.0225 37.7809C43.0395 37.7773 43.0565 37.7741 43.0739 37.7696C43.196 37.7414 43.2085 37.7482 43.3319 37.7178C44.3001 37.4708 44.8106 37.0696 44.8119 36.1564C44.8119 35.3752 44.3892 35 43.4609 34.9899M43.2929 37.2105C43.1639 37.2351 43.1446 37.2351 43.0156 37.2587C43.0097 36.6828 43.0041 36.0945 42.9983 35.5186C43.1273 35.5141 43.1947 35.5105 43.325 35.5073C43.9622 35.4946 44.2055 35.6863 44.2088 36.2422C44.2111 36.7686 43.9291 37.0797 43.2929 37.2105Z" fill="#535862"/>
<path fill-rule="evenodd" clip-rule="evenodd" d="M34.1896 29.4498C34.1896 30.6311 35.2427 31.6501 36.8012 31.6501C38.2069 31.6501 39.4161 30.834 39.4161 29.4498C39.4161 28.0657 38.11 27.1729 36.8012 27.1729C35.4925 27.1729 34.1896 28.042 34.1896 29.4498ZM37.6519 28.494V30.3877C37.6519 30.9062 37.3255 31.3221 36.8012 31.3221C36.277 31.3221 35.9552 30.9062 35.9552 30.3877V28.494C35.9552 27.9484 36.1379 27.519 36.8012 27.519C37.5321 27.519 37.6519 27.9484 37.6519 28.494Z" fill="#535862"/>
<path fill-rule="evenodd" clip-rule="evenodd" d="M36.0606 33.0355C36.0606 33.3916 36.3952 33.6982 36.8006 33.6982C37.206 33.6982 37.5475 33.4075 37.5475 33.0355C37.5475 32.6635 37.1978 32.3703 36.8006 32.3703C36.4031 32.3703 36.0606 32.6781 36.0606 33.0355Z" fill="#535862"/>
<path fill-rule="evenodd" clip-rule="evenodd" d="M27.4603 28.9278L30.6372 33.3635H32.9735L32.6482 32.8934V28.4285C32.6482 27.795 32.8881 27.4569 33.298 27.334H33.3573V27.2562H31.3178V27.334H31.3795C31.7677 27.4625 32.0315 27.7601 32.0315 28.4285V31.9746L28.6639 27.2585H26.0466C26.4874 27.7454 26.8448 28.2211 26.8448 28.6088C26.8448 29.5794 26.8437 32.1967 26.8437 32.1967C26.8437 32.8303 26.6039 33.1682 26.1939 33.2913H26.1345V33.369H28.174V33.2913H28.1124C27.7241 33.1627 27.4603 32.8652 27.4603 32.1967V28.9278Z" fill="#535862"/>
<path d="M47.6321 27.4231C47.6321 27.2923 47.6229 27.2055 47.5142 27.1413C47.342 27.2484 47.1868 27.3487 46.9275 27.4129C46.0938 27.5854 45.2386 27.2213 44.606 27.0939C44.2186 27.0151 43.7333 27.0162 43.3656 27.1007C42.5595 27.2968 42.233 27.1931 42.1839 26.9643C42.161 26.9643 41.9898 26.9598 41.9898 26.9598L41.493 29.3585C41.493 29.3585 41.6849 29.363 41.6997 29.363C41.904 28.9437 42.2216 28.7476 42.6531 28.7476C43.1521 28.7476 43.6227 29.0316 44.2851 29.0316C44.6436 29.0316 45.1596 28.9516 45.6803 28.7228C45.6884 28.7194 45.6976 28.7149 45.7055 28.7104L45.7421 28.7566C45.6338 29.0868 42.6315 30.1633 42.6315 32.0559C42.6315 32.7526 43.047 33.6205 44.4871 33.6205C46.3885 33.6205 46.6694 31.9691 46.2958 31.49C46.0984 31.6951 45.901 31.7865 45.5869 31.7865C45.2726 31.7865 44.9632 31.6027 44.9632 31.1102C44.9632 29.8082 47.6331 28.264 47.6331 27.4231" fill="#535862"/>
</g>
<defs>
<clipPath id="clip0_1367_2163">
<rect width="74" height="45" fill="white"/>
</clipPath>
</defs>
</svg>
