<svg width="100" height="25" viewBox="0 0 100 25" fill="none" xmlns="http://www.w3.org/2000/svg">
<g clip-path="url(#clip0_1367_2153)">
<path fill-rule="evenodd" clip-rule="evenodd" d="M4.05796 10.0587C3.82339 9.17446 3.07325 8.72006 2.56367 8.68753L2.5494 8.6402C2.5494 8.6402 3.93075 8.12807 4.93117 7.78513C5.96861 7.43077 7.45197 6.93927 7.45197 6.93927L7.4747 6.98757C7.09382 7.33247 6.92454 8.06377 7.14097 8.91937C7.14097 8.91937 9.04271 16.41 9.31528 17.4007C9.58589 18.3902 9.96121 18.9446 10.4749 19.0138L10.4918 19.0612C10.227 19.3211 10.0135 19.969 9.74283 20.5638C9.46787 21.1658 8.89543 22.9976 6.67495 23.866C4.25523 24.8119 1.78563 24.241 0.734611 22.5243C0.0478414 21.4068 0.200649 19.8702 1.3017 19.2408C2.25766 18.6962 3.29318 19.0428 3.68784 19.8372C4.07041 20.6059 3.81504 21.4309 3.50526 21.7025C3.4419 21.7602 3.50453 21.868 3.65156 21.9653C4.30136 22.408 5.03603 22.3792 5.74387 21.9981C6.64929 21.5107 6.95518 20.7299 6.48482 18.9192C6.10515 17.4666 4.32279 11.048 4.05796 10.0587ZM22.9878 18.8187C21.9646 19.0815 20.222 19.4726 20.222 19.4726L20.2082 19.4255C20.6155 19.0497 21.0561 18.1616 20.421 16.9398L19.4704 15.0143L15.4592 16.1041L15.3022 18.368C15.2962 19.727 16.0011 20.3119 16.5414 20.4294L16.552 20.4787C16.552 20.4787 15.2667 20.8777 14.2655 21.1646C13.2842 21.4809 12.044 21.852 12.044 21.852L12.0276 21.8039C12.4157 21.4709 12.8401 20.3387 12.9212 19.0205C13.1458 15.5037 13.4759 10.2491 13.7705 7.89514C13.9136 6.76454 13.7753 5.69321 12.9047 5.39414L12.8924 5.33613C12.8924 5.33613 14.1131 4.97764 15.5987 4.62327C16.8439 4.32521 18.3309 3.9388 18.3309 3.9388L18.3502 3.99608C17.774 4.76548 18.2156 5.57548 18.7616 6.58955C19.2779 7.55462 23.6729 15.6342 24.0432 16.3029C24.6896 17.4215 25.1039 17.8721 25.7679 18.1706L25.774 18.2194C25.774 18.2194 24.0228 18.5951 22.9878 18.8187ZM16.0181 8.02866L15.6177 13.8139L18.4814 13.0134L16.0181 8.02866ZM35.9436 1.084L40.6723 0.718705L40.6823 0.766763C39.4482 1.35414 39.5802 2.41823 39.7053 4.0709L40.335 13.4856C40.4869 14.8635 40.8269 15.9285 41.4348 16.1953L41.4305 16.2443C41.4305 16.2443 40.3282 16.3108 38.8066 16.4329C37.2921 16.5557 36.17 16.6679 36.17 16.6679L36.1593 16.6198C36.7148 16.2443 37.1864 15.0837 37.0814 13.6567C37.0814 13.6567 36.673 7.53268 36.6307 7.02075C36.5796 6.44332 36.6358 6.04621 36.6358 6.04621C36.6358 6.04621 36.5613 6.47534 36.4142 6.97075C36.2655 7.46662 33.3783 17.1767 33.3783 17.1767L33.3028 17.1821C33.3028 17.1821 29.0113 9.20409 28.6256 8.56342C28.3182 8.0508 28.1949 7.56535 28.1949 7.56535C28.1949 7.56535 28.3456 8.01924 28.4447 8.63115C28.5448 9.24062 29.3044 14.619 29.3044 14.619C29.5489 16.0297 30.2904 17.0392 30.9186 17.2676L30.9225 17.3166L26.7717 17.996L26.7577 17.9508C27.2813 17.5436 27.3526 16.4263 27.164 15.052L25.907 5.7167C25.7113 4.29657 24.9907 3.1657 23.944 2.81864L23.9416 2.76912L28.6541 1.96112C28.6541 1.96112 32.588 9.12646 33.2789 10.2165C33.6978 8.85386 35.9436 1.084 35.9436 1.084ZM53.903 0.608272L53.7865 4.02574L53.7376 4.02986C53.1947 2.75753 51.8211 2.4998 50.5905 2.5114L47.9245 2.53883L47.852 6.65942L49.2031 6.69753C51.0003 6.73394 51.5326 6.58394 52.1892 5.44173L52.2373 5.4495L52.0661 10.3458L52.0182 10.3507C51.4241 9.07909 50.0962 8.99242 48.8674 9.00509L47.8561 9.00072L47.7504 13.5476L50.5351 13.6034C52.3326 13.6386 53.2332 13.1396 53.8145 12.0961L53.8624 12.1066L53.366 16.1192C50.0766 16.009 46.3015 15.9886 43.3585 16.1233L43.3505 16.075C44.0156 15.6342 44.3788 14.6393 44.3856 13.1435L44.4918 3.39147C44.5036 2.00507 44.4078 1.11814 43.4536 0.637805L43.4604 0.589261C46.6668 0.469601 50.7441 0.46361 53.903 0.608272ZM61.0735 16.9289C59.0997 16.869 58.8876 16.3073 57.7703 16.0505C56.9526 15.8629 56.3967 16.2221 56.1547 16.5119L56.1065 16.5061L56.343 11.0233L56.3904 11.0173C56.7938 12.0811 57.9396 13.5532 59.2679 14.2983C60.4754 14.9745 61.6988 14.6935 62.3232 13.8969C62.8652 13.2034 63.0023 11.9214 62.1462 11.0461C61.2911 10.1707 59.9392 9.58086 58.8032 8.70633C56.5099 6.93666 56.6586 4.5464 57.3759 3.21726C58.3773 1.36286 60.4774 0.607532 62.3523 0.789598C63.493 0.901492 64.0069 1.1947 64.8035 1.45076C65.603 1.7061 66.3098 1.5527 66.4573 1.47067L66.5055 1.47916L66.1427 5.8083L66.0936 5.81121C65.6832 4.66727 64.3246 3.24034 62.8956 2.97261C61.6427 2.74106 60.9494 3.1862 60.6413 3.70488C60.1673 4.50368 60.3775 5.39154 61.2411 5.99154C62.4923 6.85928 64.011 7.50807 65.0107 8.45294C66.4638 9.82867 66.9272 12.2665 65.6343 14.4229C64.5921 16.1622 62.5462 16.9736 61.0735 16.9289ZM81.3838 12.31C80.3098 16.7513 77.0284 19.828 73.1688 18.978C68.9624 18.0518 67.6688 14.0617 68.7612 9.53334C69.8395 5.0586 72.887 2.24067 76.8166 2.902C81.474 3.6862 82.4316 7.9736 81.3838 12.31ZM76.4408 5.13134C74.4179 4.68522 73.0689 7.14394 72.3734 10.3189C71.6433 13.6667 71.9829 16.2583 73.8351 16.666C75.6009 17.0546 77.0961 14.8667 77.8264 11.5201C78.5202 8.34487 78.4651 5.577 76.4408 5.13134ZM90.8193 15.928C90.9216 16.3523 90.9294 16.9088 90.9294 16.9088C90.9294 16.9088 90.9132 16.6447 91.1141 15.9887L92.8425 10.8906C93.2812 9.57654 93.2667 8.62047 92.6827 7.8714L92.7051 7.82917L96.8958 9.39304L96.8842 9.44182C96.0115 9.69765 95.3433 10.4226 94.9041 11.7464C94.6584 12.5394 90.8249 23.8578 90.8249 23.8578L88.7108 23.0558L86.627 12.6992C86.5213 12.2766 86.5165 11.7198 86.5165 11.7198C86.5165 11.7198 86.531 11.9826 86.332 12.6404C86.153 13.2316 84.4218 18.4304 84.4218 18.4304C84.0353 19.8091 84.0864 20.7591 84.6385 21.4868L84.6201 21.5329L80.1404 20.2115L80.1472 20.1635C81.0589 19.9072 81.8335 19.2127 82.2574 17.8921L85.094 8.95215C85.5298 7.48902 85.4166 6.15455 84.6242 5.38808L84.6413 5.34148L88.7704 6.54441L90.8193 15.928ZM98.6376 11.7064C99.393 11.9139 99.837 12.695 99.6276 13.4549C99.4211 14.2147 98.6434 14.6605 97.8855 14.4511C97.1288 14.2428 96.6843 13.4615 96.8933 12.7018C97.1025 11.9421 97.8806 11.4972 98.6376 11.7064ZM98.5476 12.0278C97.9597 11.8649 97.4003 12.2003 97.2354 12.7962C97.0729 13.3923 97.3865 13.9686 97.9747 14.13C98.5626 14.2933 99.1246 13.9572 99.2869 13.3615C99.4506 12.7661 99.1396 12.1892 98.5476 12.0278ZM97.4248 13.4717C97.5916 13.4982 97.6054 13.4948 97.6422 13.3712L97.8843 12.4838C97.9176 12.3598 97.9058 12.3484 97.7491 12.2858L97.7812 12.1705L98.5974 12.394C98.8294 12.4571 99.0095 12.6166 98.9394 12.8729C98.8905 13.0525 98.7234 13.1741 98.522 13.1816L98.676 13.6843C98.7111 13.7955 98.765 13.8421 98.8216 13.8574L98.7909 13.9744L98.4562 13.8831C98.3841 13.8615 98.3447 13.8011 98.3162 13.6833L98.1728 13.1486L98.0775 13.1229L97.9854 13.4644C97.9501 13.5887 97.9624 13.6008 98.1169 13.6637L98.0845 13.7795L97.3938 13.5887L97.4248 13.4717ZM98.2187 13.0355C98.3271 13.0647 98.477 13.0239 98.5389 12.7904C98.5962 12.5843 98.4963 12.4914 98.3795 12.4588L98.2666 12.4282L98.1099 13.0059L98.2187 13.0355Z" fill="#535862"/>
</g>
<defs>
<clipPath id="clip0_1367_2153">
<rect width="100" height="24" fill="white" transform="translate(3.05176e-05 0.5)"/>
</clipPath>
</defs>
</svg>
