<svg width="115" height="46" viewBox="0 0 115 46" fill="none" xmlns="http://www.w3.org/2000/svg">
<path d="M5.93789 4.87025C6.23429 3.45115 7.63649 2.3 9.06491 2.3H16.8306L10.3725 33.1465H2.60681C1.17725 33.1465 0.258411 31.9964 0.555951 30.5762L5.93789 4.87025ZM31.8239 4.87025C32.1214 3.45115 33.5225 2.3 34.9509 2.3H42.7166L36.2585 33.1465H28.4928C27.0632 33.1465 26.1444 31.9964 26.4419 30.5762L31.8239 4.87025ZM83.597 4.87025C83.8934 3.45115 85.2933 2.3 86.724 2.3H94.4897L88.0316 33.1465H80.2648C78.8352 33.1465 77.9175 31.9964 78.215 30.5762L83.597 4.87025ZM45.3055 2.3H53.0712C54.5008 2.3 55.4196 3.45 55.1221 4.87025L49.7401 30.5762C49.4437 31.9964 48.0427 33.1465 46.6131 33.1465H38.8474L45.3055 2.3ZM97.0786 2.3H104.844C106.274 2.3 107.193 3.45 106.895 4.87025L101.512 30.5762C101.216 31.9964 99.8158 33.1465 98.3862 33.1465H90.6194L97.0786 2.3ZM57.711 4.87025C58.0074 3.45115 59.4073 2.3 60.8369 2.3H68.6037L62.1445 33.1465H54.3788C52.9492 33.1465 52.0304 31.9964 52.3291 30.5762L57.7099 4.87025H57.711ZM71.1915 2.3H78.9583C80.3879 2.3 81.3056 3.45 81.008 4.87025L72.9357 43.4297C72.637 44.8489 71.2371 46 69.8075 46H62.0407L71.1915 2.3ZM15.1138 22.8643H25.4684L23.8541 30.5762C23.5566 31.9964 22.1555 33.1465 20.7271 33.1465H12.9603L15.1126 22.8654L15.1138 22.8643ZM51.2529 35.7178H61.6064L59.4541 46H51.6884C50.2577 46 49.34 44.85 49.6375 43.4297L51.2529 35.7178ZM79.3585 38.1087L78.0475 44.3716C77.9905 44.6407 77.9015 44.7143 77.6302 44.7143H77.034C76.7627 44.7143 76.7034 44.6407 76.7604 44.3716L78.0714 38.1087C78.1284 37.8408 78.2173 37.766 78.4886 37.766H79.0849C79.3562 37.766 79.4155 37.8408 79.3585 38.1087ZM81.0821 42.3338H80.9602C80.8302 42.3338 80.7846 42.3706 80.7584 42.5005L80.3662 44.3716C80.3092 44.6407 80.2192 44.7143 79.949 44.7143H79.3516C79.0814 44.7143 79.0222 44.6407 79.078 44.3716L80.389 38.1087C80.446 37.8408 80.5372 37.766 80.8074 37.766H82.0386C83.4568 37.766 83.9937 38.2754 83.7315 39.5255L83.5126 40.5732C83.2504 41.8244 82.5003 42.3338 81.0821 42.3338ZM81.4424 39.2299L81.1004 40.8699C81.0719 40.9998 81.1015 41.0366 81.2326 41.0366H81.4287C81.8847 41.0366 82.1298 40.8514 82.229 40.3788L82.3658 39.721C82.465 39.2495 82.2985 39.0632 81.8414 39.0632H81.6453C81.5153 39.0632 81.4697 39.1 81.4424 39.2299ZM85.7037 40.2397L86.6727 41.3149C87.1811 41.8703 87.2518 42.2038 87.1219 42.8248L87.0877 42.9916C86.8426 44.1588 86.2589 44.8075 84.9057 44.8075C83.5537 44.8075 83.2196 44.2612 83.532 42.7685L83.5708 42.5845C83.6278 42.3154 83.7178 42.2406 83.988 42.2406H84.6218C84.8932 42.2406 84.9524 42.3154 84.8954 42.5833L84.8099 42.9916C84.7324 43.3619 84.851 43.5103 85.177 43.5103C85.5042 43.5103 85.682 43.3722 85.7527 43.0387L85.7892 42.8616C85.8439 42.6017 85.8143 42.4729 85.5338 42.167L84.6218 41.1758C84.1111 40.6295 84.0461 40.3132 84.1761 39.6922L84.2183 39.4899C84.4634 38.3226 85.0471 37.6728 86.3991 37.6728C87.7523 37.6728 88.0863 38.2203 87.7739 39.7118L87.7352 39.897C87.6782 40.1661 87.5881 40.2397 87.3179 40.2397H86.683C86.4128 40.2397 86.3535 40.1661 86.4094 39.897L86.4949 39.4899C86.5724 39.1184 86.4549 38.9712 86.1278 38.9712C85.8017 38.9712 85.6228 39.1092 85.5532 39.4427L85.5202 39.6003C85.4632 39.8694 85.4928 39.9993 85.7037 40.2397ZM91.1666 38.1087C91.2236 37.8408 91.3125 37.766 91.5838 37.766H92.18C92.4514 37.766 92.5106 37.8408 92.4536 38.1087L91.4778 42.7697C91.1654 44.2612 90.6034 44.8075 89.2502 44.8075C87.8982 44.8075 87.5642 44.2612 87.8765 42.7685L88.8524 38.1087C88.9094 37.8408 88.9994 37.766 89.2696 37.766H89.867C90.1372 37.766 90.1964 37.8408 90.1406 38.1087L89.118 42.9916C89.0405 43.3619 89.1682 43.5103 89.5227 43.5103C89.867 43.5103 90.0665 43.3619 90.144 42.9916L91.1666 38.1087ZM95.0494 41.8796C95.0528 41.9543 95.0768 41.9715 95.1235 41.9715C95.1691 41.9715 95.2022 41.9543 95.2364 41.8796L96.8483 38.0075C96.927 37.812 97.0205 37.766 97.2542 37.766H98.1593C98.4295 37.766 98.4888 37.8408 98.4329 38.1087L97.1219 44.3716C97.0649 44.6407 96.9737 44.7143 96.7036 44.7143H96.2749C96.0047 44.7143 95.9443 44.6407 96.0013 44.3716L96.6306 41.3701C96.6477 41.2873 96.6329 41.2677 96.577 41.2677C96.5394 41.2677 96.4972 41.2873 96.4744 41.3517L95.1725 44.4095C95.0791 44.6315 94.9594 44.7143 94.6892 44.7143H94.4361C94.1557 44.7143 94.0713 44.6315 94.0713 44.4095L94.0394 41.3506C94.0337 41.2862 94.0189 41.2677 93.9721 41.2677C93.9163 41.2677 93.8935 41.2873 93.8764 41.3701L93.2482 44.3716C93.1912 44.6407 93.1023 44.7143 92.831 44.7143H92.4023C92.131 44.7143 92.0717 44.6407 92.1287 44.3716L93.4397 38.1087C93.4967 37.8408 93.5868 37.766 93.857 37.766H94.6322C94.9582 37.766 95.0631 37.8408 95.0608 38.1651L95.0483 41.8796H95.0494ZM114.5 2.3C114.5 3.57075 113.486 4.6 112.235 4.6C111.936 4.5991 111.641 4.53888 111.366 4.42279C111.09 4.3067 110.84 4.13701 110.63 3.92342C110.42 3.70983 110.253 3.45652 110.14 3.17797C110.026 2.89942 109.969 2.60108 109.97 2.3C109.97 1.02925 110.984 0 112.235 0C113.486 0 114.5 1.02925 114.5 2.3Z" fill="#800020" fill-opacity="0.866667"/>
</svg>
