<svg width="182" height="46" viewBox="0 0 182 46" fill="none" xmlns="http://www.w3.org/2000/svg">
<path d="M5.93515 3.38058H18.0927V44.9134H5.93515V3.38058ZM20.6458 35.6772H23.1381C24.2729 35.6772 25.1239 35.657 25.6912 35.6168C26.2991 35.5363 26.7449 35.3753 27.0285 35.1339C27.3123 34.8924 27.4946 34.5504 27.5756 34.1076C27.6972 33.6649 27.758 33.021 27.758 32.1759C27.758 31.2905 27.6972 30.6265 27.5756 30.1837C27.4946 29.741 27.3123 29.399 27.0285 29.1575C26.5422 28.7551 25.2455 28.5538 23.1381 28.5538H20.6458V19.3176H22.7734C23.9081 19.3176 24.7592 19.2974 25.3264 19.2572C25.9343 19.1767 26.3801 19.0157 26.6638 18.7743C26.9475 18.5328 27.1299 18.2108 27.2109 17.8084C27.3324 17.3657 27.3932 16.762 27.3932 15.9974C27.3932 15.1924 27.3324 14.5888 27.2109 14.1864C27.1299 13.7436 26.9475 13.4016 26.6638 13.1601C26.3801 12.9186 25.9343 12.7777 25.3264 12.7375C24.7592 12.657 23.9081 12.6168 22.7734 12.6168H20.6458V3.38058H27.5756C35.7212 3.38058 39.794 6.86176 39.794 13.8241C39.794 16.762 39.2064 18.9755 38.0311 20.4646C36.8965 21.9536 35.0728 23 32.5602 23.6037V23.8451C35.1944 24.4488 37.0788 25.3945 38.2135 26.6824C39.5103 28.2118 40.1587 30.5861 40.1587 33.8058C40.1587 37.5084 39.1659 40.2853 37.1801 42.1365C35.1944 43.9877 32.0131 44.9134 27.6364 44.9134H20.6458V35.6772Z" fill="#AF261F"/>
<path d="M46.4151 4.40682C51.5619 3.27996 56.8706 2.7769 62.3416 2.89764V12.315C61.5716 12.1942 59.9708 12.1339 57.5393 12.1339C55.5536 12.1339 53.1018 12.2948 50.184 12.6168L46.4151 13.0997V4.40682ZM45.5641 38.8163C45.5641 36.2003 45.6452 34.0874 45.8072 32.4777C45.9694 30.8679 46.3138 29.4795 46.8406 28.3123C47.408 27.0648 48.1983 25.9982 49.2114 25.1129C50.2651 24.1872 51.6835 23.3622 53.4665 22.6378L60.5787 19.8005C61.4703 19.4383 62.2403 19.1163 62.8886 18.8346C63.5371 18.5126 63.9828 18.2108 64.226 17.9291C64.5097 17.6475 64.6921 17.3255 64.7731 16.9633C64.8542 16.5608 64.8946 15.9974 64.8946 15.273V2.95801C66.8399 3.07874 68.5014 3.32021 69.8793 3.68241C71.2977 4.00438 72.5134 4.54769 73.5265 5.31234C75.8771 7.12336 77.0522 10.2625 77.0522 14.7297C77.0522 18.5932 76.4039 21.4707 75.107 23.3622C73.8913 25.1732 71.9056 26.5818 69.1498 27.5879L60.5179 30.9081C59.7885 31.1898 59.1806 31.4514 58.6943 31.6929C58.2486 31.9344 57.9243 32.1759 57.7217 32.4173C57.5191 32.6588 57.3976 32.9808 57.3569 33.3832C57.3165 33.7856 57.2962 34.4497 57.2962 35.3753V44.9134H45.5641V38.8163ZM59.8493 35.4961H77.0522V44.9134H59.8493V35.4961Z" fill="#57181B"/>
<path fill-rule="evenodd" clip-rule="evenodd" d="M99.985 44.9738C100.998 45.2152 102.173 45.336 103.511 45.336C105.132 45.336 106.51 45.0744 107.644 44.5512C108.82 44.0281 109.772 43.1829 110.501 42.0158C111.92 39.6816 112.629 35.5564 112.629 29.6404C112.629 23.7646 111.92 19.6194 110.501 17.2047C109.083 14.8706 106.753 13.7034 103.511 13.7034C102.052 13.7034 100.856 13.8242 99.9242 14.0656C98.9922 14.2669 98.1208 14.6895 97.3103 15.3333L93.6856 23.7244L97.979 23C98.6679 23 99.2961 23.0402 99.8634 23.1207C100.309 23.2013 100.613 23.4427 100.775 23.8451C100.978 24.2475 101.099 24.8916 101.14 25.7769C101.181 26.3806 101.201 27.6281 101.201 29.5197C101.201 31.4113 101.181 32.6588 101.14 33.2625C101.099 34.1076 100.978 34.7515 100.775 35.1942C100.573 35.5565 100.269 35.7979 99.8634 35.9187C99.4987 35.9992 98.8706 36.0394 97.979 36.0394H93.6856L97.3103 43.7061C98.1208 44.3097 99.0124 44.7323 99.985 44.9738ZM134.398 23.6037C134.48 24.0464 134.52 24.7909 134.52 25.8373V44.9134H145.766V26.5617C145.766 23.9055 145.624 21.8329 145.34 20.3438C145.097 18.8548 144.55 17.6273 143.699 16.6614C142.726 15.615 141.267 14.8504 139.322 14.3675C137.417 13.8845 134.763 13.643 131.359 13.643C126.942 13.643 122.828 14.0052 119.019 14.7297V22.5774L122.241 22.3963C123.903 22.2354 125.706 22.1549 127.651 22.1549C129.678 22.1549 130.994 22.175 131.602 22.2152C132.615 22.2957 133.304 22.4365 133.669 22.6378C134.074 22.8391 134.317 23.1609 134.398 23.6037ZM119.323 43.042C120.661 44.5714 122.727 45.336 125.523 45.336C126.942 45.336 128.137 45.2152 129.11 44.9738C130.123 44.7725 131.076 44.3299 131.967 43.6457V37.4882H131.359C130.711 37.4882 130.103 37.448 129.535 37.3675C129.131 37.3273 128.827 37.1662 128.624 36.8845C128.462 36.6833 128.34 36.4218 128.259 36.0998C128.219 35.7778 128.198 35.315 128.198 34.7113C128.198 33.9467 128.219 33.4436 128.259 33.2021C128.299 32.4777 128.725 32.0953 129.535 32.0551C129.819 32.0149 130.427 31.9948 131.359 31.9948H131.967V26.6221L126.861 26.5013C124.875 26.5013 123.274 26.6623 122.059 26.9843C120.843 27.2659 119.89 27.769 119.202 28.4935C118.513 29.1777 118.026 30.1234 117.743 31.3307C117.459 32.4979 117.317 34.0473 117.317 35.979C117.317 39.1181 117.986 41.4725 119.323 43.042ZM169.328 14.1864C168.194 14.5084 167.201 15.0717 166.35 15.8766V25.3543C167.079 24.7507 168.012 24.3281 169.146 24.0866C170.322 23.8451 171.821 23.7244 173.644 23.7244V13.643C171.942 13.643 170.504 13.8242 169.328 14.1864ZM163.797 14.126H152.551V44.9134H163.797V14.126Z" fill="#27211C"/>
<path d="M94.6416 0.0603638H81.736C81.736 0.0603638 79.8241 18.688 85.5599 23C91.2957 27.312 80.3021 44.9134 80.3021 44.9134H94.6416C94.6416 44.9134 84.8042 25.9073 90.3397 23C95.8753 20.0927 94.6416 0.0603638 94.6416 0.0603638Z" fill="#27211C"/>
<path d="M174.909 23.9583C174.909 28.7713 183.588 37.2959 174.91 38.3333C166.38 36.8514 174.909 28.7713 174.909 23.9583Z" fill="#7E1217"/>
</svg>
