<svg width="46" height="32" viewBox="0 0 46 32" fill="none" xmlns="http://www.w3.org/2000/svg">
<rect x="0.5" y="0.5" width="45" height="31" rx="5.5" fill="white"/>
<rect x="0.5" y="0.5" width="45" height="31" rx="5.5" stroke="#F5F5F5"/>
<path d="M28.7695 6.70654C33.7627 6.70654 37.8105 10.7064 37.8105 15.6401C37.8104 20.5738 33.7626 24.5728 28.7695 24.5728C26.5311 24.5727 24.4842 23.7675 22.9053 22.436C21.3264 23.7675 19.2795 24.5727 17.041 24.5728C12.0479 24.5728 8.00014 20.5738 8 15.6401C8 10.7064 12.0479 6.70654 17.041 6.70654C19.2794 6.70657 21.3264 7.5119 22.9053 8.84326C24.4841 7.5119 26.5312 6.70658 28.7695 6.70654Z" fill="#ED0006"/>
<path d="M28.7696 6.70654C33.7627 6.70654 37.8106 10.7064 37.8106 15.6401C37.8104 20.5738 33.7626 24.5728 28.7696 24.5728C26.5311 24.5727 24.4842 23.7675 22.9053 22.436C24.8483 20.7976 26.082 18.3619 26.0821 15.6401C26.0821 12.9181 24.8485 10.4818 22.9053 8.84326C24.4842 7.5119 26.5312 6.70657 28.7696 6.70654Z" fill="#F9A000"/>
<path d="M22.9046 8.84375C24.8478 10.4822 26.0812 12.9177 26.0814 15.6396C26.0814 18.3616 24.8477 20.797 22.9046 22.4355C20.962 20.797 19.7288 18.3612 19.7288 15.6396C19.7289 12.9181 20.9619 10.4822 22.9046 8.84375Z" fill="#FF5E00"/>
</svg>
