<svg width="60" height="36" viewBox="0 0 60 36" fill="none" xmlns="http://www.w3.org/2000/svg">
<g clip-path="url(#clip0_684_14425)">
<path d="M18.2594 30.9585C17.835 30.9585 17.6228 30.9472 17.5049 30.913C17.4932 31.0496 17.446 31.3228 17.4106 31.4252C17.5521 31.3797 17.7171 31.3569 18.059 31.3341C18.3655 31.3228 18.4833 31.3228 18.6837 31.3228V33.0528C18.6837 33.6333 18.6602 34.1911 18.6366 34.3732C18.7427 34.3618 18.8723 34.3504 19.0492 34.3504C19.1552 34.3504 19.2613 34.3504 19.3203 34.3618C19.2967 34.1683 19.2731 33.5878 19.2731 33.0415V31.3114C19.6385 31.3114 19.8271 31.3114 20.004 31.3341C20.2869 31.3569 20.4401 31.3797 20.5226 31.448C20.5226 31.2659 20.5462 31.061 20.5816 30.9016C20.4873 30.9244 20.1336 30.9472 19.8271 30.9472L18.2594 30.9585Z" fill="#535862"/>
<path d="M21.9372 33.9862C21.8901 33.9862 21.8429 33.9634 21.8312 33.952C21.8076 33.9293 21.7958 33.8155 21.7958 33.0073V32.7569C21.7958 32.7455 21.8076 32.7342 21.8194 32.7342C21.9255 32.7342 22.4088 32.7455 22.5738 32.7569C22.7742 32.7683 22.8567 32.8024 22.9392 32.8366C22.9392 32.7114 22.951 32.4724 22.9864 32.3244C22.9274 32.3472 22.8331 32.3585 22.562 32.3699C22.4088 32.3699 21.9255 32.3699 21.8312 32.3699C21.8194 32.3699 21.8076 32.3585 21.8076 32.3472V31.3455C21.8076 31.3342 21.8194 31.3341 21.8312 31.3341C22.1376 31.3341 22.4323 31.3455 22.5856 31.3569C22.8449 31.3797 22.951 31.4024 23.0217 31.448C23.0217 31.2317 23.0453 31.0268 23.0689 30.9358C22.9746 30.9585 22.7624 30.9585 22.6327 30.9585H21.5247C21.395 30.9585 21.23 30.9585 21.1475 30.9472C21.1828 31.0837 21.2064 31.5163 21.2064 32.2675V33.0642C21.2064 33.7244 21.171 34.2138 21.1592 34.3846C21.23 34.3732 21.3714 34.3732 21.56 34.3732C21.8194 34.3732 22.1848 34.4073 22.8213 34.4073C23.0099 34.4073 23.0689 34.4073 23.0807 34.3846C23.1042 34.2707 23.1514 34.0545 23.1985 33.9065C23.0335 33.9748 22.7978 34.0089 22.397 34.0089C22.1848 34.0089 22.0669 34.0089 21.9372 33.9862Z" fill="#535862"/>
<path d="M27.2887 34.4301L26.664 34.1C27.1473 33.7472 27.4302 33.235 27.4302 32.5862C27.4302 31.6415 26.7347 30.8789 25.5913 30.8789C24.3064 30.8789 23.6816 31.8122 23.6816 32.6886C23.6816 33.4626 24.2003 34.4528 25.5205 34.4528C25.7091 34.4528 25.8978 34.4415 26.1335 34.3504L26.8172 34.7488C27.772 35.2951 28.3496 35.5114 29.0333 35.5114C29.4105 35.5114 29.8938 35.4545 30.2357 35.2382C30.2475 35.1813 30.271 35.0106 30.2946 34.9423C29.9881 35.0561 29.6463 35.0902 29.3398 35.0902C28.7504 35.0789 28.1964 34.9081 27.2887 34.4301ZM25.6502 34.0886C24.8368 34.0886 24.3535 33.4171 24.3535 32.552C24.3535 31.7211 24.8133 31.2317 25.4734 31.2317C26.275 31.2317 26.7583 31.9033 26.7583 32.7114C26.7583 33.7927 26.1099 34.0886 25.6502 34.0886Z" fill="#535862"/>
<path d="M30.6837 30.9472C30.7073 31.1179 30.7427 31.6073 30.7427 32.2675V32.7569C30.7427 33.326 30.6955 33.5992 30.4598 33.8268C30.2947 33.9862 30.0472 34.0317 29.8704 34.0317C29.6936 34.0317 29.446 34.0089 29.2338 33.8382C29.0216 33.6675 28.9038 33.4398 28.9038 32.8707V32.2561C28.9038 31.6073 28.9273 31.0951 28.9509 30.9358C28.8684 30.9472 28.7152 30.9585 28.5148 30.9585C28.4205 30.9585 28.3026 30.9585 28.2437 30.9472C28.279 31.0837 28.3026 31.6073 28.3026 32.2675V32.9959C28.3026 33.6561 28.4676 33.952 28.7152 34.1569C28.9745 34.3846 29.3871 34.4642 29.7525 34.4642C30.0708 34.4642 30.4362 34.4073 30.7191 34.1683C31.1435 33.8268 31.1906 33.3033 31.1906 32.7683V32.2561C31.1906 31.6073 31.2142 31.0951 31.2495 30.9358C31.2142 30.9472 31.0727 30.9585 30.9195 30.9585C30.8605 30.9585 30.7427 30.9472 30.6837 30.9472Z" fill="#535862"/>
<path d="M32.888 32.2561C32.888 31.6073 32.9116 31.1065 32.9352 30.9358C32.888 30.9472 32.7348 30.9585 32.5344 30.9585C32.4401 30.9585 32.2986 30.9585 32.2515 30.9472C32.2868 31.0951 32.2986 31.6073 32.2986 32.2675V33.0642C32.2986 33.6447 32.275 34.2024 32.2515 34.3846C32.3104 34.3732 32.5108 34.3618 32.6522 34.3618C32.7701 34.3618 32.888 34.3618 32.9469 34.3732C32.9116 34.2366 32.8998 33.5992 32.8998 33.0528V32.2561H32.888Z" fill="#535862"/>
<path d="M34.9273 33.9976C34.8684 33.9976 34.8212 33.9862 34.8094 33.9634C34.7858 33.9407 34.7741 33.8382 34.7741 33.0187V32.2447C34.7741 31.6187 34.7976 31.1179 34.8212 30.9472C34.7623 30.9585 34.5972 30.9699 34.4204 30.9699C34.3261 30.9699 34.1729 30.9699 34.1257 30.9585C34.1611 31.1065 34.1847 31.6187 34.1847 32.2789V33.0756C34.1847 33.7358 34.1611 34.2252 34.1375 34.3959C34.2082 34.3959 34.3025 34.3846 34.4676 34.3846C34.7976 34.3846 35.0805 34.4073 35.7642 34.4073C35.9882 34.4073 36.0589 34.4073 36.0825 34.3959C36.1061 34.3049 36.1768 34.0317 36.224 33.9179C36.0825 33.9862 35.835 34.0203 35.3752 34.0203C35.1748 34.0089 35.0216 34.0089 34.9273 33.9976Z" fill="#535862"/>
<path d="M38.4047 31.0951C38.3222 30.913 38.2868 30.8789 38.2633 30.8789C38.2279 30.8789 38.2043 30.9244 38.1218 31.0951L37.1788 33.2122C36.943 33.7358 36.7544 34.1455 36.6248 34.3846C36.6719 34.3732 36.8251 34.3618 36.9784 34.3618C37.1198 34.3618 37.1906 34.3618 37.2495 34.3732C37.3084 34.1683 37.4617 33.7244 37.6031 33.3715C37.6031 33.3602 37.6149 33.3602 37.6267 33.3602H38.7937C38.8055 33.3602 38.8055 33.3602 38.8173 33.3715C38.947 33.6675 39.1591 34.1683 39.2416 34.3732C39.3124 34.3618 39.5128 34.3504 39.6778 34.3504C39.7367 34.3504 39.8664 34.3504 39.9843 34.3618C39.8428 34.1683 39.5835 33.622 39.3595 33.1325C38.9352 32.2447 38.4637 31.2317 38.4047 31.0951ZM38.6405 32.9959H37.7446C37.7328 32.9959 37.7328 32.9959 37.7328 32.9732L38.1807 31.8463L38.6523 32.9732C38.6523 32.9846 38.6523 32.9959 38.6405 32.9959Z" fill="#535862"/>
<path d="M20.7702 27.3049V27.4415H25.2614V27.3049C25.2614 27.3049 24.118 27.1797 24.118 26.6106C24.118 26.0415 24.118 18.2447 24.118 18.2447H25.6975L26.2987 20.0317H26.5109L27.8075 17.6073H18.2358L19.5325 20.0317H19.7447L20.2633 18.2447H21.9019V26.6106C21.9136 27.2366 20.7702 27.3049 20.7702 27.3049ZM23.0335 18.5862C23.1867 21.2154 23.1867 23.8902 23.0335 26.5195C22.8802 23.8902 22.8802 21.2154 23.0335 18.5862Z" fill="#535862"/>
<path d="M57.7249 17.5959H54.5657V17.7325L55.8624 18.4268L55.9095 24.5618L51.1119 17.5959H48.4125V17.7325L49.273 18.8366V26.6106C49.273 27.2707 48.1414 27.3049 48.1414 27.3049V27.4415H51.1001V27.3049C51.1001 27.3049 49.9685 27.3732 49.9685 26.6106C49.9685 25.848 49.9213 19.4398 49.9213 19.4398L55.3201 27.4415H56.4871V18.4268L57.7366 17.7325L57.7249 17.5959ZM50.5579 18.5862C52.3378 20.9309 54.0235 23.378 55.5559 25.8821C53.7641 23.5374 52.0903 21.0789 50.5579 18.5862Z" fill="#535862"/>
<path d="M9.37132 20.3845C9.37132 19.0984 8.4165 17.6984 6.01179 17.5845H1.04912V17.7211L1.96857 18.4154V22.661C1.02554 22.274 0.495088 21.5341 0 21.1585V22.7406C0.447937 22.9455 0.907662 23.2187 1.98035 23.3894V26.6106C1.98035 27.3049 0.978389 27.3049 0.978389 27.3049V27.4415H5.63458V27.3049C5.63458 27.3049 4.20825 27.3163 4.20825 26.6106C4.20825 25.9276 4.20825 23.6854 4.20825 23.5374C7.39096 23.4691 9.37132 21.978 9.37132 20.3845ZM8.36935 19.9862C8.48723 20.5553 8.28684 21.1585 7.94499 21.6252C7.72102 21.9325 7.46169 22.2171 7.14342 22.4333C7.39096 22.1488 7.61493 21.8528 7.80354 21.5341C8.0275 21.1358 8.19254 20.7146 8.18075 20.2707C8.16896 19.6333 7.87426 19.0301 7.42633 18.5748C7.9332 18.8821 8.27505 19.4171 8.36935 19.9862ZM3.01768 26.5195C2.86444 23.8902 2.86444 21.2154 3.01768 18.5862C3.17092 21.2154 3.17092 23.8902 3.01768 26.5195ZM4.17289 23.0366L4.18468 18.074H4.92731C6.25933 18.074 7.14342 18.5748 7.14342 20.3049C7.14342 21.6935 6.4833 22.7065 5.23379 22.9797C4.91552 23.0138 4.56189 23.0366 4.17289 23.0366Z" fill="#535862"/>
<path d="M43.167 17.448C40.444 17.448 38.2515 19.9976 38.2515 22.5358C38.2515 25.074 40.444 27.6691 43.167 27.6691C45.8782 27.6691 48.0825 25.074 48.0825 22.5358C48.0825 19.9976 45.8782 17.448 43.167 17.448ZM40.1611 25.4496C39.6306 24.6301 39.3949 23.6626 39.3949 22.7065C39.3949 21.4772 39.7014 20.0886 40.5265 19.1211C40.0078 19.9179 39.7603 20.8512 39.6542 21.7732C39.5363 22.8545 39.6189 23.9699 40.055 24.9715C40.2082 25.3358 40.3968 25.6772 40.6326 25.9959C40.6798 26.0642 40.7269 26.1211 40.7858 26.1781C40.5265 25.9732 40.3379 25.7114 40.1611 25.4496ZM43.167 27.1911C41.7171 27.1911 40.833 25.2561 40.833 22.5472C40.833 19.8382 41.7171 17.9374 43.167 17.9374C44.6051 17.9374 45.501 19.8382 45.501 22.5472C45.501 25.2561 44.6051 27.1911 43.167 27.1911ZM46.1257 25.4496C45.9489 25.7228 45.7485 25.9732 45.501 26.1894C45.5599 26.1325 45.6071 26.0642 45.6542 26.0073C45.89 25.6886 46.0786 25.3472 46.2318 24.9829C46.6562 23.9699 46.7505 22.8545 46.6326 21.7846C46.5265 20.8626 46.279 19.9293 45.7721 19.1325C46.5972 20.1 46.9037 21.4886 46.9037 22.7179C46.8919 23.6626 46.6444 24.6301 46.1257 25.4496Z" fill="#535862"/>
<path d="M46.892 14.1813H44.228L42.5659 16.287H44.3223L46.892 14.1813ZM44.9588 14.7618C44.782 15.1374 44.4048 15.513 44.0276 15.6837C44.1926 15.3195 44.5816 14.9439 44.9588 14.7618Z" fill="#535862"/>
<path d="M15.6307 27.3049V27.4415H19.7446V27.3049C19.7446 27.3049 19.0727 27.1911 18.7427 26.5309C18.6248 26.2919 18.0708 25.0626 17.4224 23.5943C17.7171 23.5488 18.0236 23.526 18.3301 23.526L17.6464 22.0122C17.4224 22.0122 17.1395 22.1032 16.8212 22.2626C16.2436 20.9423 15.6543 19.6219 15.277 18.7797L16.3144 17.778V17.5732H12.1297V17.7098L13.1552 19.3146C12.7309 20.2593 12.1533 21.5455 11.611 22.7748C10.9745 22.2967 10.3851 21.9553 9.97252 21.9553L9.30062 23.4236C9.98431 23.4236 10.6091 23.5602 11.1749 23.765C10.503 25.2447 9.96074 26.4626 9.86643 26.6219C9.64247 27.0431 9.33598 27.2935 8.91162 27.2935V27.4301H11.4224V27.2935C10.7977 27.2935 10.3379 27.0886 10.5501 26.6219C10.5973 26.5309 11.1159 25.3358 11.6935 23.9813C12.5423 24.3797 13.2024 24.8919 13.6621 25.2219C14.0393 24.9488 14.6287 24.5732 15.336 24.2317C15.8546 25.3471 16.3144 26.3032 16.4322 26.5195C16.7623 27.1228 15.6307 27.3049 15.6307 27.3049ZM10.1847 22.8317C10.8448 22.8772 11.5639 23.2756 12.0354 23.7195C11.4224 23.435 10.8212 23.0821 10.1847 22.8317ZM13.7093 24.5732C13.226 24.152 12.6484 23.6171 12.059 23.1504C12.7427 21.5683 13.391 20.0431 13.391 20.0431C13.391 20.0431 14.2044 21.8073 14.9823 23.4919C14.5344 23.8675 14.0747 24.2431 13.7093 24.5732ZM13.9214 18.552C15.2535 21.1358 16.4794 23.8219 17.5285 26.5195C16.1965 23.9358 14.9823 21.2496 13.9214 18.552Z" fill="#535862"/>
<path d="M38.169 26.2577C36.3537 26.1894 34.3734 24.0382 33.4775 23.2528C35.4814 22.6951 36.6602 21.4317 36.6602 20.2024C36.6602 18.9163 35.7054 17.6984 33.3007 17.5959H28.338V17.7325L29.2575 18.4268V22.6724C28.3026 22.274 27.784 21.5228 27.2771 21.1472V22.7293C27.725 22.9341 28.1848 23.2073 29.2575 23.378V26.5992C29.2575 27.1341 28.2555 27.2935 28.2555 27.2935V27.4301H32.9117V27.2935C32.9117 27.2935 31.4854 27.0431 31.4854 26.5992C31.4854 26.1553 31.4854 23.5374 31.4854 23.5374H31.1317C31.5443 23.5374 32.2987 23.4691 32.2987 23.4691C32.2987 23.4691 32.7113 24.0951 32.7231 24.0951C33.6897 25.552 35.2221 27.7374 36.4127 27.7374C37.6386 27.7488 38.169 26.9406 38.169 26.2577ZM30.3537 26.5195C30.2005 23.8902 30.2005 21.2154 30.3537 18.5862C30.4952 21.2154 30.4952 23.8902 30.3537 26.5195ZM34.7152 18.5862C35.3518 18.9732 35.729 19.7358 35.6818 20.4642C35.6465 21.0219 35.3164 21.5228 34.892 21.887C34.7506 22.0008 34.5973 22.1146 34.4323 22.1943C34.951 21.739 35.4107 21.1358 35.4578 20.4528C35.505 19.7585 35.2103 19.0756 34.7152 18.5862ZM31.4736 23.0366V22.8545V18.0626H32.2162C33.5482 18.0626 34.4323 18.2333 34.4323 20.1114C34.4323 22.8089 31.4736 23.0366 31.4736 23.0366ZM36.5305 26.7927C35.505 26.4626 34.1612 24.9943 33.5364 24.1293C34.0551 24.6301 34.5502 25.1309 35.0806 25.6203C35.34 25.8593 35.6111 26.0984 35.8822 26.3146C36.1651 26.5195 36.448 26.7585 36.8134 26.8154C36.7074 26.8382 36.6131 26.8268 36.5305 26.7927Z" fill="#535862"/>
<path d="M27.1199 9.79998C27.6385 10.0618 28.2279 10.3122 28.8645 10.5284C29.5128 10.3236 30.0904 10.0732 30.6091 9.79998C29.9725 9.68616 29.3949 9.53819 28.8645 9.36746C28.334 9.53819 27.7446 9.68616 27.1199 9.79998Z" fill="#535862"/>
<path d="M30.4009 7.13577C29.8115 7.01056 29.281 6.85121 28.7977 6.68048C28.3144 6.85121 27.784 7.01056 27.1946 7.13577C27.6661 7.37479 28.1965 7.61381 28.7977 7.83007C29.3871 7.61381 29.9294 7.37479 30.4009 7.13577Z" fill="#535862"/>
<path d="M31.658 6.14633C30.88 5.63413 29.8781 5.38373 28.8643 5.38373C27.8624 5.38373 26.8486 5.64552 26.0706 6.14633C25.0922 6.7382 24.6089 7.76259 24.6796 8.86665C24.8447 10.813 26.3299 12.5317 28.0274 13.5561C28.2985 13.7268 28.5814 13.852 28.8643 13.9772C29.1472 13.852 29.4301 13.7268 29.7012 13.5561C31.3987 12.5317 32.884 10.813 33.049 8.86665C33.1079 7.76259 32.6246 6.7382 31.658 6.14633ZM28.8643 13.6016C28.6286 13.5333 27.8741 13.078 27.768 12.9756C28.1099 13.1122 28.4753 13.2374 28.8643 13.3398C29.2533 13.2374 29.6187 13.1122 29.9606 12.9756C29.8545 13.0667 29.1001 13.5219 28.8643 13.6016ZM32.495 9.78861C32.4714 9.8569 32.4478 9.92519 32.4242 9.9821C31.9056 9.95934 31.4223 9.92519 30.9508 9.84552C30.4439 10.1187 29.8427 10.3919 29.159 10.6309C29.7366 10.7902 30.3614 10.9268 31.0451 11.0065C31.2572 10.8927 31.4694 10.7675 31.658 10.6536C31.9056 10.4943 32.1295 10.3349 32.3417 10.1756C32.2828 10.3008 32.2238 10.4374 32.1531 10.5626C32.0352 10.6423 31.9056 10.7333 31.7759 10.813C31.658 10.8927 31.5284 10.961 31.3987 11.0406C31.5519 11.052 31.6934 11.0634 31.8466 11.0748C31.7995 11.1431 31.7523 11.2 31.7052 11.2683C31.493 11.2569 31.2808 11.2341 31.0804 11.2114C30.5382 11.5073 29.9016 11.7919 29.1708 12.0309C29.6659 12.1561 30.1846 12.2585 30.7386 12.3154C30.6679 12.3723 30.6089 12.4406 30.5382 12.4975C29.937 12.4179 29.3712 12.3041 28.8407 12.1447C28.3221 12.2927 27.7563 12.4179 27.1433 12.4975C27.0726 12.4406 27.0018 12.3837 26.9429 12.3154C27.4969 12.2471 28.0274 12.1561 28.5107 12.0309C27.7916 11.7919 27.1551 11.5073 26.6011 11.2114C26.4007 11.2341 26.1885 11.2569 25.9763 11.2683C25.9291 11.2 25.882 11.1431 25.8348 11.0748C25.9881 11.0634 26.1413 11.052 26.2828 11.0406C26.1531 10.961 26.0234 10.8813 25.9056 10.813C25.7759 10.7333 25.6462 10.6423 25.5284 10.5626C25.4576 10.4374 25.3987 10.3122 25.3398 10.1756C25.5519 10.3349 25.7759 10.4943 26.0234 10.6536C26.2121 10.7675 26.4124 10.8927 26.6364 11.0065C27.3201 10.9268 27.9449 10.7902 28.5225 10.6309C27.8388 10.3919 27.2376 10.1187 26.7307 9.84552C26.271 9.91381 25.7759 9.95934 25.2572 9.9821C25.2337 9.91381 25.2101 9.84552 25.1865 9.78861C25.6227 9.77722 26.0352 9.74308 26.436 9.69755C26.4007 9.67478 26.3771 9.6634 26.3417 9.64064C25.8113 9.32194 25.3515 9.00324 24.9979 8.70731C24.9979 8.62763 24.9979 8.54796 25.0097 8.47966C25.5284 8.4569 26.0824 8.39999 26.5539 8.32031C26.047 8.02438 25.6227 7.73983 25.2808 7.47804L25.3869 7.27316C25.4223 7.21625 25.4576 7.15934 25.5048 7.11381C25.9056 7.06828 26.2828 7.02275 26.6482 6.95446C26.4242 6.82926 26.2238 6.70405 26.047 6.57885C26.106 6.53332 26.1649 6.48779 26.2356 6.45365C26.4596 6.59023 26.6954 6.7382 26.9665 6.88617C27.5441 6.77235 28.0745 6.62438 28.5696 6.45365C28.2396 6.32844 27.9331 6.20324 27.662 6.07804C27.5677 6.03251 27.4616 5.98698 27.3673 5.94145C27.4734 5.90731 27.5677 5.88454 27.6737 5.86178C27.6973 5.87316 27.7327 5.88454 27.7563 5.89592C28.0745 6.04389 28.44 6.19186 28.8407 6.33983C29.2415 6.19186 29.6069 6.04389 29.9252 5.89592C29.9488 5.88454 29.9842 5.87316 30.0077 5.86178C30.1138 5.88454 30.2081 5.90731 30.3142 5.94145C30.2199 5.98698 30.1256 6.03251 30.0195 6.07804C29.7484 6.20324 29.4419 6.32844 29.1119 6.45365C29.6069 6.613 30.1374 6.76096 30.715 6.88617C30.9861 6.7382 31.2337 6.59023 31.4458 6.45365C31.5166 6.49918 31.5755 6.53332 31.6345 6.57885C31.4458 6.70405 31.2455 6.81787 31.0333 6.95446C31.3987 7.02275 31.7759 7.07966 32.1767 7.11381C32.2121 7.17072 32.2592 7.21625 32.2946 7.27316L32.4007 7.47804C32.0588 7.73983 31.6345 8.03576 31.1276 8.32031C31.5991 8.39999 32.1531 8.44552 32.6718 8.47966C32.6718 8.55934 32.6836 8.62763 32.6836 8.70731C32.3181 9.00324 31.8702 9.32194 31.3398 9.64064C31.3044 9.6634 31.2808 9.67478 31.2455 9.69755C31.6462 9.74308 32.0706 9.77722 32.495 9.78861Z" fill="#535862"/>
<path d="M26.9233 11.2789C27.4656 11.552 28.0903 11.8138 28.7976 12.0301C29.5049 11.8138 30.1296 11.552 30.6719 11.2789C29.9882 11.1878 29.3634 11.0398 28.7976 10.8577C28.22 11.0398 27.5952 11.1878 26.9233 11.2789Z" fill="#535862"/>
<path d="M30.8565 8.47966C30.3732 8.74145 29.8073 9.00324 29.1472 9.24226C29.6895 9.40161 30.2671 9.54958 30.9036 9.64064C31.493 9.31055 31.9999 8.96909 32.4124 8.66177C31.8702 8.62763 31.3515 8.55933 30.8565 8.47966Z" fill="#535862"/>
<path d="M26.8055 8.5813C26.3222 8.67236 25.8035 8.72927 25.2495 8.76341C25.6621 9.07073 26.1572 9.41219 26.7584 9.74227C27.3949 9.63984 27.9843 9.50325 28.5147 9.3439C27.8546 9.10488 27.277 8.83171 26.8055 8.5813Z" fill="#535862"/>
<path d="M30.8211 8.26339C31.4105 7.94469 31.8938 7.61461 32.2828 7.31868C31.7523 7.27315 31.2572 7.19347 30.7857 7.10242C30.6914 7.15933 30.5853 7.20486 30.4792 7.26177C30.0902 7.45526 29.6423 7.66014 29.1472 7.84225C29.6659 8.0016 30.2199 8.14957 30.8211 8.26339Z" fill="#535862"/>
<path d="M28.8643 9.12843C29.5008 8.91217 30.0667 8.66176 30.5382 8.42274C29.9252 8.29753 29.3712 8.13818 28.8643 7.96745C28.3574 8.13818 27.8034 8.29753 27.1904 8.42274C27.6619 8.66176 28.2278 8.91217 28.8643 9.12843Z" fill="#535862"/>
<path d="M28.5147 7.94391C28.0078 7.76179 27.5599 7.55692 27.1827 7.36342C27.0766 7.30651 26.9823 7.26098 26.8762 7.20407C26.4047 7.29513 25.9096 7.3748 25.3792 7.42033C25.7564 7.71627 26.2514 8.04635 26.8408 8.36505C27.442 8.25123 27.996 8.10326 28.5147 7.94391Z" fill="#535862"/>
<path d="M19.2967 12.8154C20.0158 12.8154 20.6052 12.2577 20.6288 11.5748C20.7584 11.7114 20.947 11.7911 21.1592 11.7911C21.6543 11.7911 22.0551 11.4041 22.0551 10.926C22.0551 10.6073 21.9136 10.3114 21.6543 10.1179C21.6307 10.0951 21.5954 10.0724 21.56 10.0496C21.949 9.85609 22.2201 9.4691 22.2201 9.01382C22.2201 8.49024 21.7722 8.05772 21.2299 8.05772C20.782 8.05772 20.4166 8.41056 20.4166 8.84308C20.4166 9.20731 20.8292 9.49186 21.0885 9.49186C21.2889 9.49186 21.4657 9.35528 21.4657 9.1504C21.4657 8.94552 21.3125 8.8317 21.1356 8.8317C20.9588 8.8317 20.8056 8.96829 20.8056 9.13902C20.7231 9.05934 20.6641 8.95691 20.6641 8.8317C20.6641 8.53577 20.9235 8.28536 21.2299 8.28536C21.6425 8.28536 21.9726 8.60406 21.9726 9.00243C21.9726 9.51463 21.5482 9.92439 21.0178 9.92439C20.3459 9.92439 19.7918 9.38943 19.7918 8.74065C19.7918 8.31951 20.0276 7.86422 20.4048 7.55691C20.6995 7.3065 21.0413 7.19268 21.336 7.23821L22.562 7.47723C22.9392 7.55691 23.3164 7.42032 23.5639 7.13577C23.8586 6.7943 23.7997 6.28211 23.4343 6.00894C23.1396 5.7813 22.7034 5.82682 22.4559 6.11138C22.2555 6.3504 22.2908 6.70325 22.5384 6.89674C22.5973 6.94227 22.6681 6.93089 22.7152 6.87398C22.7624 6.81707 22.7506 6.74878 22.6916 6.70325C22.5502 6.58943 22.5266 6.39593 22.6445 6.25934C22.7977 6.07723 23.0806 6.04308 23.2692 6.19105C23.5168 6.38455 23.5639 6.73739 23.3518 6.9878C23.1749 7.20406 22.8802 7.3065 22.5973 7.24959L21.3596 7.01056C21.2771 6.99918 21.1946 6.99918 21.1121 6.99918C21.2889 6.89674 21.4775 6.78292 21.6897 6.6691C21.7486 6.63495 21.7722 6.56666 21.7368 6.50975C21.7015 6.45284 21.6307 6.43008 21.5718 6.46422C21.0178 6.76016 20.6052 7.02195 20.2516 7.28373C19.78 7.63658 19.4028 8.00081 18.9549 8.54715C18.1769 9.49186 17.8586 10.4366 17.9411 11.5406C17.9647 12.2463 18.5541 12.8154 19.2967 12.8154ZM19.1671 8.69512C19.3439 8.47886 19.5207 8.28536 19.6857 8.11463C19.5914 8.31951 19.5443 8.54715 19.5443 8.76341C19.5443 9.54878 20.2044 10.1862 21.0178 10.1862C21.0885 10.1862 21.1592 10.1748 21.2299 10.1634C21.2417 10.1634 21.2417 10.1748 21.2535 10.1748C21.336 10.2089 21.4186 10.2545 21.5011 10.3114C21.6897 10.4707 21.8075 10.687 21.8075 10.9374C21.8075 11.2789 21.5246 11.552 21.171 11.552C20.8999 11.552 20.6877 11.3358 20.6877 11.0854C20.6877 10.8919 20.8527 10.7325 21.0531 10.7325C21.2064 10.7325 21.3242 10.8463 21.3242 10.9943C21.3242 11.0626 21.3832 11.1195 21.4539 11.1195C21.5246 11.1195 21.5836 11.0626 21.5836 10.9943C21.5836 10.7211 21.3478 10.4935 21.0649 10.4935C20.8056 10.4935 20.5816 10.6528 20.4873 10.8805C20.452 10.8236 20.4048 10.7667 20.3576 10.7098C20.3105 10.6642 20.2398 10.6528 20.1808 10.6984C20.1337 10.7439 20.1219 10.8122 20.169 10.8691C20.3223 11.0398 20.4048 11.2789 20.4048 11.5406C20.4048 12.1211 19.9215 12.5878 19.3203 12.5878C18.7191 12.5878 18.2358 12.1211 18.2358 11.5406C18.1297 10.4707 18.4244 9.5943 19.1671 8.69512Z" fill="#535862"/>
<path d="M23.4343 8.68375C23.4343 8.68375 22.7742 9.52602 22.8449 10.3797C22.8685 10.7439 23.2928 11.1423 23.8704 11.0171C23.2339 9.71952 23.4343 8.68375 23.4343 8.68375Z" fill="#535862"/>
<path d="M22.3616 12.6106C22.5855 12.861 22.9745 12.9748 23.281 12.8155C23.5875 12.6561 23.729 12.3374 23.5404 11.7797C23.2103 12.3488 22.8213 12.6902 22.3616 12.6106Z" fill="#535862"/>
<path d="M19.4381 11.074C19.3085 11.074 19.1906 11.1195 19.0963 11.2106C19.0491 11.2561 19.0491 11.3244 19.0963 11.3585C19.1434 11.4041 19.2142 11.4041 19.2495 11.3585C19.2967 11.313 19.3674 11.2903 19.4263 11.2903C19.4971 11.2903 19.556 11.313 19.6032 11.3585C19.7446 11.4951 19.7446 11.7 19.6032 11.8366C19.5206 11.9163 19.4028 11.9732 19.2731 11.9732C19.1434 11.9732 19.0373 11.9276 18.943 11.8366C18.7073 11.6089 18.7073 11.2447 18.943 11.0057C19.0727 10.8691 19.2495 10.7894 19.4735 10.7439C19.5324 10.7325 19.5678 10.6756 19.556 10.6187C19.5442 10.5618 19.4853 10.5276 19.4263 10.539C19.1552 10.5959 18.943 10.6984 18.778 10.8577C18.4597 11.1764 18.4597 11.6772 18.778 11.9846C18.9077 12.1098 19.0845 12.1781 19.2613 12.1781C19.4381 12.1781 19.6149 12.1098 19.7446 11.9846C19.9686 11.7683 19.9686 11.4155 19.7446 11.2106C19.6857 11.1195 19.5678 11.074 19.4381 11.074Z" fill="#535862"/>
<path d="M22.7386 7.7504C22.5736 7.87561 22.5146 7.86422 22.326 7.79593C22.2435 7.77317 22.1492 7.72764 22.0196 7.70487L21.9842 7.69349C21.5716 7.60244 21.0412 7.47723 20.664 7.71626C20.6168 7.7504 20.5932 7.8187 20.6286 7.86422C20.664 7.90975 20.7347 7.93252 20.7818 7.89837C21.0883 7.70487 21.5363 7.80731 21.937 7.89837L21.9724 7.90975C22.0903 7.93252 22.1728 7.96666 22.2435 7.98943C22.3378 8.02357 22.4321 8.05772 22.5264 8.05772C22.6325 8.05772 22.7386 8.02357 22.8683 7.90975C22.9154 7.87561 22.9272 7.80731 22.8801 7.76178C22.8565 7.71626 22.7858 7.70487 22.7386 7.7504Z" fill="#535862"/>
<path d="M24.0472 6.14553C24.0472 6.14553 25.0609 5.54228 25.4853 5.36017C24.6955 5.47399 24.1061 5.54228 23.7053 5.67887C23.8586 5.81545 24 5.98618 24.0472 6.14553Z" fill="#535862"/>
<path d="M19.2614 9.04797C18.837 9.52602 18.5895 10.1407 18.5305 10.5846C19.0845 10.2089 19.2496 10.152 19.8625 10.1065C19.4971 9.94716 19.2614 9.68537 19.2614 9.04797Z" fill="#535862"/>
<path d="M19.1787 13.6919C19.992 13.6919 20.546 13.3732 20.8643 13.1C21.1237 12.8724 21.3123 12.6333 21.4183 12.4057C21.548 12.7813 21.937 13.4642 22.939 13.4642C23.3987 13.4642 23.7523 13.339 23.9763 13.1C24.2003 12.861 24.2356 12.5764 24.2356 12.4285C24.3889 12.3602 24.6836 12.1781 24.8132 11.8821C24.8958 11.6886 24.884 11.4724 24.7661 11.2561L24.7543 11.2447C24.1413 10.3455 23.8938 9.33252 24.0352 8.21708C24.1531 7.20407 24.7779 6.52114 25.4144 6.07724C25.5559 5.9748 25.6973 5.89512 25.8152 5.82683C26.3574 5.51951 26.829 5.39431 26.8643 5.38293L27.0765 5.32602C27.3594 5.24634 27.9959 5.12114 28.7857 5.12114C29.5755 5.12114 30.2003 5.24634 30.495 5.32602L30.7071 5.38293C30.7425 5.39431 31.214 5.51951 31.7563 5.82683C31.8741 5.89512 32.0156 5.9748 32.157 6.07724C32.7936 6.52114 33.4183 7.20407 33.5362 8.21708C33.6659 9.33252 33.4301 10.3455 32.8172 11.2447L32.8054 11.2561C32.6993 11.4724 32.6875 11.6886 32.7582 11.8821C32.8761 12.1781 33.1826 12.3488 33.3358 12.4285C33.3358 12.5764 33.3712 12.861 33.5952 13.1C33.8191 13.339 34.1728 13.4642 34.6325 13.4642C35.6345 13.4642 36.0117 12.7813 36.1531 12.4057C36.2592 12.622 36.4478 12.8724 36.7071 13.1C37.0254 13.3732 37.5794 13.6919 38.3928 13.6919C39.1944 13.6919 39.8545 13.2821 40.2199 12.5878C40.5028 12.0415 40.5736 11.3585 40.4321 10.6073C40.2671 9.77642 39.8427 8.91138 39.1708 8.04634C37.9449 6.47561 35.9409 5.6561 34.4675 5.24634C32.9822 4.83659 31.7327 4.73415 31.5677 4.72277C31.2494 4.40407 30.8722 4.14228 30.4478 3.96016C30.5657 4.01708 30.6954 4.03984 30.8368 4.03984C31.3673 4.03984 31.8034 3.6187 31.8034 3.09512C31.8034 2.57155 31.3673 2.15041 30.8368 2.15041C30.3653 2.15041 29.9645 2.48049 29.882 2.92439C29.7641 2.83334 29.6462 2.74228 29.5519 2.68537C29.8702 1.68374 30.8486 0.841466 31.9095 0.727645C32.3574 0.670734 32.7582 0.795938 33.0294 1.05773C33.3005 1.31951 33.4301 1.70651 33.3712 2.13903C33.3594 2.25285 33.324 2.36667 33.2887 2.46911C33.2297 2.4122 33.1472 2.37805 33.0647 2.37805C32.8879 2.37805 32.7347 2.51464 32.7347 2.69675C32.7347 2.86748 32.8761 3.01545 33.0647 3.01545C33.1708 3.01545 33.2533 2.96992 33.324 2.90163C33.3358 2.87886 33.3594 2.8561 33.3712 2.83334C33.4891 2.62846 33.5716 2.40082 33.607 2.17317C33.6659 1.67236 33.5244 1.22846 33.1944 0.909759C32.8643 0.59106 32.4046 0.454474 31.8859 0.511385C30.7543 0.636588 29.717 1.52439 29.3751 2.57155C29.0569 2.45773 28.8093 2.46911 28.8093 2.46911C28.8093 2.46911 28.5618 2.45773 28.2435 2.57155C27.9016 1.52439 26.8525 0.636588 25.7327 0.511385C25.214 0.454474 24.7543 0.59106 24.4242 0.909759C24.0942 1.22846 23.9527 1.67236 24.0117 2.17317C24.0352 2.40082 24.1178 2.62846 24.2474 2.83334C24.2592 2.8561 24.271 2.87886 24.2946 2.90163C24.3535 2.96992 24.4478 3.01545 24.5539 3.01545C24.7307 3.01545 24.884 2.87886 24.884 2.69675C24.884 2.52602 24.7425 2.37805 24.5539 2.37805C24.4714 2.37805 24.3889 2.4122 24.3299 2.46911C24.2828 2.35529 24.2592 2.24147 24.2474 2.13903C24.1885 1.70651 24.3182 1.31951 24.5893 1.05773C24.8604 0.795938 25.2612 0.670734 25.7091 0.727645C26.77 0.852848 27.7366 1.68374 28.0549 2.68537C27.9606 2.74228 27.8309 2.83334 27.7248 2.92439C27.6423 2.48049 27.2415 2.15041 26.77 2.15041C26.2396 2.15041 25.8034 2.57155 25.8034 3.09512C25.8034 3.6187 26.2396 4.03984 26.77 4.03984C26.9115 4.03984 27.0411 4.00569 27.159 3.96016C26.7347 4.15366 26.3574 4.41545 26.0392 4.72277C25.8741 4.73415 24.6246 4.82521 23.1394 5.24634C21.6659 5.6561 19.662 6.47561 18.436 8.04634C17.7641 8.91138 17.3398 9.76504 17.1747 10.6073C17.0333 11.3472 17.104 12.0301 17.3869 12.5878C17.717 13.2821 18.3771 13.6919 19.1787 13.6919ZM23.7995 8.19431C23.658 9.35529 23.9174 10.4366 24.5539 11.3813C24.6246 11.5407 24.6364 11.6772 24.5893 11.8138C24.4714 12.1098 24.0824 12.2577 24.0706 12.2577L23.9881 12.2919L23.9999 12.3829C23.9999 12.3829 24.0235 12.713 23.7995 12.9634C23.6227 13.1569 23.3398 13.248 22.9508 13.248C22.0077 13.248 21.713 12.5537 21.6423 12.2691C21.8073 12.326 21.9606 12.3488 22.1138 12.3488C22.6089 12.3488 23.0333 12.0642 23.3398 11.4951L23.4105 11.3813L23.2808 11.3358C22.88 11.1878 22.6325 10.9488 22.5382 10.6301C22.3496 10.0154 22.715 9.0935 23.5991 7.90976C23.7523 7.70488 23.9056 7.52277 24.0588 7.35203C23.9174 7.59106 23.8348 7.88699 23.7995 8.19431ZM34.6561 13.2252C34.2671 13.2252 33.9842 13.1341 33.8073 12.9407C33.5716 12.7016 33.607 12.3715 33.607 12.3602L33.6187 12.2691L33.5362 12.235C33.5362 12.235 33.1354 12.087 33.0176 11.7911C32.9586 11.6545 32.9704 11.5179 33.0529 11.3585C33.7013 10.4138 33.9488 9.3439 33.8073 8.17155C33.772 7.86423 33.6895 7.56829 33.5598 7.29512C33.713 7.46586 33.8663 7.65935 34.0195 7.85285C34.9154 9.03659 35.269 9.95854 35.0804 10.5732C34.9861 10.8919 34.7386 11.1309 34.3378 11.2789L34.2081 11.3244L34.2789 11.4382C34.5971 12.0073 35.0097 12.2919 35.5048 12.2919C35.658 12.2919 35.8113 12.2691 35.9763 12.2122C35.8938 12.5309 35.5991 13.2252 34.6561 13.2252ZM34.4203 5.47399C35.8584 5.87236 37.8152 6.66911 38.994 8.19431C39.6423 9.0252 40.0549 9.8561 40.2081 10.6528C40.3496 11.3472 40.2789 11.9732 40.0195 12.474C39.7013 13.1 39.1119 13.4528 38.4164 13.4528C37.6737 13.4528 37.1787 13.1683 36.8958 12.9293C36.5303 12.622 36.3417 12.2577 36.2946 12.0187L36.2592 11.8707L36.1178 11.939C35.4576 12.2463 34.939 12.0984 34.55 11.4837C34.9508 11.3016 35.1983 11.0285 35.3044 10.6756C35.5166 9.9813 35.1394 8.99106 34.2081 7.73903C33.548 6.8626 32.8761 6.27073 32.3103 5.88374C32.2631 5.8496 32.2278 5.82683 32.1806 5.79269C32.0745 5.72439 31.9684 5.6561 31.8624 5.59919C31.4969 5.39431 31.2022 5.28049 31.0136 5.22358C31.2965 5.0187 31.5323 4.97317 31.5677 4.97317C31.6855 4.97317 32.935 5.06423 34.4203 5.47399ZM30.8604 2.42358C31.2494 2.42358 31.5677 2.7309 31.5677 3.10651C31.5677 3.48212 31.2494 3.78943 30.8604 3.78943C30.4714 3.78943 30.1531 3.48212 30.1531 3.10651C30.1531 2.7309 30.4714 2.42358 30.8604 2.42358ZM28.7857 3.25447H28.8093C29.2101 3.25447 29.6462 3.33415 29.9763 3.4935C30.0706 3.68699 30.2356 3.85773 30.436 3.94878C29.9409 3.73252 29.3869 3.60732 28.7975 3.60732C28.2081 3.60732 27.6541 3.73252 27.159 3.94878C27.3594 3.85773 27.5244 3.69838 27.6187 3.4935C27.9488 3.33415 28.3849 3.25447 28.7857 3.25447ZM26.7347 3.78943C26.3457 3.78943 26.0274 3.48212 26.0274 3.10651C26.0274 2.7309 26.3457 2.42358 26.7347 2.42358C27.1237 2.42358 27.4419 2.7309 27.4419 3.10651C27.4419 3.48212 27.1237 3.78943 26.7347 3.78943ZM28.7975 4.23334C29.7523 4.23334 30.5657 4.42683 31.3319 4.74553C31.1904 4.77968 31.0372 4.87073 30.7779 5.08699C30.1885 4.79106 29.493 4.63171 28.8093 4.64309C28.1138 4.64309 27.4301 4.79106 26.8407 5.08699C26.5814 4.87073 26.4282 4.77968 26.2867 4.74553C27.0293 4.42683 27.8427 4.23334 28.7975 4.23334ZM17.3869 10.6528C17.5402 9.8561 17.9527 9.03659 18.6011 8.19431C19.7798 6.68049 21.7366 5.88374 23.1747 5.47399C24.66 5.05285 25.9095 4.97317 26.0274 4.96179C26.0745 4.96179 26.2985 5.00732 26.5814 5.2122C26.3928 5.26911 26.0981 5.39431 25.7327 5.58781C25.6266 5.64472 25.5205 5.70163 25.4144 5.7813C25.3673 5.81545 25.3201 5.83821 25.2848 5.87236C24.7071 6.25935 24.047 6.83984 23.3869 7.72764C22.4439 8.97968 22.0785 9.96992 22.2906 10.6642C22.3967 11.0171 22.6561 11.2902 23.0451 11.4724C22.6561 12.087 22.1492 12.235 21.4773 11.9276L21.3358 11.8594L21.3005 12.0073C21.2533 12.2463 21.0647 12.5992 20.6993 12.9179C20.4164 13.1569 19.9213 13.4415 19.1787 13.4415C18.4832 13.4415 17.8938 13.0886 17.5755 12.4626C17.3162 11.9732 17.2455 11.3472 17.3869 10.6528Z" fill="#535862"/>
<path d="M34.0314 7.14715C34.279 7.4317 34.6562 7.56829 35.0334 7.48861L36.2593 7.24959C36.554 7.20406 36.8841 7.32926 37.1906 7.56829C37.5678 7.8756 37.8035 8.33089 37.8035 8.75203C37.8035 9.40081 37.2495 9.93577 36.5776 9.93577C36.0472 9.93577 35.6228 9.52601 35.6228 9.01382C35.6228 8.61544 35.9529 8.29674 36.3654 8.29674C36.6719 8.29674 36.9312 8.54715 36.9312 8.84308C36.9312 8.95691 36.8723 9.07073 36.7898 9.1504C36.7898 8.97967 36.6366 8.84308 36.4597 8.84308C36.2711 8.84308 36.1297 8.96829 36.1297 9.16178C36.1297 9.35528 36.3065 9.50325 36.5069 9.50325C36.7662 9.50325 37.1788 9.20731 37.1788 8.85447C37.1788 8.42195 36.8134 8.0691 36.3654 8.0691C35.8232 8.0691 35.3753 8.50162 35.3753 9.0252C35.3753 9.48048 35.6464 9.86748 36.0354 10.061C36 10.0837 35.9764 10.1065 35.9411 10.1293C35.6935 10.3341 35.5403 10.6187 35.5403 10.9374C35.5403 11.4154 35.9411 11.8024 36.4362 11.8024C36.6483 11.8024 36.8252 11.7228 36.9666 11.5862C36.9902 12.2805 37.5796 12.8268 38.2986 12.8268C39.0295 12.8268 39.6307 12.2463 39.6307 11.5406C39.7132 10.448 39.3831 9.49186 38.6169 8.54715C38.169 8.00081 37.7918 7.63658 37.3202 7.28373C36.9666 7.02195 36.554 6.76016 36 6.46422C35.9411 6.43008 35.8586 6.45284 35.835 6.50975C35.7996 6.56666 35.8232 6.64634 35.8821 6.6691C36.0943 6.78292 36.2829 6.89674 36.4597 6.99918C36.3772 6.9878 36.2947 6.99918 36.2122 7.01056L34.9745 7.24959C34.6916 7.3065 34.3969 7.21544 34.22 6.9878C34.0197 6.74878 34.055 6.38455 34.3026 6.19105C34.4912 6.04308 34.7741 6.07723 34.9273 6.25934C35.0452 6.39593 35.0216 6.60081 34.8802 6.70325C34.8212 6.74878 34.8212 6.81707 34.8566 6.87398C34.9037 6.93089 34.9745 6.93089 35.0334 6.89674C35.281 6.70325 35.3163 6.3504 35.1159 6.11138C34.8802 5.82682 34.444 5.7813 34.1375 6.00894C33.7957 6.29349 33.7368 6.80569 34.0314 7.14715ZM38.4283 8.69512C39.1709 9.5943 39.4656 10.4707 39.3949 11.5179C39.3949 12.0984 38.9116 12.565 38.3104 12.565C37.7092 12.565 37.2259 12.0984 37.2259 11.5179C37.2259 11.2447 37.3085 11.0171 37.4617 10.8463C37.5089 10.8008 37.4971 10.7211 37.4499 10.6756C37.4028 10.6301 37.3202 10.6415 37.2731 10.687C37.2259 10.7439 37.1788 10.8008 37.1434 10.8577C37.0609 10.6301 36.8369 10.4707 36.5658 10.4707C36.2829 10.4707 36.0472 10.6984 36.0472 10.9715C36.0472 11.0398 36.1061 11.0967 36.1768 11.0967C36.2476 11.0967 36.3065 11.0398 36.3065 10.9715C36.3065 10.8236 36.4244 10.7098 36.5776 10.7098C36.778 10.7098 36.943 10.8691 36.943 11.0626C36.943 11.3244 36.7191 11.5293 36.4597 11.5293C36.1061 11.5293 35.8232 11.2561 35.8232 10.9146C35.8232 10.6756 35.9293 10.448 36.1297 10.2886C36.2004 10.2317 36.2829 10.1862 36.3772 10.152C36.389 10.152 36.389 10.1406 36.4008 10.1406C36.4715 10.152 36.5423 10.1634 36.613 10.1634C37.4263 10.1634 38.0865 9.52601 38.0865 8.74065C38.0865 8.52439 38.0393 8.29674 37.945 8.09186C38.0747 8.28536 38.2397 8.46747 38.4283 8.69512Z" fill="#535862"/>
<path d="M34.7504 10.3911C34.8211 9.53741 34.161 8.69513 34.161 8.69513C34.161 8.69513 34.3732 9.71952 33.7249 11.0398C34.3025 11.1537 34.715 10.7553 34.7504 10.3911Z" fill="#535862"/>
<path d="M34.055 11.7797C33.8664 12.3374 34.0197 12.6561 34.3144 12.8155C34.6208 12.9748 35.0098 12.861 35.2338 12.6106C34.7741 12.6902 34.3851 12.3488 34.055 11.7797Z" fill="#535862"/>
<path d="M38.1337 10.539C38.0747 10.5276 38.0158 10.5618 38.004 10.6187C37.9922 10.6756 38.0276 10.7325 38.0865 10.7439C38.3105 10.7894 38.4873 10.8691 38.617 11.0057C38.8527 11.2447 38.8527 11.6089 38.617 11.8366C38.5345 11.9163 38.4166 11.9732 38.2869 11.9732C38.1572 11.9732 38.0512 11.9276 37.9569 11.8366C37.8154 11.7 37.8154 11.4951 37.9569 11.3585C38.004 11.313 38.0747 11.2903 38.1337 11.2903C38.2044 11.2903 38.2633 11.313 38.3105 11.3585C38.3576 11.4041 38.4284 11.4041 38.4637 11.3585C38.5109 11.313 38.5109 11.2447 38.4637 11.2106C38.3694 11.1195 38.2515 11.074 38.1219 11.074C37.9922 11.074 37.8743 11.1195 37.78 11.2106C37.5561 11.4268 37.5561 11.7797 37.78 11.9846C37.9097 12.1098 38.0865 12.1781 38.2633 12.1781C38.4402 12.1781 38.617 12.1098 38.7466 11.9846C39.0649 11.6772 39.0649 11.1764 38.7466 10.8577C38.617 10.6984 38.4048 10.5959 38.1337 10.539Z" fill="#535862"/>
<path d="M35.6582 7.89837C36.059 7.80731 36.507 7.70487 36.8134 7.89837C36.8606 7.93252 36.9313 7.90975 36.9667 7.86422C37.0021 7.8187 36.9785 7.7504 36.9313 7.71626C36.5423 7.47723 36.0237 7.60244 35.6111 7.69349L35.5757 7.70487C35.4461 7.73902 35.3518 7.77317 35.2692 7.79593C35.0806 7.86422 35.0217 7.88699 34.8567 7.7504C34.8095 7.71626 34.7388 7.71626 34.7034 7.76178C34.6681 7.80731 34.6681 7.87561 34.7152 7.90975C34.8567 8.01219 34.9628 8.05772 35.0571 8.05772C35.1514 8.05772 35.2339 8.02357 35.34 7.98943C35.4225 7.96666 35.505 7.93252 35.6111 7.90975L35.6582 7.89837Z" fill="#535862"/>
<path d="M33.8901 5.66748C33.4775 5.5309 32.8881 5.46261 32.1101 5.34879C32.5345 5.5309 33.5482 6.13415 33.5482 6.13415C33.5954 5.98618 33.7368 5.81545 33.8901 5.66748Z" fill="#535862"/>
<path d="M37.7329 10.1065C38.3341 10.152 38.5109 10.2203 39.0649 10.5846C39.006 10.1407 38.7585 9.51464 38.3341 9.04797C38.3341 9.68537 38.0983 9.94716 37.7329 10.1065Z" fill="#535862"/>
<path d="M58.8683 25.313C58.2671 25.313 57.7249 25.7341 57.7249 26.3829C57.7249 27.0317 58.2671 27.4528 58.8683 27.4528C59.4694 27.4528 59.9999 27.0317 59.9999 26.3829C59.9999 25.7341 59.4694 25.313 58.8683 25.313ZM58.8683 27.2252C58.3968 27.2252 58.0313 26.8724 58.0313 26.3829C58.0313 25.8935 58.3968 25.5406 58.8683 25.5406C59.328 25.5406 59.7052 25.8935 59.7052 26.3829C59.7052 26.8724 59.328 27.2252 58.8683 27.2252Z" fill="#535862"/>
<path d="M59.3752 26.1325C59.3752 25.8707 59.1984 25.7797 58.8919 25.7797H58.4204V26.9748H58.668V26.4626H58.8212L59.1277 26.9748H59.387L59.057 26.4512C59.2338 26.4398 59.3752 26.3602 59.3752 26.1325ZM58.668 26.2805V25.9618H58.8801C58.998 25.9618 59.1395 25.9846 59.1395 26.1098C59.1395 26.2577 59.0334 26.2691 58.8919 26.2691H58.668V26.2805Z" fill="#535862"/>
</g>
<defs>
<clipPath id="clip0_684_14425">
<rect width="60" height="35" fill="white" transform="translate(0 0.5)"/>
</clipPath>
</defs>
</svg>
