<svg width="105" height="20" viewBox="0 0 105 20" fill="none" xmlns="http://www.w3.org/2000/svg">
<g clip-path="url(#clip0_838_802)">
<path d="M23.8708 11.3724C23.3301 11.6994 22.702 11.8399 22.0783 11.7732H21.7044V7.36919C21.7044 6.84176 21.7352 6.81539 22.3344 6.7732H22.7492C22.8847 6.77995 23.0197 6.79403 23.1538 6.81539C23.3545 6.84122 23.5484 6.90764 23.7241 7.01082C23.8999 7.114 24.0542 7.25192 24.1781 7.41666C24.5133 7.93721 24.6915 8.54832 24.6902 9.17299C24.7246 9.81134 24.5807 10.4465 24.2754 11.0032C24.1751 11.1551 24.0441 11.2829 23.8913 11.3776M27.8706 18.3924C27.5582 18.097 26.9641 16.6572 26.4212 15.3439C26.1139 14.6002 25.7964 13.8987 25.5762 13.4662C25.3727 13.0122 25.0694 12.6131 24.6902 12.3006C24.6595 12.3006 24.6287 12.3006 24.5929 12.2373C25.0321 12.0267 25.4338 11.7414 25.781 11.3935C26.3498 10.7409 26.6588 9.89154 26.6466 9.01476C26.6548 8.55584 26.5708 8.10012 26.3999 7.67624C26.2289 7.25236 25.9746 6.86948 25.653 6.55168C24.8521 5.9601 23.8759 5.67473 22.8926 5.74472H19.3076V5.9135H19.3486C19.6559 5.96624 19.789 6.24577 19.789 6.66771V17.865C19.789 18.2816 19.6559 18.5664 19.3486 18.6139H19.3127V18.788H22.1858V18.6139H22.1449C21.8222 18.577 21.6942 18.2869 21.6942 17.865V12.8333H21.8222H22.7953H23.077C23.2892 13.0559 23.4625 13.3147 23.5891 13.5981C24.2958 15.2173 25.3099 17.7437 25.5864 18.4873L26.0986 18.7669H28.3008V18.5928C28.1276 18.5644 27.966 18.4857 27.8347 18.366M81.6093 12.2426C81.5268 12.3522 81.4304 12.4498 81.3225 12.5327C80.9058 12.7923 80.4197 12.9087 79.9346 12.865H79.5402V9.2521C79.5402 8.85126 79.5402 8.83543 80.0524 8.78797H80.4109C80.5159 8.78983 80.6206 8.8022 80.7233 8.82489C80.8858 8.84105 81.0434 8.89154 81.1861 8.97321C81.3289 9.05488 81.4538 9.16598 81.553 9.29957C81.8281 9.72787 81.9726 10.2312 81.9678 10.7447C81.9991 11.2723 81.8817 11.7979 81.6298 12.2584M85.1072 18.5875C84.963 18.5653 84.8298 18.4949 84.7282 18.3871C84.2562 17.6262 83.8663 16.8144 83.5657 15.9662C83.2942 15.3017 83.0126 14.6846 82.8333 14.3048C82.6479 13.9283 82.388 13.5959 82.0702 13.3291H82.0036C82.3662 13.1512 82.6996 12.9164 82.9921 12.6329C83.4755 12.0851 83.7391 11.3688 83.7295 10.6287C83.737 10.2479 83.668 9.8696 83.527 9.51748C83.386 9.16537 83.176 8.847 82.9101 8.58227C82.2439 8.07402 81.4219 7.83054 80.5952 7.89662H77.4354V8.04957H77.4712C77.7529 8.09704 77.886 8.36075 77.886 8.7405V17.9335C77.886 18.3238 77.7529 18.5875 77.4712 18.6245H77.4354V18.7827H79.996V18.6245H79.9602C79.6785 18.5875 79.5556 18.3238 79.5556 17.9335V13.8407H79.9551H80.6823C80.8448 14.0213 80.9749 14.2303 81.0664 14.4578C81.6707 15.8291 82.526 17.9916 82.7257 18.5506L83.0791 18.7721H85.1277V18.5875H85.1072ZM71.1565 14.3681C71.6328 12.3586 72.104 10.3017 72.104 10.3017V10.2648V10.3281C72.5239 11.9631 72.8517 13.308 73.1283 14.3681H71.1565ZM76.3138 18.6297C76.0116 18.5928 75.8887 18.3291 75.8016 17.9388V17.9072C75.2127 15.5865 73.4048 8.52425 73.2409 7.8175C73.2409 7.74894 73.2153 7.73311 73.1795 7.73311H73.1385L71.7609 8.01793C71.5611 8.85653 69.7943 16.1614 69.3743 17.923C69.2821 18.308 69.1182 18.5664 68.8314 18.6086H68.7853V18.7669H70.7212V18.6086H70.6854C70.5816 18.5941 70.4873 18.5388 70.4224 18.4542C70.3575 18.3696 70.3269 18.2624 70.3371 18.1551C70.3304 18.0779 70.3304 18.0002 70.3371 17.923L70.9363 15.365H73.4407L73.5073 15.6445C73.7787 16.6994 73.9579 17.4325 74.0808 17.9019V17.9283C74.0808 17.9968 74.0808 18.0443 74.1269 18.097C74.1473 18.1746 74.1594 18.2542 74.1628 18.3344C74.1671 18.3675 74.1647 18.4012 74.1557 18.4333C74.1468 18.4654 74.1315 18.4953 74.1108 18.521C74.0901 18.5468 74.0645 18.5678 74.0356 18.5829C74.0066 18.598 73.975 18.6068 73.9426 18.6086H73.9118V18.7669H76.365V18.6086L76.3138 18.6297ZM33.2941 13.635H33.3658C33.46 13.6431 33.5489 13.6832 33.6185 13.7491C33.6881 13.815 33.7343 13.9029 33.7499 13.9989V14.0359H33.8933V12.2162H33.7499V12.2479C33.7313 12.3563 33.6745 12.4539 33.5904 12.522C33.5063 12.5901 33.4009 12.624 33.2941 12.6171H31.2302V8.98839C31.2302 8.96601 31.2388 8.94454 31.2542 8.92872C31.2696 8.91289 31.2904 8.904 31.3121 8.904H33.417C33.5432 8.88254 33.6726 8.90717 33.783 8.97363C33.8933 9.04009 33.9777 9.14419 34.0214 9.26792V9.29957H34.175L34.0009 7.98628C33.9984 7.96437 33.9881 7.94419 33.972 7.92959C33.956 7.915 33.9352 7.90701 33.9138 7.90717H29.0843V8.06012H29.1202C29.4275 8.10759 29.5299 8.36603 29.5299 8.74577V17.9335C29.5299 18.3238 29.4275 18.5823 29.1202 18.6245H29.0843V18.7827H34.3082C34.3292 18.7785 34.3484 18.7675 34.3632 18.7515C34.3779 18.7354 34.3873 18.7149 34.3901 18.693L34.5437 17.3692H34.3952V17.4114C34.2672 17.7384 34.0009 17.8491 33.5297 17.8491H31.7987C31.2865 17.8491 31.2302 17.7806 31.2302 17.4536V13.7616C31.2302 13.7392 31.2388 13.7177 31.2542 13.7019C31.2696 13.6861 31.2904 13.6772 31.3121 13.6772L33.2941 13.635ZM90.8892 8.9251H90.9917C91.1161 8.92438 91.2378 8.96223 91.341 9.03372C91.4442 9.10521 91.5241 9.20703 91.5704 9.32594V9.37868L91.7035 9.34704L91.3758 7.98628C91.3714 7.96521 91.3606 7.94613 91.3449 7.93188C91.3293 7.91763 91.3095 7.90897 91.2887 7.90717H85.2352C85.2138 7.90701 85.1931 7.915 85.177 7.92959C85.161 7.94419 85.1507 7.96437 85.1482 7.98628L84.8153 9.32594L84.9536 9.35759L84.9792 9.30484C85.0324 9.16968 85.1276 9.05649 85.2499 8.98301C85.3722 8.90952 85.5148 8.87988 85.6552 8.89873H87.3196C87.3338 8.90523 87.346 8.9155 87.355 8.92848C87.364 8.94146 87.3695 8.95668 87.3708 8.97257V17.9019V17.9335C87.3708 18.2975 87.2735 18.5823 86.9611 18.6245H86.9253V18.7827H89.5782V18.6245H89.5423C89.2299 18.5823 89.1275 18.3238 89.1275 17.9335V9.01476C89.1273 8.9927 89.1351 8.97136 89.1493 8.95482C89.1634 8.93827 89.183 8.92769 89.2043 8.9251H90.8892ZM32.7974 5.09071L31.4914 7.56434H32.065L33.9599 5.09071H32.7974ZM45.7135 7.88607V8.03902H45.7442C46.0413 8.08649 46.1232 8.27636 46.2564 8.56645L48.5559 13.8407V13.8987V17.9019V17.9335C48.5559 18.3238 48.4534 18.5823 48.1461 18.6245H48.1052V18.7827H50.6659V18.6245H50.6249C50.3125 18.5823 50.2203 18.3238 50.2203 17.9335V13.7563C50.6044 12.8228 52.2689 9.06223 52.3867 8.75632C52.4174 8.69303 52.4379 8.62974 52.4584 8.58755C52.6171 8.27109 52.7452 8.06012 53.0422 8.06012H53.078V7.91244H51.0807V8.06012H51.1166C51.1556 8.06214 51.1938 8.07208 51.2291 8.08935C51.2644 8.10663 51.296 8.13091 51.3222 8.16079C51.3484 8.19068 51.3686 8.22559 51.3816 8.26352C51.3946 8.30145 51.4003 8.34166 51.3982 8.38185C51.3935 8.49779 51.3692 8.61201 51.3265 8.7194V8.77214C51.0039 9.60548 49.8567 12.2637 49.7594 12.5169V12.4747L48.1154 8.78269V8.74577C48.0369 8.59313 47.9865 8.42682 47.9669 8.25527C47.964 8.23045 47.9662 8.20528 47.9734 8.18139C47.9805 8.15751 47.9924 8.13542 48.0083 8.11654C48.0243 8.09767 48.0438 8.08243 48.0658 8.07181C48.0878 8.06118 48.1116 8.05541 48.1359 8.05484H48.1769V7.90189L45.7135 7.88607ZM57.1291 5.77636V5.94514H57.1598C57.4363 5.98206 57.5593 6.2194 57.5593 6.57805V6.72573L56.9857 17.8544V17.9019C56.9498 18.308 56.7706 18.577 56.4735 18.6139H56.4326V18.788H58.5477V18.6139H58.5016C58.2302 18.577 58.0816 18.3344 58.0816 17.981C58.0791 17.9424 58.0791 17.9036 58.0816 17.865V17.8281L58.4145 9.6002V9.27847L61.6359 18.3766C61.6359 18.4135 61.6615 18.4399 61.6973 18.4399C61.7332 18.4399 61.7486 18.4399 61.769 18.366L64.6114 9.6213L64.6882 9.37341L64.7343 9.19409L64.8009 10.0696L65.313 17.8281V17.865C65.313 17.9705 65.313 18.0654 65.313 18.1498C65.313 18.4135 65.2567 18.5823 65.0262 18.6139H64.9904V18.788H67.7508V18.6139H67.715C67.423 18.577 67.254 18.3238 67.2028 17.9599L66.368 6.72573V6.55168C66.368 6.20885 66.4858 5.99261 66.7624 5.95569H66.7982V5.78691H64.9187C64.8912 5.78516 64.864 5.79385 64.8423 5.81135C64.8206 5.82884 64.8059 5.85392 64.8009 5.88185L62.0763 14.0464L59.2493 5.85548C59.2397 5.82865 59.2222 5.80559 59.1992 5.78951C59.1763 5.77343 59.149 5.76515 59.1213 5.76582L57.1291 5.77636ZM36.285 7.88607V8.03902H36.3157C36.5974 8.08122 36.6845 8.26581 36.6896 8.56645V8.77742L36.1621 17.9019V17.9335C36.1314 18.3238 35.9982 18.5823 35.6909 18.6245H35.65V18.7827H37.5346V18.6245H37.4937C37.2171 18.5875 37.1044 18.3713 37.1044 18.039V17.9019C37.1761 16.4778 37.4322 11.193 37.4322 11.193V10.7922C37.5961 11.2669 39.6242 17.1213 40.0544 18.3924C40.0544 18.424 40.0544 18.4557 40.1209 18.4557C40.1875 18.4557 40.1568 18.4557 40.1773 18.3924L42.4819 11.0506C42.4988 10.9862 42.5193 10.9228 42.5434 10.8608L42.5946 10.692L42.6509 11.3882L43.163 17.8808V17.9124C43.1694 18.0196 43.1694 18.127 43.163 18.2342C43.163 18.4399 43.1118 18.5717 42.907 18.6034H42.866V18.7616H45.3806V18.6034H45.3396C45.0528 18.5664 44.9555 18.3555 44.9146 18.0232L44.09 8.76687V8.72995C44.09 8.66666 44.09 8.60864 44.09 8.5559C44.09 8.26581 44.1771 8.08122 44.4536 8.02847H44.4895V7.87552H42.7892C42.7648 7.87571 42.7411 7.88404 42.7217 7.89925C42.7024 7.91447 42.6883 7.93575 42.6816 7.95991L40.4846 14.5264L38.1697 7.95463C38.162 7.93339 38.1479 7.91525 38.1295 7.9029C38.111 7.89055 38.0892 7.88465 38.0673 7.88607H36.285ZM97.8799 7.88607V8.03902H97.9158C98.1975 8.08649 98.3613 8.3502 98.3613 8.72995V17.9335C98.3613 18.3238 98.2333 18.5823 97.9465 18.6245H97.9158V18.7827H99.8414V18.6245H99.8056C99.529 18.5875 99.36 18.3238 99.36 17.9388V10.5865V10.6129C99.6929 11.3249 103.257 18.788 103.257 18.788H104.082V8.72995C104.082 8.3502 104.21 8.08649 104.497 8.03902H104.533V7.88607H102.633V8.03902H102.684C102.965 8.08649 103.114 8.33438 103.134 8.70358V14.5949C102.853 14.0306 99.9746 8.05484 99.9285 7.97046C99.915 7.9482 99.8971 7.92917 99.8759 7.91462C99.8547 7.90007 99.8307 7.89033 99.8056 7.88607H97.8799ZM95.6521 7.88607H93.0914V8.03902H93.1273C93.3885 8.08122 93.5421 8.3502 93.5421 8.72995V17.9335C93.5421 18.3186 93.3885 18.5875 93.1273 18.6245H93.0914V18.7827H95.6521V18.6245C95.3858 18.5875 95.2373 18.3186 95.2373 17.9335V8.72995C95.2373 8.3502 95.3858 8.08649 95.6521 8.03902V7.88607ZM11.9635 10.9768C11.8683 11.0997 11.7827 11.2302 11.7075 11.3671C11.5334 11.6994 11.3439 11.4831 11.2466 11.3671C11.1953 11.3249 11.1185 11.1297 9.71014 11.1086C8.99315 11.1086 8.83951 10.7394 8.8139 10.6498C8.77543 10.4997 8.69321 10.3653 8.57831 10.2648C8.50149 10.1804 8.49637 10.1065 8.72171 10.1909C9.14679 10.3544 9.42334 10.7975 9.80233 10.866C9.97133 10.8977 10.0738 10.9451 9.88939 10.7869C9.70502 10.6287 9.63844 10.5496 9.4848 10.4177C9.33116 10.2859 9.35676 10.2964 9.56162 10.3544C9.99158 10.4332 10.4087 10.5734 10.801 10.7711C10.9726 10.871 11.1309 10.9934 11.2722 11.135C11.4924 11.346 11.6409 11.2194 11.8202 10.8818C11.9379 10.6762 12.2401 10.27 12.2708 10.2331C12.2708 10.2015 12.3016 10.1962 12.2708 10.2331C12.1944 10.4925 12.086 10.7406 11.9482 10.9715M7.02141 13.8407C6.73338 13.667 6.42982 13.5222 6.11493 13.4082C5.99713 13.3449 5.95104 13.5084 5.96641 13.7616C5.97117 13.8295 5.95555 13.8973 5.92166 13.9558C5.88777 14.0143 5.83724 14.0607 5.77692 14.0886C5.72058 14.057 5.70522 14.0886 5.65912 13.9251C5.61303 13.7616 5.63352 13.6139 5.32111 13.4926C5.2763 13.474 5.23619 13.4452 5.20384 13.4083C5.17148 13.3713 5.14774 13.3273 5.1344 13.2795C5.12107 13.2317 5.1185 13.1814 5.12689 13.1324C5.13529 13.0834 5.15442 13.037 5.18283 12.9968C5.27231 13.1787 5.42093 13.3224 5.60279 13.4029C5.62839 13.3186 5.57206 13.2658 5.485 13.1392C5.43378 13.0654 5.43378 12.8808 5.62839 12.8808C5.91987 12.8564 6.21188 12.9206 6.4683 13.0654C6.80762 13.2753 7.18648 13.4084 7.57964 13.4557C8.23145 13.4782 8.87887 13.3379 9.46658 13.0467C10.0543 12.7556 10.5649 12.3222 10.9546 11.7837C10.5603 12.5538 9.56162 13.8935 7.02141 13.8302M6.20711 16.2247L6.16102 16.288C6.09444 16.3987 5.71034 16.6255 5.75131 16.9209C5.97153 17.3006 6.63731 17.385 7.00605 17.4483C7.00605 17.4483 7.51819 17.5116 7.61037 17.6962C7.70256 17.8808 7.79986 17.7911 7.94326 17.807C7.98473 17.9341 8.06807 18.0423 8.17885 18.1129C8.26061 18.2189 8.32781 18.336 8.37858 18.461C8.41955 18.6456 7.98935 18.6456 7.86644 18.5348C7.84439 18.5042 7.82966 18.4687 7.82343 18.4311C7.8172 18.3935 7.81965 18.355 7.83059 18.3186C7.85116 18.2643 7.85116 18.204 7.83059 18.1498C7.75788 18.0568 7.66939 17.9782 7.5694 17.9177C7.49415 17.922 7.42149 17.9475 7.35942 17.9916C7.27748 18.039 7.22627 18.0654 7.15969 18.0232C7.07447 17.9589 6.97721 17.9135 6.87407 17.8899C6.77092 17.8662 6.66414 17.865 6.56049 17.8861H6.39148C6.02786 17.5643 5.3672 17.3586 5.21868 17.1635C5.15211 17.0791 5.1265 17.0264 5.21868 16.9262C5.21868 16.9262 5.17771 16.8576 5.11626 16.8892C5.06049 16.9198 4.99972 16.9395 4.93701 16.9473C4.768 16.9789 4.90116 16.8365 4.93701 16.7785C5.15014 16.6104 5.37623 16.4604 5.61303 16.3302C6.04213 16.0842 6.41022 15.7395 6.68852 15.3228C6.5733 15.6486 6.39956 15.9492 6.17638 16.2089M6.45806 18.8143C6.45576 18.7722 6.45576 18.7299 6.45806 18.6878C6.45806 18.6561 6.45806 18.6139 6.45806 18.5717C6.45725 18.5299 6.44408 18.4893 6.42028 18.4554C6.39649 18.4214 6.36322 18.3958 6.3249 18.3818H6.15078H6.11493C6.00948 18.3592 5.91103 18.3103 5.82813 18.2394C5.67449 18.1287 5.53621 17.9072 5.31599 17.9124H5.3416L5.11114 17.865C4.94213 17.8122 4.599 17.5643 4.49145 17.5643H4.46584L4.49145 17.8386C4.50274 17.9226 4.50274 18.0078 4.49145 18.0918C4.46294 18.241 4.39071 18.3776 4.28449 18.4832C4.17827 18.5888 4.04316 18.6584 3.89737 18.6825C3.99677 18.619 4.08046 18.5326 4.1418 18.4301C4.20313 18.3276 4.24044 18.2117 4.25074 18.0918C4.25074 17.6698 4.14319 17.6013 4.09198 17.6013C4.08368 17.1514 4.01825 16.7045 3.89737 16.2721C3.83476 16.0836 3.74499 15.9058 3.63105 15.7447L3.69763 15.808C4.20977 16.3354 4.07661 16.9578 4.1688 16.8629L4.52217 16.5253C4.62411 16.3966 4.69979 16.2481 4.74467 16.0886C4.78955 15.9291 4.80271 15.7619 4.78337 15.597C4.68606 15.2437 4.4556 15.1065 4.22513 14.8217L3.79494 14.384C3.6939 14.2036 3.63525 14.0014 3.62369 13.7935C3.61213 13.5856 3.64798 13.3778 3.72836 13.1867C3.75781 13.1091 3.77509 13.0272 3.77957 12.9441C3.82567 12.7278 3.70787 12.6645 3.54399 12.6645C3.25207 12.6645 2.81675 12.8702 2.85772 12.7542C2.97153 12.6568 3.10309 12.5837 3.24468 12.5393C3.38627 12.4949 3.53504 12.4801 3.68227 12.4958H3.73348C3.99979 12.5274 4.1688 12.8228 4.00491 13.192C3.9385 13.308 3.90239 13.4398 3.90007 13.5745C3.89776 13.7092 3.92932 13.8422 3.99171 13.9606C4.05409 14.079 4.14516 14.1787 4.25606 14.2502C4.36697 14.3216 4.49393 14.3622 4.6246 14.3681C5.16747 14.4156 5.00871 14.6529 5.46451 14.8534C5.70111 14.9414 5.95043 14.9878 6.20199 14.9905C6.10166 15.0424 5.99157 15.0712 5.87934 15.0749H5.82813C5.62594 15.0702 5.42491 15.0419 5.22893 14.9905H5.18283C5.05992 14.9905 4.92676 15.1013 5.08041 15.2753C5.25394 15.467 5.48138 15.5979 5.73082 15.6498C5.6418 15.8222 5.53352 15.9832 5.40818 16.1297C5.09715 16.4465 4.75372 16.7277 4.3839 16.9683C4.0971 17.2004 4.28659 17.3217 4.47096 17.3481C4.68705 17.3716 4.90107 17.4122 5.11114 17.4694C5.654 17.7648 5.49524 17.8228 5.70522 17.9968C6.03298 18.2816 6.50927 18.1762 6.6117 18.4768C6.71413 18.7774 6.56561 18.6245 6.49903 18.7563C6.48491 18.7852 6.47292 18.8152 6.46318 18.846M3.65154 14.4525L3.98443 14.9008C4.22541 15.1604 4.41348 15.4671 4.53754 15.8027C4.54257 15.8536 4.54257 15.9048 4.53754 15.9557C4.53429 16.1753 4.47033 16.3893 4.35317 16.5728C4.1414 16.0327 3.78647 15.5649 3.32889 15.2226C3.28313 15.1701 3.25604 15.1031 3.25207 15.0327V14.9114L3.1394 14.7373C3.06443 14.648 3.0117 14.5412 2.98576 14.4262H3.02673L3.11379 14.3418C3.11627 14.3119 3.11627 14.2819 3.11379 14.2521C3.10847 14.1362 3.07877 14.0228 3.02673 13.9198L2.94479 13.6772C2.94236 13.6403 2.94236 13.6033 2.94479 13.5664C2.93406 13.482 2.94662 13.3962 2.98104 13.3188C3.01546 13.2414 3.07034 13.1755 3.1394 13.1287C3.20781 13.0819 3.28777 13.0563 3.36986 13.0548C3.41559 13.0463 3.46242 13.0463 3.50814 13.0548C3.52559 13.0632 3.54025 13.0766 3.55028 13.0935C3.5603 13.1104 3.56524 13.13 3.56448 13.1498V13.1814C3.49596 13.3648 3.46123 13.5598 3.46205 13.7563C3.46387 13.9982 3.53321 14.2343 3.66178 14.4367M1.57738 11.1192C1.62105 11.0724 1.66209 11.0231 1.70029 10.9715C1.70029 10.9346 1.70029 10.9082 1.76687 10.8871C1.83345 10.866 1.76687 10.9768 1.86418 11.0454C2.0127 11.2036 2.07927 11.2194 2.17658 11.1508C2.29528 11.1308 2.41637 11.1308 2.53508 11.1508C2.6375 11.1508 2.67848 11.1508 2.75018 11.0823C2.81491 10.9707 2.88857 10.8648 2.97039 10.7658C3.20086 10.5443 3.92809 10.27 4.15344 9.75843C4.15344 9.73206 4.39414 9.75843 4.53242 9.6213C4.67762 9.52244 4.80428 9.39737 4.90628 9.2521C5.21868 8.82489 5.17259 8.80906 5.38257 8.66666C5.43861 8.54982 5.46473 8.42018 5.45846 8.29003C5.45219 8.15987 5.41372 8.03353 5.34672 7.92299C5.22893 7.76476 5.27502 7.69092 5.60279 7.53797C5.93056 7.38501 6.57585 7.50105 6.9958 7.25843C7.00481 7.25439 7.01249 7.24776 7.01794 7.23934C7.02339 7.23093 7.02637 7.22108 7.02653 7.21096C7.02149 7.18887 7.02165 7.16585 7.02699 7.14383C7.03234 7.12182 7.04272 7.10143 7.05726 7.08438C7.11872 7.01054 7.20066 7.08438 7.27748 7.01054C7.48234 6.83122 7.76401 6.65717 7.48234 7.20569C7.426 7.327 7.70256 7.24788 8.03032 7.33754C8.26079 7.41138 8.03032 7.68037 8.5988 7.75421C8.68074 7.75421 8.68586 7.92826 8.76781 7.94936C8.95908 7.97631 9.15387 7.94895 9.33116 7.87025C9.59747 7.78058 9.52577 7.94936 9.42334 8.01793C9.27068 8.09627 9.12197 8.18252 8.97778 8.27636C8.81902 8.3924 8.84463 8.39767 9.03924 8.3502C9.23385 8.30274 9.23897 8.41349 9.11094 8.50843C9.02756 8.56075 8.95024 8.62268 8.88047 8.69303C8.79341 8.76687 8.81902 8.79852 8.94705 8.79324C9.16969 8.73547 9.38594 8.65416 9.59235 8.55063C9.74087 8.49261 9.915 8.55062 9.67429 8.66138C9.46848 8.75703 9.27841 8.88515 9.11094 9.04113C8.9573 9.14662 8.94705 9.32067 8.67562 9.61603C8.57567 9.73519 8.44386 9.82141 8.29664 9.86392C8.0969 9.86392 8.3837 9.19409 8.37858 9.1097C8.37277 9.04707 8.36076 8.98521 8.34273 8.9251C8.49637 8.5559 8.06105 8.45041 7.86132 8.39767C7.48546 8.39852 7.11078 8.35427 6.74486 8.26581C5.96128 8.10759 5.45939 9.04113 4.9831 9.46835C4.9831 9.46835 4.5529 9.83227 4.27123 10.1329L3.62081 10.5865C3.31848 10.7874 3.03245 11.0131 2.76554 11.2616C2.70495 11.3132 2.63545 11.3526 2.56068 11.3776C2.43515 11.4226 2.32127 11.4966 2.22779 11.5939C2.14102 11.6587 2.04106 11.7024 1.93547 11.7216C1.82988 11.7408 1.72144 11.735 1.61835 11.7046C1.55258 11.6654 1.49081 11.6195 1.43398 11.5675C1.38276 11.5095 1.45959 11.4145 1.46471 11.3513C1.46404 11.3309 1.46732 11.3106 1.47435 11.2916C1.48139 11.2726 1.49204 11.2552 1.50568 11.2405C1.52132 11.197 1.54576 11.1575 1.57738 11.1245M4.92164 6.20358C5.05992 6.25105 5.28526 6.30379 5.33648 6.46202C5.37203 6.61599 5.36313 6.77731 5.31087 6.92615C5.11667 7.11768 4.9448 7.33185 4.79873 7.56434C4.70142 7.6751 4.768 8.06539 4.48633 8.32911C4.03564 8.74577 4.10734 9.44198 3.5235 9.61603C3.20086 9.73206 2.60166 10.634 2.57093 10.6709C2.55738 10.6683 2.5435 10.6683 2.52996 10.6709H2.27901C3.04209 9.38396 4.78337 6.49894 4.93189 6.22468M4.32244 5.64451C3.882 5.56539 3.93834 5.28586 3.93834 5.28586C3.92782 5.27937 3.91866 5.27078 3.91141 5.2606C3.90415 5.25042 3.89894 5.23885 3.89608 5.22658C3.89322 5.2143 3.89276 5.20155 3.89474 5.18909C3.89672 5.17663 3.9011 5.1647 3.90761 5.154L3.8103 5.09071C3.80243 5.0489 3.80243 5.00593 3.8103 4.96413C3.75397 4.79008 3.8103 4.96413 3.90761 4.88501C3.90761 4.96413 3.90761 4.81117 3.95882 4.79535C4.01004 4.77953 4.04589 4.83227 4.08174 4.90611C4.11759 4.97995 4.04076 4.73733 4.17904 4.71096C4.31732 4.68459 4.36853 4.71096 4.36853 4.6002C4.36853 4.48944 4.25074 4.64767 4.24562 4.48417C4.2405 4.32067 4.29683 4.39451 4.32756 4.39451C4.44023 4.39451 4.37878 4.53164 4.49145 4.49472C4.75264 4.40506 4.63485 4.58965 4.75264 4.60548C4.87043 4.6213 4.88579 4.74261 4.94213 4.73733C4.99846 4.73206 5.00359 4.6213 4.99846 4.53164C4.99654 4.44484 5.02571 4.36036 5.08041 4.2943C5.11247 4.24639 5.15656 4.20834 5.20796 4.18419C5.25937 4.16004 5.31617 4.1507 5.37232 4.15716C5.44549 4.1648 5.51316 4.20058 5.56182 4.25738C5.56182 4.31012 5.44915 4.25738 5.4389 4.28902C5.42866 4.32067 5.52085 4.4156 5.4389 4.4789C5.42382 4.48973 5.4064 4.49659 5.38815 4.4989C5.3699 4.5012 5.35138 4.49887 5.33421 4.49211C5.31703 4.48535 5.30173 4.47436 5.28962 4.4601C5.27752 4.44585 5.26899 4.42876 5.26478 4.41033C5.20332 4.44725 5.19308 4.57383 5.17771 4.67932C5.17771 4.67932 5.14698 5.00105 5.42354 4.89556C5.44915 4.85864 5.05992 5.51265 4.87043 5.83965C4.69118 5.79746 4.41975 5.88712 4.33268 5.68143M5.78716 4.86392C5.83808 4.85596 5.88988 4.85596 5.9408 4.86392C5.96641 4.86392 5.96641 4.90611 5.91519 5.02742C5.86398 5.14873 6.06883 5.02742 6.17126 5.02742C6.18436 5.07001 6.18885 5.11492 6.18445 5.15937C6.18004 5.20382 6.16684 5.24687 6.14565 5.28586L6.07908 5.37025C6.00576 5.44232 5.95268 5.53342 5.92543 5.63396C5.90315 5.87142 5.91176 6.11087 5.95104 6.34598C5.98177 6.52531 6.2276 6.22995 6.38636 6.1983C6.80631 6.11392 6.51439 6.33016 6.38636 6.39345C6.25833 6.45674 6.1559 6.65189 6.0125 6.69409C5.85445 6.74281 5.70302 6.81192 5.56182 6.89978C5.55514 6.69979 5.5117 6.50292 5.43378 6.31961C5.37496 6.17868 5.29165 6.04999 5.18796 5.93987C5.15211 5.90822 5.18796 5.93987 5.09577 5.8924L5.78716 4.86392ZM7.43112 6.02425C7.57452 6.08754 7.51306 6.06117 7.68207 6.02425C8.0713 5.97679 8.19421 6.11919 8.19421 6.27214C8.19421 6.4251 8.30688 6.43565 8.40931 6.41455C8.46575 6.4034 8.52396 6.4062 8.57915 6.4227C8.63435 6.4392 8.68496 6.46894 8.72683 6.50949C8.89072 6.68354 8.92145 6.64134 9.11606 6.7732C9.18776 6.82594 9.24922 6.86286 9.25946 6.92615C9.2697 6.98944 9.25946 7.10548 9.10069 6.92615C9.03412 6.84176 8.9112 6.84704 8.72171 6.80484C8.5696 6.7877 8.4273 6.71906 8.31712 6.6097C8.18192 6.46151 8.00085 6.3664 7.80498 6.34071C7.63146 6.29344 7.46814 6.21292 7.32357 6.10337C7.23139 6.00316 7.28772 5.93459 7.43112 5.99788M7.74865 4.2943C7.79474 4.18881 7.9279 4.09915 8.16348 3.86708C8.39906 3.63501 9.00339 3.42932 8.91632 3.33965C8.86739 3.16746 8.86739 2.98443 8.91632 2.81223C9.17239 2.33754 9.82281 2.14767 10.0072 1.82067C10.0533 1.731 10.3093 1.49894 9.97133 1.64662C9.88427 1.68354 9.76135 1.64662 9.97133 1.49366C10.125 1.40927 10.2428 1.30906 10.3196 1.2616C10.3846 1.22795 10.4449 1.18537 10.4988 1.13501C10.6422 1.13501 10.4169 1.32489 10.3042 1.51476C10.1916 1.70463 10.1301 2.01054 10.0379 2.20041C9.94439 2.5138 9.73957 2.77936 9.46431 2.94408C9.20243 3.44338 8.89367 3.91504 8.54246 4.35231C8.36885 4.5569 8.25363 4.807 8.20957 5.07489C7.73841 5.23312 7.69743 4.35231 7.72304 4.28375M10.3554 0.860752C10.4118 0.776363 10.4579 0.760541 10.5961 0.802735C10.7344 0.844929 10.8266 0.707798 10.8983 0.581216C11.0519 0.328051 11.0724 0.380794 11.011 0.481005L10.8932 0.744718C10.8625 0.866026 10.6269 0.913494 10.4937 0.939865C10.4506 0.942476 10.4085 0.955097 10.3708 0.976785C10.3401 0.976785 10.2991 0.976785 10.3708 0.860752M9.53089 7.1424C9.6555 7.14081 9.77801 7.17555 9.88427 7.24261C9.9085 7.29698 9.93586 7.34982 9.96621 7.40084V7.43248C9.96621 7.4905 9.90475 7.53797 9.81769 7.47995C9.73063 7.42193 9.66405 7.26371 9.52577 7.22679C9.38749 7.18987 9.4131 7.13185 9.52577 7.12657M1.43398 10.9082C1.40803 10.9237 1.38581 10.9451 1.36896 10.9706C1.35212 10.9962 1.34108 11.0253 1.33667 11.0559C1.29058 11.0559 1.23424 11.1245 1.20352 11.2194L1.16255 11.4251C1.16175 11.4758 1.17605 11.5255 1.20352 11.5675V11.6308C1.20352 11.6941 1.26497 11.7046 1.28034 11.7152L0.824534 12.4641L0.553101 12.9283C0.553101 12.9283 0.553101 12.9968 0.640164 13.0548C0.66262 13.0721 0.688775 13.0834 0.716412 13.088C0.74405 13.0926 0.772354 13.0903 0.798927 13.0812L1.07036 12.6118L1.50568 11.8945L1.61835 11.9789C1.67154 12.0047 1.73089 12.0139 1.78911 12.0055C1.84732 11.9971 1.90189 11.9713 1.94612 11.9314C2.04944 11.8455 2.15902 11.768 2.27389 11.6994C2.36302 11.6054 2.47154 11.5333 2.59141 11.4884C2.67572 11.4576 2.75383 11.4111 2.82187 11.3513C3.08507 11.0802 3.39625 10.8636 3.7386 10.7131C3.90451 10.6549 4.06016 10.5694 4.19953 10.4599C4.30242 10.3553 4.39505 10.2404 4.47608 10.1171C4.73008 9.81781 5.01907 9.55208 5.33648 9.32594C5.45991 9.23043 5.56719 9.1146 5.654 8.98312C5.72058 8.90928 5.78204 8.83016 5.85374 8.75632C5.89665 8.72552 5.9377 8.69206 5.97665 8.65611C5.99887 8.63379 6.02492 8.6159 6.05347 8.60337C6.13152 8.55781 6.21982 8.53416 6.30954 8.5348C6.52118 8.53646 6.73216 8.55942 6.93947 8.60337C7.22265 8.67324 7.51506 8.69462 7.80498 8.66666C7.95406 8.71337 8.08379 8.80987 8.17372 8.94092L8.21982 8.99366C8.21982 8.99366 8.18397 9.09387 8.17885 9.12552C8.17372 9.15716 8.17885 9.22046 8.143 9.25738C8.09699 9.29359 8.06591 9.34631 8.05593 9.40506C7.9941 9.7901 7.81471 10.1448 7.54379 10.4177C7.09536 10.8735 6.52448 11.1803 5.90495 11.2985C5.41388 11.4053 4.9477 11.6095 4.53242 11.8998L4.36341 12.0369C4.23534 12.1781 4.06965 12.2772 3.88712 12.3217C3.76905 12.3277 3.65132 12.3042 3.54399 12.2532C3.43415 12.2017 3.31614 12.1714 3.19574 12.1635H3.0677C2.75991 12.1646 2.46108 12.2703 2.21755 12.4641C2.01358 12.6491 1.84841 12.8751 1.73217 13.1281C1.61593 13.3811 1.55106 13.6559 1.54153 13.9356V14.0675V14.1994C1.57199 14.3786 1.61653 14.555 1.67468 14.7268C1.73614 14.9167 1.8232 15.2542 1.82833 15.2542C1.83516 15.269 1.8387 15.2853 1.8387 15.3017C1.8387 15.3181 1.83516 15.3343 1.82833 15.3491C1.82833 15.3808 1.90003 15.3491 1.92051 15.3755H1.9666H1.99733L2.16122 15.7394C2.26165 16.0153 2.40334 16.2734 2.58117 16.5042C2.58749 16.5188 2.59746 16.5313 2.61006 16.5406C2.62267 16.5499 2.63744 16.5555 2.65287 16.557C2.67485 16.5524 2.69574 16.5435 2.71433 16.5306H2.7553L3.03697 16.9631C3.31726 17.2776 3.49616 17.6737 3.54911 18.097V18.25C3.51308 18.3762 3.45156 18.4931 3.3686 18.5931C3.28564 18.693 3.1831 18.7738 3.0677 18.8302C3.06404 18.8582 3.06404 18.8865 3.0677 18.9145C3.09844 18.9694 3.14764 19.0106 3.20598 19.0306C3.25177 19.0383 3.29847 19.0383 3.34426 19.0306H3.41596C3.61718 19.0167 3.80737 18.9309 3.9537 18.788C4.11469 18.7502 4.26442 18.673 4.39016 18.5627C4.51589 18.4525 4.61389 18.3127 4.67582 18.1551L4.72191 17.9441H4.75264C4.84069 17.9606 4.92787 17.9817 5.01383 18.0074L5.30575 18.0812C5.47658 18.1057 5.63114 18.1986 5.73594 18.3397C5.89983 18.5084 6.06883 18.6772 6.3249 18.5875C6.34524 18.5913 6.36362 18.6024 6.37676 18.6188C6.38989 18.6352 6.39693 18.6559 6.3966 18.6772C6.39843 18.7141 6.39843 18.7511 6.3966 18.788V18.9304C6.3966 18.9884 6.4427 19.0148 6.47342 19.0359C6.50415 19.057 6.51439 19.0622 6.51439 19.0728C6.4995 19.086 6.48731 19.1021 6.47852 19.1202C6.46973 19.1383 6.46451 19.1581 6.46318 19.1783C6.46976 19.2325 6.49106 19.2837 6.52464 19.3259L6.58097 19.4262C6.69755 19.4621 6.81793 19.4833 6.93947 19.4894H7.02141C7.22422 19.4849 7.41796 19.4021 7.56428 19.2574C7.53516 19.1374 7.49037 19.0221 7.43112 18.9145C7.38503 18.9145 7.37479 18.8565 7.35942 18.7985C7.34457 18.7414 7.31645 18.6889 7.27748 18.6456C7.04472 18.5149 6.85421 18.3169 6.72949 18.0759L6.69364 18.0179C6.86805 18.0403 7.03206 18.1156 7.16481 18.2342C7.1948 18.2525 7.22777 18.265 7.26212 18.2711H7.29284C7.34967 18.2593 7.40365 18.236 7.45161 18.2025C7.50062 18.1693 7.55699 18.1493 7.61549 18.1445C7.64145 18.1476 7.66526 18.1608 7.68207 18.1814C7.68522 18.1899 7.68522 18.1993 7.68207 18.2078C7.68647 18.234 7.68647 18.2607 7.68207 18.2869C7.67724 18.3219 7.67724 18.3574 7.68207 18.3924C7.68207 18.4129 7.6867 18.4331 7.69559 18.4514C7.70448 18.4697 7.71738 18.4856 7.73328 18.4979C7.73308 18.5332 7.73978 18.5682 7.75298 18.6009C7.76617 18.6335 7.7856 18.663 7.8101 18.6878C7.94607 18.7853 8.11116 18.8301 8.27615 18.8143H8.30688C8.39488 18.8243 8.48378 18.8071 8.56223 18.7648C8.64067 18.7225 8.70511 18.6571 8.74732 18.577V18.5454C8.67491 18.3923 8.59279 18.2443 8.50149 18.1023C8.44904 18.0714 8.40333 18.0297 8.3672 17.9798C8.33108 17.9299 8.30532 17.8728 8.29152 17.8122C8.2305 17.8036 8.17181 17.7823 8.119 17.7497C8.06618 17.7171 8.02034 17.6737 7.98423 17.6224C7.90173 17.5084 7.78144 17.4295 7.64622 17.4008L7.2826 17.3375C6.91386 17.2848 6.56049 17.2321 6.36587 16.8892C6.34416 16.8301 6.33204 16.7678 6.33002 16.7046C6.33028 16.6036 6.35872 16.5047 6.41197 16.4198L6.45806 16.3618C6.88153 15.9601 7.16119 15.4231 7.25187 14.8375V14.5949C7.25187 14.5211 7.25187 14.4578 7.25187 14.4103C7.25187 14.3629 7.27748 14.2574 7.35942 14.2363H7.52843C8.22885 14.1987 8.91259 14.0024 9.53089 13.6614C10.2627 13.2757 10.8603 12.6657 11.2414 11.9156L11.4156 11.9842C11.5487 12.0211 11.7536 12.0791 11.8662 11.9103C11.9366 11.6939 12.0348 11.4881 12.1582 11.2985L12.2247 11.1983C12.3746 10.8993 12.475 10.5767 12.5218 10.2437C12.6598 10.0276 12.7603 9.78845 12.8188 9.53691C12.87 9.35759 12.8188 9.10442 12.9008 8.9462C13.0227 8.76598 13.1775 8.61192 13.3566 8.49261C13.4376 8.56354 13.5293 8.62053 13.628 8.66138C13.6526 8.66534 13.6762 8.67438 13.6973 8.68798C13.7184 8.70158 13.7367 8.71944 13.7509 8.7405C13.7552 8.75421 13.7552 8.76898 13.7509 8.78269C13.7509 8.83016 13.7151 8.86181 13.6536 8.91455C13.5921 8.96729 13.5256 9.01476 13.5256 9.10442V9.13079C13.5372 9.14052 13.5467 9.15253 13.5538 9.16611C13.5608 9.17969 13.5652 9.19458 13.5665 9.20991C13.561 9.24872 13.5489 9.28622 13.5307 9.32067C13.4971 9.36613 13.4791 9.42177 13.4795 9.4789C13.6644 9.83679 13.9652 10.1167 14.3296 10.27H14.3655L14.4321 10.0643C14.4544 9.97647 14.4664 9.88616 14.4679 9.79535C14.459 9.73511 14.4622 9.67365 14.4772 9.6147C14.4921 9.55576 14.5186 9.50058 14.555 9.45252L14.4782 9.06223C14.4201 8.84534 14.3857 8.62243 14.3757 8.39767V8.29219C14.3661 8.20341 14.3347 8.1186 14.2846 8.04572C14.2344 7.97284 14.1671 7.91427 14.0889 7.87552C14.3361 7.64484 14.63 7.47369 14.9493 7.37446C14.9783 7.3721 15.0064 7.3634 15.0319 7.34897C15.0574 7.33453 15.0795 7.31468 15.097 7.29074C15.1144 7.26679 15.1267 7.2393 15.133 7.21009C15.1394 7.18087 15.1396 7.15061 15.1337 7.1213V7.07911C15.1302 7.04842 15.1334 7.01732 15.1432 6.9881C15.1529 6.95888 15.1689 6.9323 15.19 6.91033C15.1952 6.90647 15.2015 6.90439 15.2079 6.90439C15.2144 6.90439 15.2206 6.90647 15.2259 6.91033C15.2553 6.91374 15.2835 6.92462 15.3078 6.94198C15.4307 7.01054 15.4973 6.94198 15.5536 6.87341L15.5895 6.83122C16.0043 6.87341 16.1016 6.5886 16.2143 6.30379L16.2655 6.16666C16.3244 6.04763 16.3372 5.91002 16.3014 5.78164H16.2758C16.0697 5.82504 15.8699 5.89596 15.6817 5.99261H15.6356H15.5946C15.4517 6.01212 15.3168 6.0724 15.2054 6.16666L15.0671 6.2616C14.6919 6.40299 14.3548 6.63442 14.0838 6.9367C13.8682 7.15146 13.6274 7.33751 13.3668 7.4905C13.5768 7.56434 13.797 7.58543 13.9199 7.72784C13.9455 7.75949 13.9814 7.88607 14.0019 7.90189C13.734 7.74102 13.4383 7.63533 13.1312 7.59071L12.911 7.53797H12.8803C12.5126 7.71968 12.2072 8.01212 12.0045 8.37657C11.9636 8.56645 11.8867 8.96202 11.8611 9.08333C11.8278 9.32756 11.7712 9.56782 11.6921 9.80062C11.5832 9.49857 11.4513 9.20582 11.2978 8.9251C11.1291 8.727 10.9863 8.50715 10.8727 8.27109C10.7968 8.0401 10.6645 7.83307 10.4886 7.66982C10.3235 7.55907 10.1978 7.39623 10.1301 7.20569C10.0648 6.9851 9.92247 6.79722 9.73062 6.67826L9.68453 6.55168C9.4877 6.25809 9.23507 6.00868 8.94193 5.81856C8.85526 5.79516 8.77606 5.74874 8.71226 5.68396C8.64845 5.61917 8.60226 5.53828 8.57831 5.44936L8.50661 5.3386C8.50194 5.28421 8.50194 5.22949 8.50661 5.1751C8.54211 4.84425 8.68251 4.53468 8.90608 4.2943C9.18683 4.00489 9.41416 3.66533 9.57698 3.29219L9.78184 2.99683C10.0274 2.71516 10.1907 2.36779 10.253 1.99472C10.3145 1.7943 10.3093 1.85759 10.4169 1.68354C10.6832 1.23522 10.7754 1.10337 10.8727 1.077H10.9188C10.9701 1.05189 11.0146 1.01426 11.0485 0.967378C11.0824 0.920496 11.1047 0.865785 11.1134 0.808009L11.1595 0.639233L11.1953 0.507376C11.2824 0.401757 11.3454 0.277409 11.3797 0.143452C11.3768 0.10796 11.3624 0.0745099 11.3387 0.0485153C11.3332 0.045717 11.327 0.044263 11.3208 0.044263C11.3146 0.044263 11.3085 0.045717 11.3029 0.0485153L11.3695 -0.0411472C11.4207 -0.109713 11.518 -0.220472 11.518 -0.299586C11.518 -0.3787 11.4309 -0.441991 11.3951 -0.447266C11.3387 -0.447266 11.098 -0.183553 11.098 -0.183553C10.9956 -0.0991643 10.4271 0.62341 10.4271 0.62341C10.158 0.927325 9.90493 1.246 9.66917 1.57805L9.33116 1.88923L8.84462 2.41666C8.68363 2.59002 8.56742 2.80218 8.50661 3.03375C8.17878 3.23109 7.93138 3.54396 7.8101 3.91455C7.66928 4.07065 7.50501 4.20243 7.32357 4.30484C7.00605 4.51054 6.68852 4.72679 6.65267 5.16455C6.55371 5.2117 6.4622 5.27393 6.38124 5.34915L6.24296 5.45991C6.17126 5.51265 6.1559 5.45991 6.12005 5.43354C6.2276 5.28586 6.24296 5.25949 6.26345 5.22784C6.27064 5.19663 6.27064 5.16412 6.26345 5.1329C6.25815 5.08423 6.24076 5.03779 6.21295 4.99806C6.18514 4.95834 6.14785 4.92667 6.10468 4.90611V4.85337C6.1047 4.82954 6.09912 4.80607 6.08842 4.78494C6.07772 4.76382 6.06221 4.74567 6.04323 4.73206C6.04532 4.71272 6.04085 4.69322 6.03058 4.67688C6.02032 4.66054 6.00488 4.64836 5.98689 4.6424C5.98689 4.6424 5.98689 4.61075 6.02786 4.57911C6.05315 4.54685 6.0707 4.5089 6.07908 4.46835L6.01762 4.41033L8.50661 0.169823C8.51643 0.106829 8.54944 0.0501561 8.5988 0.0115956C8.67478 -0.0797794 8.71815 -0.195161 8.72171 -0.315409C8.72452 -0.336407 8.72452 -0.357702 8.72171 -0.3787H8.65513C8.59487 -0.362029 8.5393 -0.330865 8.493 -0.287771C8.4467 -0.244677 8.411 -0.190882 8.38882 -0.13081C8.37655 -0.0660259 8.342 -0.00797376 8.29152 0.0326926C8.29152 0.0326926 5.83325 4.12025 5.80764 4.17299C5.78204 4.22573 5.74619 4.13607 5.73082 4.07278C5.72117 4.03864 5.70419 4.00717 5.68114 3.9807C5.6581 3.95422 5.62957 3.93342 5.59767 3.91982C5.46071 3.8904 5.32812 3.84252 5.20332 3.77742C5.14698 3.77742 5.16235 3.77742 5.1265 3.7405C5.11271 3.7097 5.09209 3.68267 5.06629 3.6616C5.04049 3.64053 5.01024 3.626 4.97798 3.61919H4.94725H4.87043C4.8151 3.64156 4.75554 3.65058 4.6963 3.64556H4.66557C4.60732 3.6357 4.54754 3.64459 4.49438 3.67102C4.44121 3.69745 4.39727 3.74014 4.36853 3.79324H4.32244C4.14319 3.79324 4.07149 3.95674 4.00491 4.09387C3.97527 4.18855 3.92023 4.27265 3.84615 4.33649C3.80132 4.37729 3.7657 4.42771 3.74181 4.48421C3.71792 4.5407 3.70634 4.6019 3.70787 4.66349V4.87446V4.9905C3.70315 5.03961 3.70315 5.08907 3.70787 5.13818C3.71139 5.18239 3.72741 5.22456 3.75397 5.25949C3.77061 5.37255 3.81384 5.47972 3.87989 5.57164C3.94594 5.66357 4.03282 5.73747 4.13295 5.78691C4.17768 5.87865 4.24544 5.95638 4.32919 6.01203C4.41295 6.06768 4.50965 6.09921 4.60924 6.10337C4.60924 6.10337 4.60924 6.10337 4.65533 6.12974L1.97172 10.6023C1.94623 10.6055 1.92174 10.6146 1.90003 10.6287L1.78223 10.6867C1.67468 10.7131 1.6542 10.7553 1.64908 10.8502" fill="#535862"/>
</g>
<defs>
<clipPath id="clip0_838_802">
<rect width="105" height="20" fill="white"/>
</clipPath>
</defs>
</svg>
