<svg xmlns="http://www.w3.org/2000/svg" style="display: none;">
  <!-- Facebook Icon -->
  <symbol id="icon-facebook" viewBox="0 0 24 24">
    <g clip-path="url(#clip0_1719_3511)">
      <path d="M24 12C24 5.37258 18.6274 0 12 0C5.37258 0 0 5.37258 0 12C0 17.9895 4.3882 22.954 10.125 23.8542V15.4688H7.07812V12H10.125V9.35625C10.125 6.34875 11.9166 4.6875 14.6576 4.6875C15.9701 4.6875 17.3438 4.92188 17.3438 4.92188V7.875H15.8306C14.34 7.875 13.875 8.80008 13.875 9.75V12H17.2031L16.6711 15.4688H13.875V23.8542C19.6118 22.954 24 17.9895 24 12Z" fill="#1877F2"/>
      <path d="M16.6711 15.4688L17.2031 12H13.875V9.75C13.875 8.80102 14.34 7.875 15.8306 7.875H17.3438V4.92188C17.3438 4.92188 15.9705 4.6875 14.6576 4.6875C11.9166 4.6875 10.125 6.34875 10.125 9.35625V12H7.07812V15.4688H10.125V23.8542C11.3674 24.0486 12.6326 24.0486 13.875 23.8542V15.4688H16.6711Z" fill="white"/>
    </g>
    <defs>
      <clipPath id="clip0_1719_3511">
        <rect width="24" height="24" fill="white"/>
      </clipPath>
    </defs>
  </symbol>

  <!-- Twitter (X) Icon -->
  <symbol id="icon-twitter" viewBox="0 0 24 24">
    <path fill-rule="evenodd" clip-rule="evenodd" d="M15.9455 23L10.396 15.0901L3.44886 23H0.509766L9.09209 13.2311L0.509766 1H8.05571L13.286 8.45502L19.8393 1H22.7784L14.5943 10.3165L23.4914 23H15.9455ZM19.2185 20.77H17.2398L4.71811 3.23H6.6971L11.7121 10.2532L12.5793 11.4719L19.2185 20.77Z" fill="#242E36"/>
  </symbol>

  <!-- Instagram Icon-->
  <symbol id="icon-instagram" viewBox="0 0 24 24">
    <g clip-path="url(#clip0_1719_3516)">
      <path d="M12 2.16094C15.2063 2.16094 15.5859 2.175 16.8469 2.23125C18.0188 2.28281 18.6516 2.47969 19.0734 2.64375C19.6313 2.85938 20.0344 3.12188 20.4516 3.53906C20.8734 3.96094 21.1313 4.35938 21.3469 4.91719C21.5109 5.33906 21.7078 5.97656 21.7594 7.14375C21.8156 8.40937 21.8297 8.78906 21.8297 11.9906C21.8297 15.1969 21.8156 15.5766 21.7594 16.8375C21.7078 18.0094 21.5109 18.6422 21.3469 19.0641C21.1313 19.6219 20.8687 20.025 20.4516 20.4422C20.0297 20.8641 19.6313 21.1219 19.0734 21.3375C18.6516 21.5016 18.0141 21.6984 16.8469 21.75C15.5813 21.8062 15.2016 21.8203 12 21.8203C8.79375 21.8203 8.41406 21.8062 7.15313 21.75C5.98125 21.6984 5.34844 21.5016 4.92656 21.3375C4.36875 21.1219 3.96563 20.8594 3.54844 20.4422C3.12656 20.0203 2.86875 19.6219 2.65313 19.0641C2.48906 18.6422 2.29219 18.0047 2.24063 16.8375C2.18438 15.5719 2.17031 15.1922 2.17031 11.9906C2.17031 8.78438 2.18438 8.40469 2.24063 7.14375C2.29219 5.97187 2.48906 5.33906 2.65313 4.91719C2.86875 4.35938 3.13125 3.95625 3.54844 3.53906C3.97031 3.11719 4.36875 2.85938 4.92656 2.64375C5.34844 2.47969 5.98594 2.28281 7.15313 2.23125C8.41406 2.175 8.79375 2.16094 12 2.16094ZM12 0C8.74219 0 8.33438 0.0140625 7.05469 0.0703125C5.77969 0.126563 4.90313 0.332812 4.14375 0.628125C3.35156 0.9375 2.68125 1.34531 2.01563 2.01562C1.34531 2.68125 0.9375 3.35156 0.628125 4.13906C0.332812 4.90313 0.126563 5.775 0.0703125 7.05C0.0140625 8.33437 0 8.74219 0 12C0 15.2578 0.0140625 15.6656 0.0703125 16.9453C0.126563 18.2203 0.332812 19.0969 0.628125 19.8563C0.9375 20.6484 1.34531 21.3188 2.01563 21.9844C2.68125 22.65 3.35156 23.0625 4.13906 23.3672C4.90313 23.6625 5.775 23.8687 7.05 23.925C8.32969 23.9812 8.7375 23.9953 11.9953 23.9953C15.2531 23.9953 15.6609 23.9812 16.9406 23.925C18.2156 23.8687 19.0922 23.6625 19.8516 23.3672C20.6391 23.0625 21.3094 22.65 21.975 21.9844C22.6406 21.3188 23.0531 20.6484 23.3578 19.8609C23.6531 19.0969 23.8594 18.225 23.9156 16.95C23.9719 15.6703 23.9859 15.2625 23.9859 12.0047C23.9859 8.74688 23.9719 8.33906 23.9156 7.05938C23.8594 5.78438 23.6531 4.90781 23.3578 4.14844C23.0625 3.35156 22.6547 2.68125 21.9844 2.01562C21.3188 1.35 20.6484 0.9375 19.8609 0.632812C19.0969 0.3375 18.225 0.13125 16.95 0.075C15.6656 0.0140625 15.2578 0 12 0Z" fill="#000100"/>
<path d="M12 5.83594C8.59688 5.83594 5.83594 8.59688 5.83594 12C5.83594 15.4031 8.59688 18.1641 12 18.1641C15.4031 18.1641 18.1641 15.4031 18.1641 12C18.1641 8.59688 15.4031 5.83594 12 5.83594ZM12 15.9984C9.79219 15.9984 8.00156 14.2078 8.00156 12C8.00156 9.79219 9.79219 8.00156 12 8.00156C14.2078 8.00156 15.9984 9.79219 15.9984 12C15.9984 14.2078 14.2078 15.9984 12 15.9984Z" fill="#000100"/>
<path d="M19.8469 5.59214C19.8469 6.38902 19.2 7.03121 18.4078 7.03121C17.6109 7.03121 16.9688 6.38433 16.9688 5.59214C16.9688 4.79526 17.6156 4.15308 18.4078 4.15308C19.2 4.15308 19.8469 4.79995 19.8469 5.59214Z" fill="#000100"/>
    </g>
    <defs>
      <clipPath id="clip0_1719_3516">
        <rect width="24" height="24" fill="white"/>
      </clipPath>
    </defs>
  </symbol>

  <!-- LinkedIn Icon -->
  <symbol id="icon-linkedin" viewBox="0 0 24 24">
    <g clip-path="url(#clip0_1719_3521)">
      <path d="M22.2283 0H1.77167C1.30179 0 0.851161 0.186657 0.518909 0.518909C0.186657 0.851161 0 1.30179 0 1.77167V22.2283C0 22.6982 0.186657 23.1488 0.518909 23.4811C0.851161 23.8133 1.30179 24 1.77167 24H22.2283C22.6982 24 23.1488 23.8133 23.4811 23.4811C23.8133 23.1488 24 22.6982 24 22.2283V1.77167C24 1.30179 23.8133 0.851161 23.4811 0.518909C23.1488 0.186657 22.6982 0 22.2283 0ZM7.15333 20.445H3.545V8.98333H7.15333V20.445ZM5.34667 7.395C4.93736 7.3927 4.53792 7.2692 4.19873 7.04009C3.85955 6.81098 3.59584 6.48653 3.44088 6.10769C3.28591 5.72885 3.24665 5.31259 3.32803 4.91145C3.40941 4.51032 3.6078 4.14228 3.89816 3.85378C4.18851 3.56529 4.55782 3.36927 4.95947 3.29046C5.36112 3.21165 5.77711 3.25359 6.15495 3.41099C6.53279 3.56838 6.85554 3.83417 7.08247 4.17481C7.30939 4.51546 7.43032 4.91569 7.43 5.325C7.43386 5.59903 7.38251 5.87104 7.27901 6.1248C7.17551 6.37857 7.02198 6.6089 6.82757 6.80207C6.63316 6.99523 6.40185 7.14728 6.14742 7.24915C5.893 7.35102 5.62067 7.40062 5.34667 7.395ZM20.4533 20.455H16.8467V14.1933C16.8467 12.3467 16.0617 11.7767 15.0483 11.7767C13.9783 11.7767 12.9283 12.5833 12.9283 14.24V20.455H9.32V8.99167H12.79V10.58H12.8367C13.185 9.875 14.405 8.67 16.2667 8.67C18.28 8.67 20.455 9.865 20.455 13.365L20.4533 20.455Z" fill="#0A66C2"/>
    </g>
    <defs>
      <clipPath id="clip0_1719_3521">
        <rect width="24" height="24" fill="white"/>
      </clipPath>
    </defs>
  </symbol>

  <!-- Visa Icon -->
  <symbol id="icon-visa" width="46" height="32" viewBox="0 0 46 32" fill="none" xmlns="http://www.w3.org/2000/svg">
    <rect x="0.5" y="0.5" width="45" height="31" rx="5.5" fill="white"/>
    <rect x="0.5" y="0.5" width="45" height="31" rx="5.5" stroke="#F5F5F5"/>
    <path fill-rule="evenodd" clip-rule="evenodd" d="M14.3341 21.1443H11.5877L9.52833 13.0565C9.43058 12.6844 9.22304 12.3555 8.91774 12.2005C8.15584 11.811 7.31628 11.5009 6.40039 11.3446V11.0332H10.8245C11.4351 11.0332 11.893 11.5009 11.9694 12.0442L13.0379 17.8782L15.7829 11.0332H18.4529L14.3341 21.1443ZM19.9794 21.1443H17.3857L19.5214 11.0332H22.1151L19.9794 21.1443ZM25.4707 13.8343C25.547 13.2897 26.0049 12.9783 26.5392 12.9783C27.3788 12.9001 28.2933 13.0565 29.0565 13.4447L29.5145 11.2677C28.7512 10.9564 27.9117 10.8 27.1498 10.8C24.6324 10.8 22.8007 12.2005 22.8007 14.1443C22.8007 15.623 24.0982 16.3995 25.0141 16.8672C26.0049 17.3336 26.3865 17.645 26.3102 18.1114C26.3102 18.811 25.547 19.1224 24.7851 19.1224C23.8692 19.1224 22.9533 18.8892 22.1151 18.4996L21.6571 20.6779C22.573 21.0661 23.5639 21.2225 24.4798 21.2225C27.3024 21.2993 29.0565 19.9001 29.0565 17.8C29.0565 15.1553 25.4707 15.0003 25.4707 13.8343V13.8343ZM38.1337 21.1443L36.0743 11.0332H33.8623C33.4043 11.0332 32.9464 11.3446 32.7937 11.811L28.9802 21.1443H31.6502L32.1831 19.6669H35.4637L35.769 21.1443H38.1337ZM34.2439 13.7561L35.0058 17.5668H32.8701L34.2439 13.7561Z" fill="#172B85"/>
  </symbol>


  <!-- Mastercard Icon-->
  <symbol id="icon-mastercard"  width="46" height="32" viewBox="0 0 46 32" fill="none" xmlns="http://www.w3.org/2000/svg">
    <rect x="0.5" y="0.5" width="45" height="31" rx="5.5" fill="white"/>
    <rect x="0.5" y="0.5" width="45" height="31" rx="5.5" stroke="#F5F5F5"/>
    <path d="M28.7695 6.7066C33.7627 6.7066 37.8105 10.7065 37.8105 15.6402C37.8104 20.5738 33.7626 24.5728 28.7695 24.5728C26.5311 24.5728 24.4842 23.7676 22.9053 22.4361C21.3264 23.7676 19.2795 24.5728 17.041 24.5728C12.0479 24.5728 8.00014 20.5738 8 15.6402C8 10.7065 12.0479 6.7066 17.041 6.7066C19.2794 6.70663 21.3264 7.51196 22.9053 8.84332C24.4842 7.51196 26.5312 6.70664 28.7695 6.7066Z" fill="#ED0006"/>
    <path d="M28.7695 6.7066C33.7627 6.7066 37.8105 10.7065 37.8105 15.6402C37.8104 20.5738 33.7626 24.5728 28.7695 24.5728C26.5311 24.5728 24.4842 23.7676 22.9053 22.4361C24.8482 20.7976 26.082 18.362 26.082 15.6402C26.082 12.9182 24.8484 10.4819 22.9053 8.84332C24.4842 7.51196 26.5312 6.70663 28.7695 6.7066Z" fill="#F9A000"/>
    <path d="M22.9043 8.84363C24.8475 10.4821 26.0809 12.9176 26.0811 15.6395C26.0811 18.3615 24.8474 20.7969 22.9043 22.4354C20.9617 20.7969 19.7285 18.3611 19.7285 15.6395C19.7286 12.918 20.9616 10.4821 22.9043 8.84363Z" fill="#FF5E00"/>
  </symbol>

</svg>
